<svg id="dfd4142b-e049-4aa0-a67d-2fb93852aacd" data-name="Livello 1" xmlns="http://www.w3.org/2000/svg" viewBox="0 0 266.47 57.55"><defs><style>.\34 9f16407-8543-44cf-b918-b498c9dc3fb6{font-size:18px;font-family:TitilliumWeb-SemiBold, Titillium Web;}.\34 303ac9e-1ac7-403c-8d51-ed8736140039,.\34 9f16407-8543-44cf-b918-b498c9dc3fb6,.\39 1756512-0680-4712-bfd9-309a0727a839,.bca9eba8-6c76-40e8-83e5-927e2e91627a{fill:#fff;}.\34 303ac9e-1ac7-403c-8d51-ed8736140039,.\34 9f16407-8543-44cf-b918-b498c9dc3fb6{font-weight:700;}.\35 78df0e1-81b0-4006-8177-ca7ca644eb95{letter-spacing:-0.01em;}.\34 303ac9e-1ac7-403c-8d51-ed8736140039{font-size:50px;font-family:TitilliumWeb-Bold, Titillium Web;}.\37 30aade6-04b1-4870-9d7f-1fdec690c573{letter-spacing:-0.01em;}.\36 213d32a-a9c7-4000-97ff-ae5e46f160ce{fill:#06c;}.d8f6ddf7-ccb8-4f1f-9d05-60dc908f6c9b{fill:#6f7072;}.bca9eba8-6c76-40e8-83e5-927e2e91627a{stroke:#fff;stroke-miterlimit:10;}</style></defs><title>AgID_bianco</title><text class="49f16407-8543-44cf-b918-b498c9dc3fb6" transform="translate(156.31 20.18)"><tspan class="578df0e1-81b0-4006-8177-ca7ca644eb95">A</tspan><tspan x="10.64" y="0">genzia per</tspan><tspan x="0" y="21.6">l’Italia Digitale</tspan></text><text class="4303ac9e-1ac7-403c-8d51-ed8736140039" transform="translate(37.5 42)"><tspan class="730aade6-04b1-4870-9d7f-1fdec690c573">A</tspan><tspan x="29.6" y="0">GID</tspan></text><path class="6213d32a-a9c7-4000-97ff-ae5e46f160ce" d="M23.05,29.83c.16,0,.37.07.32.21s-.11.34-.22.36a.41.41,0,0,1-.37-.32.26.26,0,0,1,.27-.25Z" transform="translate(-0.08 0.28)"/><path class="6213d32a-a9c7-4000-97ff-ae5e46f160ce" d="M9.77,34a.5.5,0,0,0,.5,0l-.14-.2-.29-.25c-.16-.09-.28,0-.39.22l.32.23Z" transform="translate(-0.08 0.28)"/><path class="d8f6ddf7-ccb8-4f1f-9d05-60dc908f6c9b" d="M18.38,39.84c0,.09,0,.16.09.25s.21.09.28,0l-.37-.29Z" transform="translate(-0.08 0.28)"/><path class="91756512-0680-4712-bfd9-309a0727a839" d="M29.92,23.29c.09-.63,0-1-.2-1.22s-.52-.11-.89.16c-.2-.11-.47,0-.81.29a.47.47,0,0,0,0-.4,1,1,0,0,0,.59-.48,1.87,1.87,0,0,0,.14-.81,3.93,3.93,0,0,1,.63-1.22c.27-.59.07-.8-.54-.62a1.27,1.27,0,0,0,.52-.81,1.4,1.4,0,0,0-.27-.81c-.1-.19-.21-.23-.39-.12a.83.83,0,0,0,.09-.43,3.7,3.7,0,0,0-.34-1.06c0-.7-.2-1-.5-.88a2.52,2.52,0,0,0-.36-1.07c-.29-.43-.52-.54-.68-.34-.47-.7-.9-1-1.31-.86a1.53,1.53,0,0,0-.29-.81,2.84,2.84,0,0,0-.39-1c-.2-.09-.36,0-.45.36a2.8,2.8,0,0,0-.25-.81.71.71,0,0,0-.63-.46.43.43,0,0,0-.3.05,1.08,1.08,0,0,0-.47-.18c-.41-.43-.77-.48-1.11-.11l-.05-.39c-.11-.43-.36-.54-.72-.29a6,6,0,0,0-1.49-1.2c-.34-.12-.57-.09-.68.09a1.11,1.11,0,0,0-.57-.34,4.58,4.58,0,0,1-.56-.16c-.27,0-.39.14-.36.45a1.59,1.59,0,0,0-.89.23.43.43,0,0,0-.13.52.89.89,0,0,0,.52.54.61.61,0,0,0-.09.39c0,.18.2.31.56.45a1.89,1.89,0,0,0,.82,0,.38.38,0,0,0,.29.52,1.11,1.11,0,0,0,1.29.27l-.07.46.7.29a.84.84,0,0,0,.48.72l.27.12a.83.83,0,0,0-.32.25.28.28,0,0,0,.16.47,6.58,6.58,0,0,0,.88.05,1.16,1.16,0,0,0,.12.34,2.07,2.07,0,0,0,.38.49,3.42,3.42,0,0,0,.86.55A3.09,3.09,0,0,0,23,15a1.07,1.07,0,0,0,.05.91c-.05,0-.21.09-.27.2-.23.34.24.84.33,1a.83.83,0,0,0-.24.11c-.16.12-.12.7.36.82a4.58,4.58,0,0,1,.93.65c0,.05.2.34.43.64s.22.4.52.4a8.92,8.92,0,0,0,1.19,2.42,4.17,4.17,0,0,1,.64,1,2,2,0,0,0-.05.56,9.14,9.14,0,0,1-.31,1.59c-.5-.25-.59.09-.66.4,0,0-.23,0-.27.07,0-.2-.3-.36-.45-.27l-.28.18s-.06-.16-.06-.29a1.64,1.64,0,0,1,0-.57s.14-.16.21-.29a3.19,3.19,0,0,0-.14-1.7.39.39,0,0,0-.27-.29.31.31,0,0,0-.36.2c0-.11-.21-.18-.34-.23-.39-.09-.82.66-.77,1.36-.3-.22-.66-.16-.61.23s.88,1.51.9,1.94c-.25-.22-.81-.22-.81.32a1.72,1.72,0,0,0,.18.54c-.11.57.54,1,1.08,1.52,0,.25.07.25.16.36-.09.16-.7,1.09-.7,1.11s-.45-.23-.59-.09a2.37,2.37,0,0,0-.34.41l.07.65a1.11,1.11,0,0,1-.43.93,3.23,3.23,0,0,0-.68.93,1.51,1.51,0,0,1-.7.7,1,1,0,0,0-.29-.34.11.11,0,0,0-.14-.05,25.81,25.81,0,0,0-2.44,1.18,2.66,2.66,0,0,0-.91,1.06h-.7a4.72,4.72,0,0,0-.61-.56.76.76,0,0,0-.81.07,1.4,1.4,0,0,0-1.11.2.71.71,0,0,1-.5,0l-.88-.95a9.64,9.64,0,0,0-3-1,.84.84,0,0,0-.38.45,4.17,4.17,0,0,1-.82-.68l-.54-.63a1.59,1.59,0,0,1-.5-1.29l.09-.55a.19.19,0,0,0,0-.2,1.11,1.11,0,0,0-.48-.25s-.11,0-.18.3c0,.06-.56-.8-.59-.82a3.6,3.6,0,0,0,.62-1.27,8.05,8.05,0,0,0,.27-1.69.17.17,0,0,1,.07-.09,6.18,6.18,0,0,0,.54-2.67c0-.18-.09-.3-.14-.3a.22.22,0,0,0-.16.05l.12-.2c.07-.16.07-.25,0-.3a1,1,0,0,0-.64.11,4.23,4.23,0,0,0-.25-.92c0-.05-.11,0-.11,0a2.61,2.61,0,0,0-.9,1.78L5.19,24a7.06,7.06,0,0,0-1.38,2.78,3.44,3.44,0,0,1-.27-.72c-.09-.32-.14-.52-.09-.63A.37.37,0,0,0,3.36,25a5.66,5.66,0,0,1-.48-1.61,5.47,5.47,0,0,1,.3-1.13A14.22,14.22,0,0,1,4.1,20.4a1.38,1.38,0,0,1,.28-.25C5,20,7.75,16.44,7.45,14.79a13.68,13.68,0,0,0,1.29-2.4l.16-.05.18-.07c.59-.24,1.11-.49,1.56-.7l.73-.38a5.22,5.22,0,0,0,1.42-.88A2,2,0,0,0,13.56,9c-.09-.18-.31-.24-.72-.24A1.48,1.48,0,0,0,13.18,8c-.16-.2-.61-.25-1.41-.11a6.22,6.22,0,0,0-2.12,1A7.87,7.87,0,0,0,8,10.28,8,8,0,0,0,6.8,12.05l.36-.82c.18-.38.36-.86.56-1.38a.7.7,0,0,0,0-.54c0-.13-.15-.16-.33-.11a3.26,3.26,0,0,0-1,.74A8,8,0,0,0,4.9,12,13.48,13.48,0,0,0,4,14a3.12,3.12,0,0,0,0-1.38c-.07-.16-.18-.2-.38-.13A2.25,2.25,0,0,0,3,13c-.18.28-.38.52-.54.77a9.29,9.29,0,0,0-.63,1,8.31,8.31,0,0,0-.64,1.61A14.86,14.86,0,0,0,.8,18.93,6.66,6.66,0,0,0,.94,21a7.49,7.49,0,0,0,.56,1.65,1.25,1.25,0,0,0,.55.64c.11.27.24.7.43,1.31a2.35,2.35,0,0,1,.13.65.31.31,0,0,0,.11.32A.72.72,0,0,1,3,26a7.22,7.22,0,0,0,.63,1.59,5.25,5.25,0,0,0-.06.79c-.57-1.65-1-2.9-1.41-3.76C1.41,23,.89,22.34.48,22.48A.59.59,0,0,0,.1,23a5,5,0,0,0,0,.81,10.66,10.66,0,0,0,.14,1.41,9.61,9.61,0,0,0,1.83,4l1.31,1.53a3.24,3.24,0,0,0,.75.59.75.75,0,0,0,.65.09,12.27,12.27,0,0,0,1.13,1.5c.3.43.59.65.89.63a.61.61,0,0,0,.59.43l.27-.05a8.46,8.46,0,0,0,1,.86l-.34,1a11,11,0,0,1-1.65.13c-.47-.34-1.11-.79-2-1.36l0-1.06a1.55,1.55,0,0,1,.2-.93c.05-.2-.07-.38-.34-.54s-.56-.27-.72-.23,0,.1,0,.21V32c0-.05,0-.07.09-.05.49.14.72.3.67.5a1.77,1.77,0,0,0-.22.88l0,.93a14.19,14.19,0,0,0-2-1.11,1.46,1.46,0,0,1,.3,0,.19.19,0,0,0,.2-.12c0-.06,0-.11-.2-.13a1.66,1.66,0,0,0-.72.09c-.1.09-.07.2,0,.29a21.64,21.64,0,0,1,2.26,1.29c1,.66,1.84,1.2,2.42,1.61.57,0,1.34-.09,2.36-.23l1.54-.29c.63-.11,1.28-.23,2-.3a6.22,6.22,0,0,1,1-.06c.39,0,.73-.05,1.07-.09A4.89,4.89,0,0,1,15,36.75c.05.23,0,.37-.09.39a27.15,27.15,0,0,1-3,1l-1.68.37c-1.24.22-2.49.4-3.68.54a19.28,19.28,0,0,1-2.67-1.38,14.14,14.14,0,0,1-2.2-1.54c-.47-.52-.65-.81-.56-.93a6,6,0,0,0,.63-1.35.81.81,0,0,0,0-.39c-.13-.41,0-.61.3-.63a15.08,15.08,0,0,1,1.61,0,.16.16,0,0,0,.22-.11l.27-.54L4,32.05l-.22.36v.11L2,32.57a.59.59,0,0,0-.43.18.87.87,0,0,0-.05.72.9.9,0,0,1,0,.34,4.89,4.89,0,0,1-.68,1.41c-.05.09,0,.2.07.38a4.19,4.19,0,0,0,.68.79,5,5,0,0,0,.7.57c.31.22.88.56,1.67,1a25.93,25.93,0,0,0,2.69,1.4c.18,0,1.38-.16,3.58-.47l0,.2c-.63.48-1,.68-1.22.59s-.32.2-.23.56a.55.55,0,0,0,.39.32l.22.27.66.39a1.26,1.26,0,0,0,.72,0,.73.73,0,0,0,.43-.55l.07-.06.73-.73.52-.38a1.08,1.08,0,0,0,.79-.43c0-.18.07-.32.16-.36l.63-.43c0-.07.27,0,.77.29a.79.79,0,0,0,.63,0l.48-.27a6.8,6.8,0,0,1,2.19,1.56c0,.12.05.23.21.39a1.21,1.21,0,0,0,.67.27l.25.48.25.09a1.47,1.47,0,0,0,1-.39l.39-.13a.55.55,0,0,0,.27-.48l-.16-.16-.34-.09A7.29,7.29,0,0,1,19.4,39l-.29-.21a48.14,48.14,0,0,0,4.84.55A1.31,1.31,0,0,0,24.9,39c.4-.29,1.6-1.15,3.62-2.57a4.32,4.32,0,0,0,.72-1.11,2,2,0,0,1-.47-.73,2.53,2.53,0,0,1-.25-.79,1.45,1.45,0,0,1,0-.54.45.45,0,0,0-.15-.45.54.54,0,0,0-.41-.16,5.62,5.62,0,0,0-1.29,0c-.23,0-.36-.07-.39-.16l0-.43c0-.18,0-.27-.16-.25a2.39,2.39,0,0,0-.95.39.35.35,0,0,0,0,.54.5.5,0,0,1,.2.41,10.6,10.6,0,0,1-.2,1.58A12.62,12.62,0,0,1,23.43,36a4.41,4.41,0,0,1-1.68-.11,1.64,1.64,0,0,1-.4-.86c.29-.19.61-.39.95-.64.22,0,.4-.09.56-.13s.23-.21.23-.43a.59.59,0,0,0,.34-.39l1-1.24a1.91,1.91,0,0,1,1.08-.5,4.22,4.22,0,0,0,1.86-.82.48.48,0,0,0,0-.54,6,6,0,0,0,1.11-1.11,1,1,0,0,0,.13-.95,3.44,3.44,0,0,0,.82-1.35,3,3,0,0,0,0-1,2.25,2.25,0,0,0,.48-.36.62.62,0,0,0,.14-.43.58.58,0,0,0-.21-.45A1.42,1.42,0,0,0,29.92,23.29ZM13.27,9a1.12,1.12,0,0,1-.39.75,6.89,6.89,0,0,1-1.54,1.06c-.63.32-1.47.7-2.37,1.15v-.11a23.57,23.57,0,0,1,3.3-2.22c.27-.16.16-.2-.16-.13s-.74.4-1.17.65L8.86,11.57l0-.2a12.27,12.27,0,0,1,3.35-2.31A1.84,1.84,0,0,1,13.27,9Zm-4,.43a7,7,0,0,1,2.33-1.25,3,3,0,0,1,1.13-.15c.16,0,.2.13.14.27l-.39.52A3.53,3.53,0,0,0,11,9.42,14.24,14.24,0,0,0,9.06,10.8L8.81,11c-.13-.09-.36,0-.72.14A20.49,20.49,0,0,1,10.94,9a4.07,4.07,0,0,0,.9-.55,5,5,0,0,0-1.11.5,25,25,0,0,0-2.35,1.61l-1.06.95A11,11,0,0,1,9.22,9.47Zm-1.11,2a.64.64,0,0,1,.38-.14,1.05,1.05,0,0,1,0,.5,5.12,5.12,0,0,1-.48,1.31l-.65,1.29a2.45,2.45,0,0,0-1.31.64c.2-.36.47-.79.77-1.27s.76-1.2,1.42-2.15c.11-.18.11-.23,0-.13s-.36.43-.81,1-1,1.52-1.77,2.76c-.2.32-.68,1.07-1.49,2.29l.09-.27,1.06-1.9,1-1.93A7,7,0,0,1,8.11,11.46ZM3.74,15.83c.48-.77,1-1.88,1.72-3.28a10.65,10.65,0,0,1,.88-1.41c.12-.27,0-.27-.2,0a18.73,18.73,0,0,0-2,3.44l.34-.86c.07-.19.25-.64.57-1.29a8.44,8.44,0,0,1,1-1.61c.32-.41.52-.66.63-.77.43-.36.68-.54.75-.52a.21.21,0,0,1,0,.23L6.5,12a22.09,22.09,0,0,1-2.24,3.46l-.72.81a2,2,0,0,0-.23.34l.07-.29Zm.48,2a12.43,12.43,0,0,0-.57,1.25l-.13,0,.38-1.15Zm-1.31,3L3,20.37l.11-.52.3,0-.36,1-.25.84ZM2.82,19a12.87,12.87,0,0,1,.33-1.47l.14.18ZM2.14,22.5l-.07-.13a6.29,6.29,0,0,1,.38-2.09C2.34,21.23,2.23,22,2.14,22.5Zm-.25-1a11.47,11.47,0,0,1,.18-3.07,12.4,12.4,0,0,1,.79-3.35c.16-.34.16-.41,0-.16a12.12,12.12,0,0,0-1.27,5.47,6.36,6.36,0,0,0,.14,1.84c.11.38.25.59.4.65a.24.24,0,0,0,.28,0,1.77,1.77,0,0,0-.05.39,1.39,1.39,0,0,1-.7-.73,10.85,10.85,0,0,1-.41-1.33,7.77,7.77,0,0,1-.16-2,16.43,16.43,0,0,1,.39-2.65,8,8,0,0,1,1.83-3.39c.2-.23.32-.27.39-.16a8,8,0,0,1,0,1.38,10,10,0,0,1-.34,1.49A28,28,0,0,0,2.5,19,24.63,24.63,0,0,0,1.89,21.48Zm.52,1.72v-.29A3,3,0,0,0,3,21.51l.64-1.61.72-1.7A20.34,20.34,0,0,1,6,15.6a1.92,1.92,0,0,1,1.11-.79c.09.11.09.36,0,.72a5.36,5.36,0,0,1-.43,1.16,0,0,0,0,0,0,0A11.44,11.44,0,0,1,4.4,19.79l1.22-2,.59-1.07c.23-.41.27-.54.11-.43-1.2,1.81-1.92,2.94-2.17,3.42s-.47.9-.7,1.31a7.07,7.07,0,0,0-.52.95A2.65,2.65,0,0,1,2.41,23.2ZM7.2,24a11,11,0,0,1-.36,2,9,9,0,0,0-.09-1.31l.16-.45c0-.16,0-.16-.09,0l-.09.21,0-.37L7,23.66C7.16,23.47,7.23,23.56,7.2,24Zm-.27-1c.16-.05.18,0,.09.2l-.34.5a2.13,2.13,0,0,0-.09-.52A2.26,2.26,0,0,1,6.93,23Zm-1.4.83c.25-1,.5-1.51.72-1.56a7.37,7.37,0,0,1,.32,1.93,11.86,11.86,0,0,1,0,2.53,5.2,5.2,0,0,1-.47,1.92l-.23.5c0-.75,0-1.33,0-1.81s.05-1.09.05-1.85.07-1.66.16-2.63c0-.25,0-.29,0-.16a27.06,27.06,0,0,0-.34,3.8l0,1-.05,1.4-.22-.27A11.27,11.27,0,0,1,5.21,26,12.56,12.56,0,0,1,5.53,23.81ZM4,26.8A7.27,7.27,0,0,1,5.3,24.08a9.92,9.92,0,0,0-.2,1.09,14.78,14.78,0,0,0-1.22,2.69,6.93,6.93,0,0,0-.18,1A7.69,7.69,0,0,1,4,26.8Zm1.17,1.49-.38-.49L5,27.07A3.85,3.85,0,0,0,5.12,28.29Zm3.6,7.38L9,34.94l.81.55Zm2-.34-1.34-.82L8.13,33.7l-.22-.29a.25.25,0,0,0-.3,0c-.13,0-.22,0-.29-.2a.77.77,0,0,1-1-.21l-.58-.72-.55-.95L5,31.14a.56.56,0,0,1-.38.07,1.31,1.31,0,0,1-.77-.47A11.08,11.08,0,0,1,2.79,28.9,34.2,34.2,0,0,1,1.3,25.78a11,11,0,0,0-.39-1.11c-.06-.16-.09-.16-.06,0a5.44,5.44,0,0,0,.27,1A21.17,21.17,0,0,0,2.05,28c.38.82.77,1.54,1.15,2.22A10.76,10.76,0,0,1,1.3,27.5a9.26,9.26,0,0,1-.79-2.28,6.53,6.53,0,0,1-.12-1.16,3.12,3.12,0,0,1,0-.86C.48,23,.55,23,.67,23s.22.18.49.49a10.81,10.81,0,0,1,1,2.29c.43,1.18.71,2,.82,2.33s.2.7.29,1a7.45,7.45,0,0,0,.37.84,2.34,2.34,0,0,0,.63.88c.27.21.5.23.63.11l-.65-1.17a.37.37,0,0,0-.21,0h0a.1.1,0,0,1-.07,0s-.07,0-.09,0a0,0,0,0,1,0,0s0,0-.07-.05a.53.53,0,0,1,0-.13s0-.05,0-.07v-.2A9.12,9.12,0,0,1,4,28.07,12.28,12.28,0,0,1,5.1,25.44a5.38,5.38,0,0,0-.09,1c-.43,1-.77,1.78-1,2.39-.12.43-.09.66,0,.64l.14-.07-.1-.27.07-.21.21.39.13-.09.12.16-.12.15.82,1.16.2-.16.14.16c-.25.25-.34.38-.3.47a7.71,7.71,0,0,0,.59,1c.36.52.66.68.88.46.07-.07.16,0,.27,0a1.64,1.64,0,0,1,.37.54l0-.4-.65-.64-.39-.74a8.66,8.66,0,0,1-.65-1l-.5-.86c-.2-.34-.43-.7-.73-1.13l0-.21.57.71a14.18,14.18,0,0,1,1.08,1.49c.21.34.34.43.36.25l.12-.34.16.09-.12.7,0,.2c0,.16,0,.28.09.3s.13.13.2.34a4,4,0,0,0,.57.74,5.41,5.41,0,0,0,1.06,1c.38.25.68.48.93.64s.36.31.34.47l.34.07-.09-.43.2,0a.72.72,0,0,1,.27.38,8.45,8.45,0,0,0,.82.57ZM4.83,29.51l.11-.11.5.84-.05.11Zm.84,1.68.2-.25.47.66.28.47.09.27A1.11,1.11,0,0,1,6.28,32L6,31.57Zm6.22,3.91-.77-.54c-.32-.36-.54-.63-.68-.81a1.52,1.52,0,0,0-.41-.37.69.69,0,0,0-.47-.11q-.13,0-.27.36l0,0a.54.54,0,0,1,.23-.39.42.42,0,0,1,.38,0l.86.41,1.47.54a4.06,4.06,0,0,1,.66.79A5.62,5.62,0,0,1,11.89,35.1Zm.45,3.74a13.5,13.5,0,0,1-1.7,1.4l-.2-.07c.36-.23.88-.59,1.56-1.11l.3-.34-.16,0a8.63,8.63,0,0,1-.77.61,7,7,0,0,1-1,.59l-.52.25.09.11.38.05c.23.13.32.29.3.43s-.32.2-.57.06l-.43-.22a1.19,1.19,0,0,0-.47-.32L9,40.13,9,40l.55.22h.16l-.09-.34.63-.4c.16-.07.25-.16.2-.32l0-.32a1.23,1.23,0,0,0,.88-.13,2.4,2.4,0,0,1,.91-.25C12.54,38.54,12.54,38.68,12.34,38.84ZM19.81,11l0-.41-.34.07a.92.92,0,0,1-1-.3c-.2.05-.29,0-.27-.24s.07-.28-.07-.3l-.52.05a.93.93,0,0,1-.66-.3c-.06-.11,0-.27.14-.45a1,1,0,0,1-.59-.38c-.09-.14,0-.28.14-.39a1.71,1.71,0,0,1,.95,0,.39.39,0,0,1-.09-.41c0-.14.31-.07.92.22l.37.21a.35.35,0,0,1,.47-.16,6.1,6.1,0,0,1,.77.47,7.41,7.41,0,0,1,.82.8c.24-.16.43-.14.54.11l0,.43a.75.75,0,0,0-1-.05l-.25-.11a3.86,3.86,0,0,1-.63-.95c-.07-.27-.11-.29-.11-.07a1.84,1.84,0,0,0,.42.91,2.76,2.76,0,0,1-1.15-.64,7.51,7.51,0,0,1-.56-.65c-.14-.21-.19-.21-.16,0a2.34,2.34,0,0,0,.59.72l-.55-.25a3.24,3.24,0,0,0-1-.29c-.13,0-.13,0,0,.07a4.42,4.42,0,0,1,1,.34,1,1,0,0,1,.45.27,2.87,2.87,0,0,1-1,.2c-.23,0-.32,0-.3,0a.45.45,0,0,0,.21.07,3.29,3.29,0,0,0,1.31-.13,11.78,11.78,0,0,0,1.13.47,2.25,2.25,0,0,0-.77.36c-.09.12,0,.14.14,0a1.8,1.8,0,0,1,.86-.28l.29.14a1.72,1.72,0,0,0,.23,1l-.21.07Zm2,1.9c-.65,0-.79,0-.83-.11s-.05-.16.2-.3l.11-.2c-.38-.18-.74-.39-.77-.86l.32-.14c.14-.16.14-.29,0-.38s-.2-.3-.23-.66c.14-.29.46-.29,1,0,.22-.43.49-.56.81-.38a.55.55,0,0,0-.61.45,1.64,1.64,0,0,0,0,.7,1.76,1.76,0,0,0-.43-.43c-.32-.16-.38-.16-.18.05a4.61,4.61,0,0,1,.54.63,1.22,1.22,0,0,1-.86.29c-.11,0-.09.07.05.09a.74.74,0,0,0,.5,0,1.76,1.76,0,0,0,.11.7,1.76,1.76,0,0,0,.43.43C22,12.8,21.89,12.84,21.84,12.91Zm.39.34c0-.14.11-.23.38-.25s.3-.09.14-.23a1.69,1.69,0,0,1-.86-.61c-.16-.2-.16-.34,0-.43l.27-.07.14-.15-.16-.64a.61.61,0,0,1,.27-.68,1.24,1.24,0,0,1,.95.3c0-.16.11-.23.34-.16s.41.5.59,1.33l.29.12c.09-.23.18-.34.23-.34s.18.2.29.59a1.23,1.23,0,0,1,.34,1.06,1.17,1.17,0,0,0-.25.75l-.13-.32a4.13,4.13,0,0,1-.12-1.13c0-.16,0-.16,0,0a3.85,3.85,0,0,0,0,.88,7.42,7.42,0,0,0-1-1.13,2.82,2.82,0,0,1-.06-.88c-.05-.3-.07-.37-.09-.21a3.28,3.28,0,0,0,0,1,10.91,10.91,0,0,1-1-1.2c-.09-.16-.14-.2-.14-.11a5.14,5.14,0,0,0,.73,1.06c.24.29.45.52.61.68a4.76,4.76,0,0,0-.82-.18,2.28,2.28,0,0,1-.63-.18c-.18,0-.18,0,0,.13a2.18,2.18,0,0,0,.66.21,4,4,0,0,1,.93.29,2.89,2.89,0,0,1,.63.72l.2.48a4.29,4.29,0,0,0-1.11-.39,1.85,1.85,0,0,1-.72-.2c-.32-.14-.34-.11-.11.05a2.1,2.1,0,0,0,.77.24,4.1,4.1,0,0,1,1.26.5l0,.12a.41.41,0,0,0-.09.38l.13.36c-.11-.13-.25-.07-.45.18a.42.42,0,0,0,0-.43A2.89,2.89,0,0,0,23.4,14l-.11.2A1.26,1.26,0,0,1,22.23,13.25Zm4.34,8.91c-.13-.18-.29-.47-.54-.86s-.41-.7-.52-.93a.87.87,0,0,1-.05-.72c.07-.25.14-.43.18-.57s.05-.15,0-.06a2.65,2.65,0,0,0-.29.72l-.37-1a4.18,4.18,0,0,1,.64-1.56c.11-.2.11-.22-.05,0a3.7,3.7,0,0,0-.7,1.44l-.54-1.22a3.37,3.37,0,0,1,.43-1.29c.16-.34.11-.31-.11.05a5.82,5.82,0,0,0-.41,1c-.16-.67-.32-1.26-.48-1.74l-.13,0,.07.2a8.49,8.49,0,0,0,.38,1.56,3.4,3.4,0,0,0-.77-.5c-.16-.09-.16-.06,0,.05a3.38,3.38,0,0,1,.79.61c.14.34.27.63.39.9a6.39,6.39,0,0,0-1.09-.54c-.18,0-.18,0,0,.07a2.78,2.78,0,0,1,1.2.77l.36.95c-.13,0-.29-.2-.52-.59a2.71,2.71,0,0,0-1.33-1,.38.38,0,0,1-.21-.39c0-.13.16-.18.41-.16A1.57,1.57,0,0,0,23,16.8l-.13-.2c-.18-.39-.07-.59.34-.59-.16-.25-.21-.43-.16-.55a1,1,0,0,1,.16-.65,2,2,0,0,0,.15-.43c.23.13.43.25.61.34a.54.54,0,0,1,.3.5l-.09.54c0,.11.13.07.29-.11a1.17,1.17,0,0,1,.39-.39,1.2,1.2,0,0,1,.38.32,1.87,1.87,0,0,1-.13,1.24l-.21.5c.41-.54.73-.79,1-.77.09.07.11.18.09.36a1.94,1.94,0,0,0,0,.59.58.58,0,0,1-.21.52,1.31,1.31,0,0,0-.34.7c.39-.29.55-.22.48.16l-.21.77c-.06.36,0,.54.19.52s.29,0,.33.07a.61.61,0,0,1,0,.38.93.93,0,0,0-.14.5.72.72,0,0,0,.09.2c.05.05.18.05.34,0s.27,0,.27.16V22a.87.87,0,0,0,.18.5.51.51,0,0,0,.32.22l.16-.2c-.25,0-.34-.13-.34-.47a4.6,4.6,0,0,0,0-.75c-.09-.23-.18-.36-.29-.39a5.48,5.48,0,0,1-.66-1.78l.38,0c.28,1,.5,1.54.66,1.61s.25.15.23.27a2,2,0,0,0,.09.65c.2-.06.34-.24.38-.58a.64.64,0,0,0-.27-.73.92.92,0,0,1-.43-.38c-.07-.21,0-.32.23-.39s-.18-.36-.95-.86c-.39-.27-.52-.52-.37-.72s.19-.11.34,0,.27.13.32.09,0-.29-.2-.34-.32-.14-.3-.23a2.93,2.93,0,0,1,0-.74.92.92,0,0,0-.05-.48c-.14-.18-.38-.18-.75.05a.89.89,0,0,0,.07-.59,1.2,1.2,0,0,0-.27-.54l-.18-.55c-.05-.18.07-.31.32-.38a1,1,0,0,1,0-.79,4,4,0,0,0,.18-.41c0-.11.13-.11.31-.05a3.33,3.33,0,0,1,.86,1c.18-.2.39-.13.55.23a1.88,1.88,0,0,1,.24,1.2c.43-.25.59-.07.48.47a3.48,3.48,0,0,1,.34.93.85.85,0,0,1-.11.61.85.85,0,0,0-.16.43c0,.09,0,.09.13,0a.82.82,0,0,1,.48-.27,1.37,1.37,0,0,1,.2.66.68.68,0,0,1-.25.43.87.87,0,0,0-.27.54.14.14,0,0,0,.16.16l.32-.09c.16,0,.18.11,0,.38a6.15,6.15,0,0,0-.36.79,2,2,0,0,0-.12.53c0,.27-.06.43-.13.47a6.71,6.71,0,0,0,0-1.09,12.72,12.72,0,0,0-.23-1.26,2.44,2.44,0,0,0,.38-.84c.09-.25.07-.27,0-.09a1.43,1.43,0,0,1-.39.66c-.13-.43-.27-1-.43-1.61A2.47,2.47,0,0,0,28,16.1c0-.39,0-.41-.06-.09a2.48,2.48,0,0,1-.39,1.06c-.16-.5-.32-1-.5-1.4a2.69,2.69,0,0,0,.07-.88c0-.34,0-.34-.09,0a1.62,1.62,0,0,1-.09.63l-.38-1-.25-.57q-.13-.27-.09,0l.22.75a2.41,2.41,0,0,0-.49-.45c-.16-.09-.19-.09-.1,0a4.11,4.11,0,0,1,.68.72c.16.39.32.77.48,1.18A3,3,0,0,0,26,15.4c-.23-.09-.23-.05,0,.13a6.54,6.54,0,0,1,1.15,1.07l.41,1.22a3.4,3.4,0,0,1-.82-.79c-.13-.14-.15-.12,0,.06a5.39,5.39,0,0,0,.91,1l.27,1.09a8,8,0,0,0-1.06-.84c-.19-.11-.21-.09-.05.07A6.32,6.32,0,0,1,28,19.67a6.15,6.15,0,0,1,.16,1.84c0,.22-.18.38-.5.49l-.07.86-.45,0A7.56,7.56,0,0,1,26.57,22.16Zm.59.84a2.35,2.35,0,0,1,.38,0c-.15.9-.36,1.9-.52,2.51l-.25-.14A15.15,15.15,0,0,0,27.16,23ZM24,28.09l-.59-.5c-.29-.27-.38-.5-.29-.72a1.82,1.82,0,0,1-.23-.39.45.45,0,0,1,.05-.43c.09-.13.32-.06.65.18a.77.77,0,0,0,0-.56l-.2-.54a5.18,5.18,0,0,0-.45-.73c-.14-.27-.16-.43-.09-.47s.18,0,.34.13c.29-.31.5-.4.59-.27a1.63,1.63,0,0,1,.22.68,2.79,2.79,0,0,1,0,1l-.06.06.06.07a2.62,2.62,0,0,1-.09.82.6.6,0,0,0,.09.29,2.14,2.14,0,0,1,0-.32c0-.07.05-.2.12-.43a2.62,2.62,0,0,0,.09-.38s0,0-.09-.07a.2.2,0,0,0,.15-.16.28.28,0,0,0,0-.2,3.08,3.08,0,0,1-.05-.57,2.37,2.37,0,0,0-.09-.7,2.19,2.19,0,0,1-.09-.38.22.22,0,0,0-.2-.16c-.14,0-.32.11-.55.38a3.5,3.5,0,0,1,.34-1c.12-.18.23-.22.34-.15a.45.45,0,0,1,.23.22c0,.09.09.07.16,0s.13-.16.18-.12l.16.21a1.93,1.93,0,0,1,.11.34c0,.11,0,.34.07.65a1,1,0,0,1-.12.64.6.6,0,0,0-.13.38c0,.61.07.93.13.93a.4.4,0,0,0,.25-.14.28.28,0,0,1,.27-.09c.09,0,.12.21.14.52s0,.37.09.09.14-.38.27-.38.16.34.07,1a7,7,0,0,0-1,1,1.09,1.09,0,0,1,0-.63,2.57,2.57,0,0,0,.19-.41c0-.16.09-.29.13-.41.09-.29.07-.31,0-.07l-.19.39a2.11,2.11,0,0,1-.18.32,8.54,8.54,0,0,0-.22-1c-.12-.34-.14-.32-.09,0,.09.57.16,1.11.2,1.63a4.22,4.22,0,0,0-.61-.54,4.32,4.32,0,0,1-.54-.5c-.14-.09-.16-.07-.07,0a5.84,5.84,0,0,0,.63.68c.27.25.46.43.52.5a2,2,0,0,1,.12.2c-.12.14-.23.3-.39.46a.27.27,0,0,1-.13-.25C24.08,28.23,24.06,28.13,24,28.09Zm-6.4,6.54a2.23,2.23,0,0,1,.54-.45,15,15,0,0,1,2-.89.13.13,0,0,1,.15.05l.14.18-.2.14a.76.76,0,0,1-.46.13,1.44,1.44,0,0,0-.63.16.59.59,0,0,0-.43.47.44.44,0,0,1-.2.28c-.27.13-.5.27-.73.38l-.54,0Zm1.52.59H19v0a.6.6,0,0,0-.2.07l-.59-.09.64-.32.15.3s0,0,.1-.05l-.1-.29a.46.46,0,0,1,.21-.52.78.78,0,0,1,.63-.18c.09,0,.09.18,0,.49a1.61,1.61,0,0,1-.76.55Zm-2.61,2.3-.09-.29-.47.61-.39.25a.66.66,0,0,1-.54.18L14.38,38l.31-.16.09.07c-.06.18,0,.15.21-.07l.54-.54A2.68,2.68,0,0,0,15.3,36a4.5,4.5,0,0,0-.43-1c0-.11-.29-.14-.81-.07a1.45,1.45,0,0,1,1.09,0l.43.18.22-.09,0,0-.41-.19.21,0,.18.18,0,0h0l.11.11a5.13,5.13,0,0,1,1,1.34,1.2,1.2,0,0,1,0,.7C16.75,37.5,16.59,37.59,16.5,37.52Zm4.26,2.56.2.05-.07.09-.47.13a1.52,1.52,0,0,1-.73.36l-.29,0-.07-.2a.5.5,0,0,1,.27-.23A3.64,3.64,0,0,1,20,40.1l.43.07ZM20.1,40c-.32,0-.52.2-.61.2h-.25a5.22,5.22,0,0,0-.81-.77l-.84-.7c.16-.09.5,0,1,.12Zm2.56-3.73a2.07,2.07,0,0,0,.79,0,10.86,10.86,0,0,0,2-1.47,13.72,13.72,0,0,1,2.44-1.51c.21-.12.21-.21,0-.25a3.26,3.26,0,0,0-.84-.09c-.11.09-.11.18,0,.22a.57.57,0,0,1,.37,0,11.67,11.67,0,0,0-2,1.24c0-.27.09-.74.13-1.4a1.26,1.26,0,0,0-.2-.57c-.09-.11,0-.22.34-.31l.25-.07v.38l-.34-.09,0,.18a.58.58,0,0,0,.41.28l1,0,.43,0c.5,0,.75.13.73.36a2.06,2.06,0,0,0,0,.66,3.75,3.75,0,0,0,.61,1.47,2.22,2.22,0,0,1-.47.74l-.93.61c-.79.57-1.88,1.32-3.26,2.24a22.5,22.5,0,0,1-3.53-.22,26.53,26.53,0,0,1-3.41-.75l-.3-.07.14-.13a2.69,2.69,0,0,0,.34-.52,2.5,2.5,0,0,0-.09-.61,2.11,2.11,0,0,0-.68-1.11v-.12l.27,0a9.78,9.78,0,0,1,2,.29c.59.14,1.26.28,2.06.39S22.32,36.23,22.66,36.26Zm-1.34-.48c-.31,0-.81-.13-1.49-.27l.63-.2c.34.06.52,0,.57-.21A1.32,1.32,0,0,0,21.32,35.78Zm3.74-5.27a.78.78,0,0,0-.23.81,3.36,3.36,0,0,0-1,.8,5.41,5.41,0,0,0-.7.88,1,1,0,0,1-.5.43.71.71,0,0,1-.7-.14l-.07.46-1.2.72-.59.25a2.18,2.18,0,0,0,.09-.61l.2-.18a2.94,2.94,0,0,0,1.43-1.18,3.61,3.61,0,0,1,.54-.75,1.89,1.89,0,0,0,.41-.72l0-.43,0-.45c.18.2.36.27.52.13a10.13,10.13,0,0,1,.81-1.29A12.84,12.84,0,0,1,25,28.13c.31-.33.59-.63.81-.88l0,.45a19.51,19.51,0,0,0-1.34,1.81,13.62,13.62,0,0,0-1.22,2.18,1.74,1.74,0,0,1-.56.72,1.77,1.77,0,0,0-.43.29c-.09.16-.05.21.13.14a1.7,1.7,0,0,1,.39-.27,8.9,8.9,0,0,0,1.67-1.86l0-.63.2-.34c0,.34,0,.54.09.57s.18-.07.3-.3.43-.88.93-1.92a1.17,1.17,0,0,0,0,.84c-.29.2-.36.54-.22,1Zm4-4a1.77,1.77,0,0,1-.29.77c-.5.57-.71.88-.61,1a.69.69,0,0,1-.07.76,11.19,11.19,0,0,1-1,1.07c.11.25,0,.43-.28.61a6.85,6.85,0,0,1-1.15.5,3.62,3.62,0,0,0,1.43-1.88,2.06,2.06,0,0,1,.65-.45c.16-.12.21-.16.09-.14a3.3,3.3,0,0,0-.68.39,5.24,5.24,0,0,0,.48-1.48,4.56,4.56,0,0,0,.88-1.06c.16-.25.18-.29,0-.16a4.66,4.66,0,0,1-.81.95,17.71,17.71,0,0,0,.45-1.72c.07-.36.05-.43,0-.2l-.18.63a1.62,1.62,0,0,0-.3-.56l.23.74a8.88,8.88,0,0,1-.34,1.27,5.23,5.23,0,0,0-.66-1.29c-.25-.31-.29-.31-.13,0a5.2,5.2,0,0,1,.68,1.56,7.84,7.84,0,0,1-.5,1.43,1.52,1.52,0,0,0-.45-.46q-.18-.09,0,.12a3.26,3.26,0,0,1,.38.47,3.12,3.12,0,0,1-.57.91,4.5,4.5,0,0,1-.67.65,2,2,0,0,0,.29-1.47c0-.09.07-.18.23-.22s.2-.14.15-.21a1.58,1.58,0,0,1-.2-.63.62.62,0,0,1,.43,0c.16-.11.14-.25,0-.45a1.44,1.44,0,0,1-.34-.86c0-.21.13-.3.43-.23.13,0,.13-.16,0-.47L26.28,26c-.21-.48-.14-.66.27-.52l.47.29c.32.11.46-.09.46-.63q0-.16.27-.09c.18.07.36-.07.5-.43.15-.16.27,0,.36.47s.11.93.47.89A2.28,2.28,0,0,1,29.06,26.55ZM29.6,25a.28.28,0,0,1-.09.3,1.31,1.31,0,0,1-.4.2l-.21-.36a1.17,1.17,0,0,0-.29-.82,1.74,1.74,0,0,1,.38-.22c.14-.07.12,0-.07,0s-.34.23-.45.23h0A3.08,3.08,0,0,1,29,23.2c.06-.16,0-.18-.12,0a8,8,0,0,0-.54.88.72.72,0,0,1-.16-.4c0-.23-.09-.25-.11,0a1.72,1.72,0,0,0,.16.59c-.27.41-.48.57-.64.48.09-.57.23-1.18.39-1.81.27-.28.52-.37.72-.28.3-.22.52-.27.73-.13a.75.75,0,0,1,.13.52,1.77,1.77,0,0,1-.18.59c.23,0,.34.09.36.27a1.36,1.36,0,0,1-.56.88C29.44,24.81,29.58,24.9,29.6,25Z" transform="translate(-0.08 0.28)"/><path class="91756512-0680-4712-bfd9-309a0727a839" d="M4.5,36.42s0,0,.1.07.31.06.43-.14A.3.3,0,0,0,5,35.87c-.09-.07-.09-.07-.16.05l-.3.5Zm-2.37-1.6c.21.16.35.28.57,0a.32.32,0,0,0,0-.46.35.35,0,0,0-.14-.06s0,0-.09,0l-.32.5Zm3.42,1.69c0-.16.07-.3-.07-.41l0-.05.25.16a.76.76,0,0,0,.3.14l0,0s-.16-.07-.2,0-.14.5-.19.61l-.11.71.5-.44a6.11,6.11,0,0,0,.43-.47c.07-.14,0-.16,0-.21v-.07l.2.16a1,1,0,0,1,.21.12v0c-.16-.11-.32.09-.48.23l-1,1-.09,0,.29-1.48Zm-1.32.25a1.22,1.22,0,0,0-.14.34c0,.09,0,.12.14.21l0,0a2,2,0,0,0-.3-.18c-.09,0-.16-.11-.25-.14v-.09c.09.05.16.12.2,0a.76.76,0,0,0,.23-.3L4.44,36c0-.09.16-.25.18-.3s0-.16-.14-.2l0-.05c.09.07.2.12.29.19s.16.11.25.16a.42.42,0,0,1,.21.63.45.45,0,0,1-.73.12.35.35,0,0,1-.14-.07l-.18.25Zm-.91-1.44c0-.09.16-.25.18-.29s0-.16-.14-.21l.07,0,.89.57-.23.34,0,0c.16-.25.07-.32-.14-.48l-.14-.06c0-.05,0-.05-.11,0l-.34.55c.25.18.36.07.48-.07h0c-.07.14-.16.21-.18.3a1.83,1.83,0,0,1-.18.29l0,0c.16-.25.07-.32-.13-.44l-.23.39c0,.09-.12.16-.12.25a.25.25,0,0,0,.19.23c.2.11.34.14.52-.07h0l-.23.37-1-.69,0,0a.16.16,0,0,0,.2,0,3.24,3.24,0,0,0,.23-.3l.39-.57Zm-1,.55a.27.27,0,0,0,.09.25l-.05.05c0-.05-.09-.07-.13-.12s-.14,0-.16-.06l0-.21v-.66c0-.11,0-.11-.09-.21l-.18.25a2.34,2.34,0,0,0-.18.35c0,.09,0,.11.13.16l0,0c-.09,0-.16-.11-.25-.16a.86.86,0,0,0-.3-.18l.05,0c.09,0,.13.07.2,0a.61.61,0,0,0,.23-.3l.41-.64a.9.9,0,0,0,.18-.29c0-.09,0-.12-.09-.16v-.09c.14.06.2.16.34.22a1.41,1.41,0,0,1,.21.16c.2.16.38.35.2.64a.42.42,0,0,1-.59.16v.82ZM14,36.42l-.34-.64-.12.68.46,0ZM8.81,37.6c0,.07,0,.21.09.28s.12.06.21.06.23-.2.18-.41-.09-.22-.16-.31-.2,0-.27,0H8.79l0,.38Zm0-.48h0c.07,0,.16,0,.21-.09a.56.56,0,0,0,.06-.32c0-.2-.13-.27-.29-.27a.19.19,0,0,1-.12.05v.11l.1.52Zm-1.26.67a1.15,1.15,0,0,0,.09.31c.05.07.12.07.21,0s.27-.16.23-.41-.09-.23-.21-.28a.58.58,0,0,0-.32,0h0l0,.35Zm-.09-.44.07,0c.07,0,.16,0,.2-.09a.4.4,0,0,0,.07-.28c0-.2-.13-.32-.32-.27a.19.19,0,0,0-.11,0v.07l.09.57Zm6.11-.68c0,.11-.07.32,0,.39s.11.06.2.06v.1h-.25a.47.47,0,0,1-.23,0v0a.34.34,0,0,0,.21-.21,2.62,2.62,0,0,1,.07-.52l.18-1.07h.07l.63,1.2c0,.07.12.21.16.28a.33.33,0,0,0,.21,0V37a.5.5,0,0,0-.27.05c-.12,0-.23,0-.32,0v0c0-.05.16-.05.11-.16s0-.12,0-.16l-.15-.28-.53.09,0,.12Zm-.75-1h0l.09.53h0c-.09-.28-.3-.48-.53-.44-.41.05-.43.53-.38.94s.25.8.66.73.34-.32.34-.64l0,0,.1.6-.1-.12a.66.66,0,0,1-.43.25c-.43.09-.8-.2-.89-.73s.18-1,.62-1a.7.7,0,0,1,.48.07v-.14Zm-1.64.76c0-.1-.05-.23-.05-.32a.3.3,0,0,0-.21-.07l0,0a1,1,0,0,1,.32,0c.11,0,.23-.05.32-.05v.05a.21.21,0,0,0-.16.11.88.88,0,0,0,0,.32l.09.75a.67.67,0,0,0,.1.32c0,.07.11.07.2.07v.09h-.32a.62.62,0,0,1-.32.05v-.05c.09,0,.16,0,.16-.11s0-.23,0-.32l-.13-.75Zm-1.39.27c0-.09-.05-.27-.05-.37a.17.17,0,0,0-.21,0l0-.07a.78.78,0,0,0,.32,0,.64.64,0,0,0,.32-.05l0,.07c-.07,0-.16,0-.2.09s0,.27,0,.37l.09.75c0,.32.14.39.41.34.07-.05.21-.05.28-.14a.49.49,0,0,0,.07-.32l.06,0,.1.48h-.12c-.36,0-.75.13-1.11.18v0c.06,0,.15,0,.15-.11s0-.27,0-.36l-.15-.71Zm-1.28.23a.71.71,0,0,0-.09-.32c-.05-.07-.12-.07-.21-.07v0a.91.91,0,0,1,.32,0c.07,0,.16-.05.23-.05.23,0,.52,0,.57.3s-.11.36-.27.45a.48.48,0,0,1,.32.07.67.67,0,0,1,.25.32.52.52,0,0,1-.16.41.54.54,0,0,1-.39.14.43.43,0,0,1-.23,0,1,1,0,0,0-.36.1v-.07s.16,0,.16-.12,0-.22,0-.32l-.09-.79Zm-1.35.22c0-.06,0-.27,0-.36s-.11-.07-.21,0v-.09a.56.56,0,0,0,.28,0,.45.45,0,0,0,.27-.05c.21,0,.53,0,.57.35a.36.36,0,0,1-.23.43.66.66,0,0,1,.32.05.37.37,0,0,1,.21.34c0,.16,0,.27-.16.41s-.23.11-.37.13a.45.45,0,0,0-.27.05c-.16,0-.23,0-.41,0v0c.07-.05.16-.05.2-.11s0-.28,0-.37l-.12-.71Zm13.56.21-.11-.73-.32.66.43.07Zm2.72-.18c0-.09,0-.28,0-.32s-.11-.09-.2-.09v-.09h.31c.1,0,.21,0,.32,0v.09c-.09,0-.16,0-.2.09v.37l.09.73a1.11,1.11,0,0,0,0,.36c.05.09.12.09.21.09v.05H23.6a.85.85,0,0,1-.32,0v0s.16,0,.16-.12,0-.25,0-.32l0-.79ZM21.8,37c0-.09.05-.27.05-.36a.2.2,0,0,0-.21-.12l.05,0c.06,0,.2,0,.27,0a.9.9,0,0,0,.36,0l0,.09c-.05,0-.16-.05-.21,0s0,.28-.09.37l-.11.77c-.05.32,0,.41.25.46s.25,0,.32,0,.16-.16.2-.32h.09l-.11.48s-.09,0-.09,0c-.41-.09-.78-.11-1.16-.2v0a.31.31,0,0,0,.25-.09.92.92,0,0,1,.09-.32L21.8,37Zm-1.69.41c0,.09-.11.27-.16.37s.12.11.16.15V38c-.09,0-.16-.05-.25-.05s-.16,0-.25,0l.05,0c.11,0,.16,0,.25-.16l.25-.47.48-1,.09,0L21,37.67c.05.09.05.25.09.32s.09.09.16.11v0c-.09,0-.2,0-.32,0a.8.8,0,0,0-.32,0l.05-.09s.16,0,.16,0v-.25l-.05-.27-.57-.09-.07.11ZM20,36.6l0-.05c0-.25-.05-.31-.25-.36s-.25,0-.25.05l-.21,1.25c0,.2,0,.25.21.32v0a1,1,0,0,1-.37-.09,1.11,1.11,0,0,1-.36,0v0c.25,0,.29,0,.32-.25l.16-1.25c0-.05-.09-.09-.16-.09-.25,0-.32,0-.37.27l-.09-.05.09-.41,1.37.25L20,36.6Zm-2.05-.27c0-.09.05-.25,0-.32s-.09-.12-.16-.12V35.8a1.05,1.05,0,0,0,.32.09c.12,0,.25,0,.37,0l-.05.05s-.16,0-.2.09-.05.25-.09.32l-.1.77a1,1,0,0,0,0,.32c0,.11.09.11.16.11v.09a3,3,0,0,1-.32-.09.88.88,0,0,1-.32,0v-.07a.21.21,0,0,0,.21-.09.85.85,0,0,0,.09-.32l.13-.75Zm9.76-1.23L27,34.69l.25.68.37-.27Zm-2.74,2-.52-.48.11.68.41-.2Zm2.42-1.51a2.22,2.22,0,0,0,.11.41c.09.09.16,0,.21,0l0,.09a.42.42,0,0,1-.2.11.81.81,0,0,0-.16.16l-.05-.09c.09-.09.09-.11.09-.25a4.75,4.75,0,0,1-.16-.52l-.31-1.05,0,0,1.19.82a.63.63,0,0,0,.25.16c.06.05.16,0,.25,0v.09a1.17,1.17,0,0,0-.25.16c-.09.09-.16.11-.25.2l-.07,0c0-.05.11-.12.07-.21s-.12-.07-.16-.11l-.25-.16-.46.32.07,0Zm-2,.3c-.11-.05-.21-.05-.27,0L25,35.8c.09,0,.11,0,.16-.11a.33.33,0,0,0,.16-.09l1.57.52-.45-.61c-.09-.07-.16-.25-.25-.32s-.16,0-.28,0l0,0a1.36,1.36,0,0,1,.25-.11.25.25,0,0,1,.16-.16l0,0c0,.1-.11.1-.09.21a4.18,4.18,0,0,1,.27.41l.64.89,0,0a.51.51,0,0,1-.25-.09l-1.46-.48.52.73a1.1,1.1,0,0,0,.25.28c.09,0,.16,0,.25,0v0c0,.09-.11.11-.2.16a1,1,0,0,0-.21.16l0,0c.09-.09.11-.11.09-.25a1.1,1.1,0,0,0-.21-.3l-.52-.77Zm-.73,1.62a3.92,3.92,0,0,0,.07.41c0,.09.16,0,.2,0l0,0a.88.88,0,0,1-.21.12.62.62,0,0,0-.2.11l0,0c.1-.06.12-.11.1-.27a1.91,1.91,0,0,0-.1-.52l-.2-1.1h.09l1.05.94a1.09,1.09,0,0,0,.25.2c.07,0,.16,0,.2,0l.05,0a.81.81,0,0,0-.27.16.85.85,0,0,0-.28.16l0-.09c.09,0,.16-.1.11-.16a.61.61,0,0,0-.16-.16l-.2-.16-.48.25,0,.07Z" transform="translate(-0.08 0.28)"/><path class="91756512-0680-4712-bfd9-309a0727a839" d="M4,25.94c-.11-.32-.23-.71-.27-.85l0-.07.94-.52c-.09-.48-.16-.91-.21-1.3L3.36,23V21.45l1.05-.21c0-.41.12-.84.21-1.3l-.53-.29.35,0,.38.23v.09a11.62,11.62,0,0,0-.22,1.41v.07l-1,.21v1.18l1,.21v.06a13.41,13.41,0,0,0,.22,1.44l0,.07-.92.52c0,.14.12.37.19.59Zm1.85,3c.09.13.18.25.22.32l1-.44,0,0a12.25,12.25,0,0,0,1,1l.05,0-.44,1c.21.16.73.54,1,.68l.78-.71.06.05a8.81,8.81,0,0,0,1.3.66l.07,0-.11,1.07c.27.09.86.3,1.14.37l.52-.91.07,0a14.17,14.17,0,0,0,1.41.23H14l.21,1h1.18l.21-1h.06A12.79,12.79,0,0,0,17,32.18l.07,0,.52.91,1.14-.37-.11-1,.06,0A9,9,0,0,0,20,31l.07,0,.77.7c.23-.16.73-.52,1-.7l-.43-1,.07,0a10.9,10.9,0,0,0,1-1l.05-.07,1,.46c.16-.21.55-.73.68-1l-.7-.78,0-.06a14.11,14.11,0,0,0,.66-1.28l0-.07,1,.11c.1-.27.3-.86.37-1.11l-.91-.53,0-.06A14.34,14.34,0,0,0,25,23.13v-.07l1.05-.2V21.67L25,21.47V21.4A9.66,9.66,0,0,0,24.74,20l0-.07.91-.52c-.07-.28-.27-.87-.37-1.14l-1,.13,0-.07A7.87,7.87,0,0,0,23.53,17l0-.07.7-.78c-.16-.23-.52-.75-.7-1l-1,.44-.05-.07a9.92,9.92,0,0,0-1-1l-.07,0,.43-1c-.2-.16-.73-.55-.95-.71l-.78.71-.07,0a9.37,9.37,0,0,0-1.3-.67l-.06,0,.11-1.05c-.25-.09-.87-.29-1.14-.36l-.52.91-.07,0a10.48,10.48,0,0,0-1.42-.23h-.06l-.21-1H14.17l-.21,1h-.07a8.47,8.47,0,0,0-1.41.23l-.07,0-.52-.91c-.25.07-.87.27-1.12.36l.11,1.05-.06,0a10.39,10.39,0,0,0-1.28.67l-.07,0-.77-.71a3.51,3.51,0,0,0-.46.35l0-.28.39-.27.07-.05.8.71a8.45,8.45,0,0,1,1.16-.59l-.16-1.12.07,0c.2-.09,1.07-.37,1.3-.43l.07,0,.52.91a10.12,10.12,0,0,1,1.3-.2l.2-1h.73a4.38,4.38,0,0,1,.69,0h.07l.2,1c.43.05.87.12,1.3.21l.52-.91.07,0c.23.07,1.1.34,1.32.43l.07,0,0,1a10.82,10.82,0,0,1,1.18.59l.78-.7.06,0a12.86,12.86,0,0,1,1.12.82l.07,0-.43,1a10.31,10.31,0,0,1,.93.94l1-.46,0,.07c.16.18.69.91.82,1.12l0,.07-.71.77a8.29,8.29,0,0,1,.6,1.19l1-.14,0,.07a13.14,13.14,0,0,1,.41,1.3l0,.07-.91.52a10.12,10.12,0,0,1,.2,1.3l1,.2v.07c0,.23,0,1.14,0,1.37v.07l-1,.2c0,.41-.11.85-.2,1.3l.91.53,0,.06c-.05.23-.35,1.1-.41,1.3l0,.07-1.07-.11a9,9,0,0,1-.59,1.16l.71.77,0,.16c-.14.19-.66.94-.8,1.1l0,.07-1-.44a9.26,9.26,0,0,1-.94.94l.46.95-.07.05c-.18.14-.91.68-1.09.8l-.07,0-.8-.7a7.43,7.43,0,0,1-1.16.59L19,32.82l-.07,0-1.29.43-.07,0-.53-.94a11.41,11.41,0,0,1-1.3.21l-.2,1H14l-.21-1q-.62-.07-1.29-.21L12,33.3l-.07,0c-.2-.07-1.07-.34-1.3-.43l-.06,0,.11-1.07a13.25,13.25,0,0,1-1.19-.6l-.77.71-.07-.05c-.18-.13-.93-.66-1.09-.79L7.49,31l.43-1A11.65,11.65,0,0,1,7,29.06l-1,.43,0-.07-.26-.34Z" transform="translate(-0.08 0.28)"/><path class="91756512-0680-4712-bfd9-309a0727a839" d="M14.76,30.63a8.1,8.1,0,0,1-3.51-.77l-.16-.07,3.67-4.63,3.6,4.65-.16.07A8.1,8.1,0,0,1,14.76,30.63ZM11.5,29.7a8.1,8.1,0,0,0,6.45,0l-3.19-4.15Zm9.34-1.65-3.26-4.92,5.54-2,0,.16A8.34,8.34,0,0,1,21,27.92ZM18,23.27l2.9,4.37a8.13,8.13,0,0,0,2-6.13ZM8.65,28l-.11-.12a8.49,8.49,0,0,1-2.12-6.63l0-.16L12,23.13Zm-2-6.57a8.12,8.12,0,0,0,2,6.16l3-4.33Zm9.84-1.57L16.35,14l.16,0a8.34,8.34,0,0,1,5.61,4.13l.07.14Zm.09-5.56.16,5.24,5.06-1.41A8.17,8.17,0,0,0,16.6,14.29Zm-3.55,5.56L7.4,18.19l.09-.14A8.35,8.35,0,0,1,13.14,14l.16,0ZM7.81,18l5,1.48.23-5.24A8,8,0,0,0,7.81,18Z" transform="translate(-0.08 0.28)"/><path class="91756512-0680-4712-bfd9-309a0727a839" d="M14.78,14.59,13,19.65l0,.06h-.09l-5.38.14,4.26,3.26.07.05,0,.09L10.29,28.4l4.42-3.06.07,0,.07,0,4.42,3.06-1.55-5.15,0-.09.07-.05L22,19.85l-5.36-.11h-.09l0-.07-1.78-5.08Zm-2,4.9,1.87-5.31.11-.32.12.32,1.86,5.31,5.63.13h.34l-.27.21L18,23.25l1.62,5.4.09.34-.27-.18-4.63-3.22-4.62,3.22-.28.2.09-.34,1.62-5.4L7.1,19.85l-.27-.2h.34l5.63-.16Z" transform="translate(-0.08 0.28)"/><polygon class="91756512-0680-4712-bfd9-309a0727a839" points="4.79 31.04 4.79 31.04 4.79 31.07 4.79 31.04"/><polygon class="91756512-0680-4712-bfd9-309a0727a839" points="4.28 30.06 4.79 31.04 4.79 31.04 4.28 30.06"/><line class="bca9eba8-6c76-40e8-83e5-927e2e91627a" x1="149.09" y1="7.75" x2="149.09" y2="41.89"/></svg>
