<svg id="addfda99-c7dc-4693-8216-7b32b5f37e84" data-name="Livello 1" xmlns="http://www.w3.org/2000/svg" viewBox="0 0 379.62 91"><defs><style>.\39 7e6dcc1-15d1-477a-a3ca-d8648c1b81ce,.c128f0ab-6b9a-452a-8a68-608d510bf6b9{fill:#08479a;}.\39 fdb231c-b09c-4af3-abfa-0e0d10570494{fill:#24abad;}.\32 f28a731-f79d-4cba-bb5b-91cac8a956e8{fill:#687aba;}.\35 69c46a3-e897-43c1-b742-d19f463875bf{fill:#abd035;}.dd63aaca-33ec-4942-b2ee-6fb874e3b100{fill:#fbb810;}.c128f0ab-6b9a-452a-8a68-608d510bf6b9{font-size:18px;font-family:HelveticaNeue-Bold, Helvetica Neue;font-weight:700;letter-spacing:0.03em;}.\30 db37d13-178c-41a2-a68f-797d4f926578{letter-spacing:-0.04em;}.\39 e9ecf8d-05f0-4436-b5ec-426bea541433{letter-spacing:0.05em;}.\33 760369c-a753-418f-a5ac-dce834dbf71d{letter-spacing:0.03em;}</style></defs><title>LOGOPON</title><path class="97e6dcc1-15d1-477a-a3ca-d8648c1b81ce" d="M80,23.45S90.38,23.72,90.38,39c0,11.29.21,22.6.19,33.9C90.56,82.44,84,89,74.35,89c-10.29.06-20.58,0-31.35,0v25.43H40c-5.78-3.13-10.7-7.2-14-13v-78H80M42.89,41.33V71.56H74.11V41.33Z" transform="translate(-26 -23.45)"/><path class="97e6dcc1-15d1-477a-a3ca-d8648c1b81ce" d="M227,23.45c3.28,2.7,7.1,5,9.65,8.25,1.84,2.38,2.73,6.05,2.8,9.17.3,13,.14,25.95.12,38.93,0,5.81-2.74,9.13-7.44,9.21s-8.65-4.1-8.68-9.53c-.07-10.81,0-21.62,0-32.44,0-1.79,0-3.58,0-5.68H192.57c0,10.65,0,21.07,0,31.5a45.66,45.66,0,0,1-.42,8.92c-1,4.9-5,7.81-9.2,7.21s-7.46-4.6-7.49-9.2c-.07-11.14,0-22.29,0-33.44,0-7.63-.27-15.27-.41-22.9Z" transform="translate(-26 -23.45)"/><path class="9fdb231c-b09c-4af3-abfa-0e0d10570494" d="M133,54.45v-31H115a12,12,0,0,0-12,12v19Z" transform="translate(-26 -23.45)"/><path class="2f28a731-f79d-4cba-bb5b-91cac8a956e8" d="M137.5,54.45H168v-19a12,12,0,0,0-12-12H137.5Z" transform="translate(-26 -23.45)"/><path class="569c46a3-e897-43c1-b742-d19f463875bf" d="M133,59H103v17.5a12,12,0,0,0,12,12h18Z" transform="translate(-26 -23.45)"/><path class="dd63aaca-33ec-4942-b2ee-6fb874e3b100" d="M137.5,59v29.5H156a12,12,0,0,0,12-12V59Z" transform="translate(-26 -23.45)"/><text class="c128f0ab-6b9a-452a-8a68-608d510bf6b9" transform="translate(232 20.38)">GOVERNANCE<tspan x="0" y="19">E CA</tspan><tspan class="0db37d13-178c-41a2-a68f-797d4f926578" x="44.57" y="19">P</tspan><tspan x="55.8" y="19">ACITÀ</tspan><tspan class="9e9ecf8d-05f0-4436-b5ec-426bea541433"><tspan x="0" y="38">ISTITUZIONALE</tspan></tspan><tspan class="3760369c-a753-418f-a5ac-dce834dbf71d"><tspan x="0" y="57">2014-2020</tspan></tspan></text></svg>