<?xml version="1.0" encoding="utf-8"?>
<!-- Generator: Adobe Illustrator 21.0.2, SVG Export Plug-In . SVG Version: 6.00 Build 0)  -->
<svg version="1.1" id="d8727a02-d6e2-4ca2-868d-38e10f00057f"
	 xmlns="http://www.w3.org/2000/svg" xmlns:xlink="http://www.w3.org/1999/xlink" x="0px" y="0px" width="451.3px" height="106.9px"
	 viewBox="0 0 451.3 106.9" style="enable-background:new 0 0 451.3 106.9;" xml:space="preserve">
<style type="text/css">
	.st0{fill:#FFFFFF;}
	.st1{fill:#004CA2;stroke:#FFFFFF;stroke-width:3.12;stroke-miterlimit:2.61;}
	.st2{fill:#FFDE00;}
	.st3{font-family:'ArialMT';}
	.st4{font-size:12px;}
</style>
<title>Unione_Europea</title>
<path class="st0" d="M171.3,11.8h3.6v9.8c0,1,0,2,0.1,3c0.1,0.7,0.5,1.3,1.1,1.8c0.7,0.5,1.5,0.7,2.4,0.7c0.8,0.1,1.6-0.2,2.3-0.6
	c0.5-0.4,0.8-0.9,0.9-1.6c0.1-1,0.2-2,0.2-3.1v-10h3.6v9.5c0,1.5-0.1,3.1-0.3,4.6c-0.2,0.8-0.5,1.6-1.1,2.3
	c-0.6,0.6-1.3,1.1-2.1,1.5c-1.1,0.4-2.3,0.6-3.4,0.5c-1.3,0.1-2.6-0.1-3.9-0.6c-0.8-0.3-1.5-0.9-2.1-1.5c-0.5-0.6-0.8-1.3-1-2
	c-0.3-1.5-0.4-3-0.4-4.6L171.3,11.8L171.3,11.8z"/>
<polygon class="st0" points="189.3,29.9 189.3,11.8 192.8,11.8 200.1,23.9 200.1,11.8 203.4,11.8 203.4,29.9 199.8,29.9 192.6,18 
	192.6,29.9 189.3,29.9 189.3,29.9 "/>
<polygon class="st0" points="207.1,29.9 207.1,11.8 210.8,11.8 210.8,29.9 207.1,29.9 207.1,29.9 "/>
<path class="st0" d="M213.4,21c0-1.6,0.2-3.2,0.8-4.6c0.4-0.9,1-1.8,1.7-2.5c0.7-0.7,1.5-1.2,2.4-1.6c1.2-0.5,2.5-0.7,3.9-0.7
	c2.4-0.1,4.7,0.8,6.3,2.5c1.7,1.9,2.5,4.4,2.4,6.9c0.1,2.5-0.7,5-2.4,6.8c-3.6,3.3-9,3.3-12.6,0C214.1,25.8,213.3,23.4,213.4,21
	L213.4,21z M217.2,20.8c-0.1,1.7,0.4,3.3,1.4,4.6c0.9,1,2.2,1.6,3.6,1.6c1.4,0,2.7-0.5,3.5-1.6c1-1.3,1.5-3,1.4-4.7
	c0.1-1.7-0.4-3.3-1.4-4.6c-1.9-2-5.1-2-7.1-0.1c0,0-0.1,0.1-0.1,0.1C217.5,17.5,217,19.2,217.2,20.8L217.2,20.8z"/>
<polygon class="st0" points="233.6,29.9 233.6,11.8 237.1,11.8 244.4,23.9 244.4,11.8 247.7,11.8 247.7,29.9 244.1,29.9 236.9,18 
	236.9,29.9 233.6,29.9 233.6,29.9 "/>
<polygon class="st0" points="251.6,29.9 251.6,11.8 264.8,11.8 264.8,14.9 255.2,14.9 255.2,18.9 264.1,18.9 264.1,21.9 255.2,21.9 
	255.2,26.8 265.1,26.8 265.1,29.9 251.6,29.9 251.6,29.9 "/>
<polygon class="st0" points="275,29.9 275,11.8 288.3,11.8 288.3,14.9 278.7,14.9 278.7,18.9 287.6,18.9 287.6,21.9 278.7,21.9 
	278.7,26.8 288.6,26.8 288.6,29.9 275,29.9 275,29.9 "/>
<path class="st0" d="M291.6,11.8h3.6v9.8c0,1,0,2,0.1,3c0.1,0.7,0.5,1.3,1.1,1.8c0.7,0.5,1.5,0.7,2.4,0.7c0.8,0.1,1.6-0.2,2.3-0.6
	c0.5-0.4,0.8-0.9,0.9-1.6c0.1-1,0.2-2,0.2-3.1v-10h3.6v9.5c0,1.5-0.1,3.1-0.3,4.6c-0.2,0.8-0.5,1.6-1.1,2.3
	c-0.6,0.6-1.3,1.1-2.1,1.5c-1.1,0.4-2.3,0.6-3.4,0.5c-1.3,0.1-2.6-0.1-3.9-0.6c-0.8-0.3-1.5-0.9-2.1-1.5c-0.5-0.6-0.8-1.3-1-2
	c-0.3-1.5-0.4-3-0.4-4.6L291.6,11.8L291.6,11.8z"/>
<path class="st0" d="M309.6,29.9v-18h7.6c1.4-0.1,2.8,0.1,4.2,0.5c0.9,0.3,1.6,0.9,2.1,1.7c0.5,0.9,0.8,1.8,0.8,2.8
	c0,1.2-0.4,2.4-1.2,3.4c-0.9,1-2.2,1.6-3.5,1.7c0.7,0.4,1.4,0.9,1.9,1.5c0.8,0.9,1.5,1.9,2,2.9l2.2,3.5h-4.3l-2.6-3.9
	c-0.6-0.9-1.2-1.8-1.9-2.6c-0.3-0.3-0.7-0.6-1.1-0.8c-0.6-0.2-1.2-0.2-1.8-0.2h-0.8v7.5L309.6,29.9z M313.3,19.5h2.7
	c1.1,0.1,2.2,0,3.2-0.2c0.4-0.1,0.8-0.4,1-0.8c0.3-0.4,0.4-0.9,0.4-1.4c0-0.5-0.1-1.1-0.5-1.5c-0.4-0.4-0.8-0.6-1.4-0.7
	c-0.3,0-1.2-0.1-2.6-0.1h-2.8C313.3,14.9,313.3,19.5,313.3,19.5z"/>
<path class="st0" d="M326.9,21c0-1.6,0.2-3.2,0.8-4.6c0.4-0.9,1-1.8,1.7-2.5c0.7-0.7,1.4-1.2,2.3-1.6c1.2-0.5,2.5-0.7,3.9-0.7
	c2.4-0.1,4.7,0.8,6.3,2.5c1.7,1.9,2.6,4.4,2.4,6.9c0.1,2.5-0.7,5-2.4,6.8c-3.6,3.3-9,3.3-12.6,0C327.6,25.8,326.8,23.4,326.9,21
	L326.9,21z M330.6,20.8c-0.1,1.7,0.4,3.3,1.4,4.6c1.8,2,4.8,2.1,6.8,0.3c0.1-0.1,0.2-0.2,0.3-0.3c1-1.3,1.5-3,1.4-4.7
	c0.1-1.7-0.4-3.3-1.4-4.6c-0.9-1-2.2-1.6-3.6-1.5c-1.4-0.1-2.7,0.5-3.6,1.5C331,17.5,330.5,19.2,330.6,20.8L330.6,20.8z"/>
<path class="st0" d="M347,29.9v-18h5.8c1.4-0.1,2.9,0,4.3,0.3c1,0.3,1.9,0.9,2.6,1.8c0.7,1,1.1,2.3,1,3.5c0,1-0.2,1.9-0.6,2.8
	c-0.4,0.7-0.9,1.3-1.5,1.8c-0.6,0.4-1.2,0.7-1.9,0.9c-1.2,0.2-2.5,0.3-3.7,0.3h-2.3v6.8L347,29.9z M350.6,14.9V20h2
	c1,0.1,1.9,0,2.8-0.3c0.5-0.2,0.8-0.5,1.1-0.9c0.3-0.4,0.4-0.9,0.4-1.4c0-0.6-0.2-1.2-0.6-1.6c-0.4-0.4-0.9-0.7-1.4-0.8
	c-0.9-0.1-1.7-0.1-2.6-0.1L350.6,14.9z"/>
<polygon class="st0" points="363.6,29.9 363.6,11.8 376.8,11.8 376.8,14.9 367.2,14.9 367.2,18.9 376.1,18.9 376.1,21.9 367.2,21.9 
	367.2,26.8 377.2,26.8 377.2,29.9 363.6,29.9 363.6,29.9 "/>
<path class="st0" d="M396.3,29.9h-3.9l-1.5-4.1h-7.2l-1.5,4.1h-3.8l6.9-18h3.8L396.3,29.9L396.3,29.9z M389.7,22.7l-2.5-6.7
	l-2.4,6.7H389.7z"/>
<polygon class="st0" points="171.3,59.3 171.3,47.6 179.2,47.6 179.2,49.5 173.6,49.5 173.6,52.3 178.5,52.3 178.5,54.3 173.6,54.3 
	173.6,59.3 171.3,59.3 171.3,59.3 "/>
<path class="st0" d="M180.6,54.9c0-0.8,0.2-1.5,0.5-2.2c0.3-0.7,0.9-1.2,1.6-1.6c0.7-0.4,1.5-0.6,2.2-0.6c1.2,0,2.3,0.4,3.1,1.3
	c0.8,0.9,1.2,2,1.2,3.2c0,1.2-0.4,2.3-1.2,3.2c-0.8,0.8-1.9,1.3-3.1,1.3c-0.8,0-1.5-0.2-2.2-0.5c-0.7-0.3-1.2-0.9-1.6-1.6
	C180.8,56.6,180.6,55.8,180.6,54.9L180.6,54.9z M182.9,55c0,0.7,0.2,1.4,0.6,1.9c0.4,0.4,0.9,0.7,1.5,0.7c0.6,0,1.1-0.2,1.4-0.7
	c0.4-0.6,0.7-1.3,0.6-2c0-0.7-0.2-1.4-0.6-1.9c-0.4-0.4-0.9-0.7-1.4-0.7c-0.6,0-1.1,0.2-1.5,0.7C183.1,53.6,182.9,54.3,182.9,55
	L182.9,55z"/>
<path class="st0" d="M198.7,59.3h-2.2v-4.3c0-0.6,0-1.2-0.1-1.8c-0.1-0.3-0.3-0.5-0.5-0.6c-0.2-0.2-0.5-0.2-0.8-0.2
	c-0.4,0-0.7,0.1-1.1,0.3c-0.3,0.2-0.5,0.5-0.6,0.8c-0.1,0.6-0.2,1.3-0.2,1.9v3.8H191v-8.5h2.1V52c0.6-0.9,1.7-1.4,2.8-1.4
	c0.5,0,0.9,0.1,1.4,0.3c0.4,0.1,0.7,0.4,0.9,0.7c0.2,0.3,0.4,0.6,0.4,0.9c0.1,0.5,0.1,1,0.1,1.5L198.7,59.3L198.7,59.3z"/>
<path class="st0" d="M208.7,59.3h-2.1V58c-0.3,0.5-0.7,0.8-1.2,1.1c-0.4,0.2-0.9,0.4-1.4,0.4c-1,0-1.9-0.4-2.5-1.2
	c-0.7-0.9-1.1-2.1-1-3.3c-0.1-1.2,0.3-2.4,1-3.3c0.6-0.7,1.6-1.1,2.5-1.1c1,0,1.9,0.4,2.4,1.2v-4.2h2.2L208.7,59.3L208.7,59.3z
	 M202.8,54.9c-0.1,0.7,0.1,1.4,0.4,2c0.3,0.6,0.9,0.9,1.5,0.9c0.5,0,1-0.2,1.3-0.7c0.4-0.6,0.6-1.3,0.5-2c0.1-0.7-0.1-1.5-0.5-2.1
	c-0.6-0.7-1.6-0.9-2.4-0.3c-0.1,0.1-0.2,0.2-0.3,0.3C202.9,53.5,202.7,54.2,202.8,54.9L202.8,54.9z"/>
<path class="st0" d="M210.4,54.9c0-0.8,0.2-1.5,0.6-2.2c0.3-0.7,0.9-1.2,1.6-1.6c0.7-0.4,1.5-0.6,2.2-0.6c1.2,0,2.3,0.4,3.1,1.3
	c0.8,0.8,1.3,2,1.2,3.2c0,1.2-0.4,2.3-1.2,3.2c-0.8,0.8-1.9,1.3-3.1,1.3c-0.8,0-1.5-0.2-2.2-0.5c-0.7-0.3-1.2-0.9-1.6-1.6
	C210.5,56.6,210.3,55.8,210.4,54.9L210.4,54.9z M212.6,55c0,0.7,0.2,1.4,0.6,1.9c0.7,0.8,1.9,0.9,2.7,0.2c0.1-0.1,0.1-0.1,0.2-0.2
	c0.4-0.6,0.6-1.3,0.6-2c0-0.7-0.2-1.4-0.6-1.9c-0.7-0.8-1.9-0.9-2.7-0.2c-0.1,0.1-0.1,0.1-0.2,0.2C212.8,53.6,212.6,54.3,212.6,55
	L212.6,55z"/>
<path class="st0" d="M224.5,56.9l2.2-0.3c0.1,0.4,0.3,0.7,0.6,1c0.4,0.2,0.8,0.4,1.2,0.3c0.5,0,0.9-0.1,1.3-0.3
	c0.2-0.1,0.3-0.4,0.3-0.6c0-0.2,0-0.3-0.1-0.4c-0.2-0.2-0.5-0.3-0.8-0.3c-1.2-0.2-2.3-0.6-3.4-1.1c-0.6-0.4-1-1.1-1-1.9
	c0-0.7,0.3-1.4,0.9-1.9c0.8-0.6,1.7-0.8,2.7-0.8c0.9-0.1,1.8,0.1,2.6,0.6c0.6,0.4,1,1,1.2,1.7l-2.1,0.4c-0.1-0.3-0.3-0.6-0.5-0.8
	c-0.3-0.2-0.7-0.3-1.1-0.3c-0.4,0-0.9,0.1-1.3,0.2c-0.2,0.1-0.3,0.3-0.2,0.5c0,0.2,0.1,0.3,0.2,0.4c0.7,0.3,1.4,0.5,2.1,0.6
	c0.9,0.2,1.7,0.5,2.5,1c0.5,0.4,0.7,1,0.7,1.7c0,0.8-0.4,1.5-1,2c-0.8,0.6-1.8,0.9-2.9,0.8c-1,0-1.9-0.2-2.7-0.7
	C225.1,58.3,224.7,57.7,224.5,56.9L224.5,56.9z"/>
<path class="st0" d="M233.8,54.9c0-0.8,0.2-1.5,0.6-2.2c0.3-0.7,0.9-1.2,1.5-1.6c0.7-0.4,1.5-0.6,2.2-0.6c1.2,0,2.3,0.4,3.1,1.3
	c0.8,0.8,1.3,2,1.2,3.2c0,1.2-0.4,2.3-1.2,3.2c-0.8,0.8-1.9,1.3-3.1,1.3c-0.8,0-1.5-0.2-2.2-0.5c-0.7-0.3-1.2-0.9-1.6-1.6
	C234,56.6,233.8,55.8,233.8,54.9L233.8,54.9z M236.1,55c0,0.7,0.2,1.4,0.6,1.9c0.7,0.8,1.9,0.9,2.7,0.2c0.1-0.1,0.1-0.1,0.2-0.2
	c0.4-0.6,0.6-1.3,0.6-2c0-0.7-0.2-1.4-0.6-1.9c-0.7-0.8-1.9-0.9-2.7-0.2c-0.1,0.1-0.1,0.1-0.2,0.2C236.2,53.6,236,54.3,236.1,55
	L236.1,55z"/>
<path class="st0" d="M251.6,53.3l-2.2,0.4c0-0.4-0.2-0.7-0.5-1c-0.3-0.2-0.6-0.4-1-0.3c-0.5,0-1,0.2-1.3,0.6c-0.4,0.6-0.6,1.3-0.5,2
	c-0.1,0.7,0.1,1.5,0.5,2.1c0.3,0.4,0.8,0.6,1.3,0.6c0.4,0,0.7-0.1,1-0.4c0.3-0.3,0.5-0.8,0.6-1.3l2.2,0.4c-0.3,1.9-2,3.3-3.9,3.1
	c-1.1,0.1-2.2-0.4-2.9-1.2c-1.5-1.9-1.5-4.6,0-6.5c0.8-0.8,1.9-1.2,3-1.2c0.9,0,1.7,0.2,2.4,0.7C250.9,51.8,251.3,52.5,251.6,53.3
	L251.6,53.3z"/>
<path class="st0" d="M253.3,49.6v-2.1h2.2v2.1L253.3,49.6z M253.3,59.3v-8.5h2.2v8.5L253.3,59.3z"/>
<path class="st0" d="M259.4,53.4l-2-0.4c0.2-0.7,0.6-1.4,1.2-1.8c0.7-0.5,1.6-0.7,2.5-0.6c0.8,0,1.5,0.1,2.2,0.4
	c0.4,0.2,0.8,0.5,1,0.9c0.2,0.6,0.3,1.3,0.3,2v2.6c0,0.6,0,1.1,0.1,1.7c0.1,0.4,0.2,0.8,0.4,1.1h-2.2c-0.1-0.2-0.2-0.4-0.2-0.7
	c0-0.1-0.1-0.2-0.1-0.3c-0.3,0.4-0.8,0.6-1.2,0.8c-0.4,0.2-0.9,0.3-1.4,0.3c-0.7,0-1.5-0.2-2-0.7c-0.5-0.5-0.8-1.1-0.8-1.8
	c0-0.5,0.1-0.9,0.3-1.3c0.2-0.4,0.6-0.7,1-0.9c0.6-0.2,1.2-0.4,1.8-0.5c0.7-0.1,1.5-0.3,2.2-0.5v-0.2c0-0.3-0.1-0.7-0.3-0.9
	c-0.4-0.2-0.8-0.3-1.2-0.3c-0.3,0-0.6,0.1-0.9,0.2C259.7,52.8,259.5,53.1,259.4,53.4L259.4,53.4z M262.4,55.2
	c-0.3,0.1-0.7,0.2-1.4,0.3c-0.4,0.1-0.8,0.2-1.2,0.4c-0.3,0.2-0.4,0.5-0.4,0.8c0,0.3,0.1,0.6,0.4,0.8c0.2,0.2,0.6,0.3,0.9,0.3
	c0.4,0,0.8-0.1,1.1-0.4c0.3-0.2,0.4-0.4,0.5-0.7c0.1-0.4,0.1-0.7,0.1-1.1V55.2z"/>
<polygon class="st0" points="266.8,59.3 266.8,47.6 269,47.6 269,59.3 266.8,59.3 266.8,59.3 "/>
<path class="st0" d="M276.1,56.6l2.2,0.4c-0.2,0.8-0.7,1.4-1.4,1.9c-0.7,0.5-1.5,0.7-2.3,0.7c-1.3,0.1-2.5-0.5-3.2-1.4
	c-0.6-0.9-0.9-1.9-0.8-2.9c-0.1-1.2,0.3-2.4,1.1-3.3c0.7-0.8,1.7-1.2,2.8-1.2c1.1-0.1,2.2,0.4,3,1.3c0.8,1.1,1.1,2.5,1,3.8h-5.6
	c0,0.6,0.2,1.1,0.5,1.6c0.3,0.4,0.8,0.6,1.3,0.6c0.3,0,0.6-0.1,0.9-0.3C275.9,57.3,276,57,276.1,56.6L276.1,56.6z M276.2,54.3
	c0-0.5-0.1-1.1-0.5-1.5c-0.6-0.7-1.6-0.7-2.2-0.1c0,0-0.1,0.1-0.1,0.1c-0.3,0.4-0.5,0.9-0.5,1.5L276.2,54.3z"/>
<path class="st0" d="M289.6,56.6l2.2,0.4c-0.2,0.8-0.7,1.4-1.4,1.9c-0.7,0.5-1.5,0.7-2.3,0.7c-1.3,0.1-2.5-0.5-3.2-1.4
	c-0.6-0.9-0.9-1.9-0.8-2.9c-0.1-1.2,0.3-2.4,1.1-3.3c0.7-0.8,1.7-1.2,2.8-1.2c1.1-0.1,2.2,0.4,3,1.3c0.8,1.1,1.1,2.5,1,3.8h-5.6
	c0,0.6,0.2,1.1,0.5,1.6c0.3,0.4,0.8,0.6,1.3,0.6c0.3,0,0.6-0.1,0.9-0.3C289.4,57.3,289.6,57,289.6,56.6L289.6,56.6z M289.8,54.3
	c0-0.5-0.2-1.1-0.5-1.5c-0.3-0.3-0.7-0.5-1.1-0.5c-0.5,0-0.9,0.2-1.2,0.5c-0.3,0.4-0.5,0.9-0.5,1.5H289.8z"/>
<path class="st0" d="M299.4,59.3V58c-0.3,0.5-0.7,0.8-1.2,1.1c-0.5,0.3-1,0.4-1.6,0.4c-0.5,0-1.1-0.1-1.5-0.4
	c-0.4-0.2-0.8-0.6-1-1.1c-0.2-0.6-0.3-1.2-0.3-1.9v-5.4h2.2v3.9c0,0.7,0,1.5,0.1,2.2c0.1,0.3,0.2,0.5,0.5,0.6
	c0.2,0.2,0.5,0.3,0.8,0.2c0.4,0,0.7-0.1,1-0.3c0.3-0.2,0.5-0.5,0.6-0.8c0.2-0.8,0.2-1.5,0.2-2.3v-3.6h2.2v8.5H299.4z"/>
<path class="st0" d="M305.8,59.3h-2.2v-8.5h2.1V52c0.3-0.4,0.6-0.8,1-1.1c0.3-0.2,0.6-0.3,1-0.3c0.5,0,1,0.2,1.5,0.4l-0.7,2
	c-0.3-0.2-0.7-0.4-1-0.4c-0.3,0-0.6,0.1-0.8,0.3c-0.3,0.3-0.4,0.6-0.5,0.9c-0.2,0.9-0.2,1.9-0.2,2.8L305.8,59.3L305.8,59.3z"/>
<path class="st0" d="M309.5,54.9c0-0.8,0.2-1.5,0.5-2.2c0.3-0.7,0.9-1.2,1.5-1.6c0.7-0.4,1.5-0.6,2.2-0.6c1.2,0,2.3,0.4,3.1,1.3
	c0.8,0.8,1.3,2,1.2,3.2c0,1.2-0.4,2.3-1.2,3.2c-0.8,0.8-1.9,1.3-3.1,1.3c-0.8,0-1.5-0.2-2.2-0.5c-0.7-0.3-1.2-0.9-1.6-1.6
	C309.7,56.6,309.5,55.8,309.5,54.9L309.5,54.9z M311.8,55c-0.1,0.7,0.2,1.4,0.6,1.9c0.7,0.8,1.9,0.9,2.7,0.2
	c0.1-0.1,0.1-0.1,0.2-0.2c0.4-0.6,0.6-1.3,0.6-2c0-0.7-0.2-1.4-0.6-1.9c-0.7-0.8-1.9-0.9-2.7-0.2c-0.1,0.1-0.1,0.1-0.2,0.2
	C312,53.6,311.7,54.3,311.8,55L311.8,55z"/>
<path class="st0" d="M319.9,50.8h2.1V52c0.6-0.9,1.6-1.4,2.6-1.4c1,0,1.9,0.4,2.5,1.2c0.7,0.9,1.1,2.1,1,3.2c0.1,1.2-0.3,2.4-1,3.3
	c-0.6,0.8-1.5,1.2-2.5,1.2c-0.4,0-0.9-0.1-1.3-0.3c-0.5-0.3-0.9-0.6-1.2-1v4.2h-2.2L319.9,50.8L319.9,50.8z M322,54.9
	c-0.1,0.8,0.1,1.5,0.6,2.1c0.3,0.4,0.8,0.7,1.4,0.7c0.5,0,1-0.2,1.3-0.6c0.4-0.6,0.6-1.3,0.5-2.1c0.1-0.7-0.1-1.4-0.5-2
	c-0.3-0.4-0.8-0.7-1.3-0.7c-0.5,0-1,0.2-1.4,0.6C322.2,53.5,322,54.2,322,54.9L322,54.9z"/>
<path class="st0" d="M334.7,56.6l2.2,0.4c-0.2,0.8-0.7,1.4-1.4,1.9c-0.7,0.5-1.5,0.7-2.3,0.7c-1.3,0.1-2.5-0.5-3.2-1.4
	c-0.6-0.9-0.9-1.9-0.8-2.9c-0.1-1.2,0.3-2.4,1.1-3.3c0.7-0.8,1.7-1.2,2.8-1.2c1.1-0.1,2.2,0.4,3,1.3c0.8,1.1,1.1,2.5,1,3.8h-5.6
	c0,0.6,0.2,1.1,0.5,1.6c0.3,0.4,0.8,0.6,1.3,0.6c0.3,0,0.6-0.1,0.9-0.3C334.4,57.3,334.6,57,334.7,56.6L334.7,56.6z M334.8,54.3
	c0-0.5-0.2-1.1-0.5-1.5c-0.6-0.6-1.6-0.7-2.2-0.1c0,0-0.1,0.1-0.1,0.1c-0.3,0.4-0.5,0.9-0.5,1.5L334.8,54.3z"/>
<path class="st0" d="M338.3,54.9c0-0.8,0.2-1.5,0.5-2.2c0.3-0.7,0.9-1.2,1.5-1.6c0.7-0.4,1.5-0.6,2.2-0.6c1.2,0,2.3,0.4,3.1,1.3
	c0.8,0.8,1.3,2,1.2,3.2c0,1.2-0.4,2.3-1.2,3.2c-0.8,0.8-1.9,1.3-3.1,1.3c-0.8,0-1.5-0.2-2.2-0.5c-0.7-0.3-1.2-0.9-1.6-1.6
	C338.5,56.6,338.3,55.8,338.3,54.9L338.3,54.9z M340.6,55c-0.1,0.7,0.2,1.4,0.6,1.9c0.7,0.8,1.9,0.9,2.7,0.2
	c0.1-0.1,0.1-0.1,0.2-0.2c0.4-0.6,0.6-1.3,0.6-2c0-0.7-0.2-1.4-0.6-1.9c-0.7-0.8-1.9-0.9-2.7-0.2c-0.1,0.1-0.1,0.1-0.2,0.2
	C340.8,53.6,340.6,54.3,340.6,55L340.6,55z"/>
<polygon class="st1" points="1.6,105.3 1.6,1.6 163.1,1.6 163.1,105.3 1.6,105.3 1.6,105.3 "/>
<polygon class="st2" points="85,95.5 80,91.9 75,95.5 76.9,89.7 71.8,86.3 77.9,86.4 79.9,80.7 81.9,86.4 87.9,86.3 83.1,89.7 
	85,95.5 85,95.5 "/>
<polygon class="st2" points="84,21.2 79,17.7 74,21.3 75.9,15.5 70.8,12.1 76.9,12.1 78.9,6.4 80.9,12.1 86.9,12.1 82,15.4 84,21.2 
	84,21.2 "/>
<polygon class="st2" points="122.8,58.1 117.8,54.5 112.8,58.1 114.6,52.3 109.6,49 115.7,49 117.7,43.3 119.7,49 125.7,49 
	120.9,52.3 122.8,58.1 122.8,58.1 "/>
<polygon class="st2" points="46,58 41,54.4 36,58 37.8,52.2 32.8,48.9 38.9,48.9 40.9,43.2 42.9,48.9 49,48.9 44.1,52.1 46,58 
	46,58 "/>
<polygon class="st2" points="64.4,26.3 59.4,22.8 54.4,26.3 56.3,20.6 51.2,17.2 57.3,17.2 59.3,11.5 61.3,17.2 67.4,17.2 
	62.5,20.5 64.4,26.3 64.4,26.3 "/>
<polygon class="st2" points="50.8,40.1 45.8,36.5 40.8,40.1 42.7,34.3 37.6,30.9 43.7,30.9 45.7,25.2 47.7,30.9 53.8,30.9 
	48.9,34.2 50.8,40.1 50.8,40.1 "/>
<polygon class="st2" points="51.9,76 46.8,72.4 41.9,76 43.7,70.2 38.7,66.8 44.8,66.9 46.8,61.2 48.8,66.9 54.8,66.8 49.9,70.2 
	51.9,76 51.9,76 "/>
<polygon class="st2" points="65.8,89.8 60.8,86.3 55.8,89.9 57.7,84.1 52.6,80.7 58.7,80.7 60.7,75 62.7,80.7 68.8,80.7 63.9,84 
	65.8,89.8 65.8,89.8 "/>
<polygon class="st2" points="103.1,89.8 98.1,86.3 93.1,89.9 94.9,84.1 89.9,80.7 96,80.7 98,75 100,80.7 106,80.7 101.2,84 
	103.1,89.8 103.1,89.8 "/>
<polygon class="st2" points="116.2,76.1 111.2,72.6 106.2,76.1 108.1,70.3 103,66.9 109.1,67 111.1,61.3 113.1,67 119.2,66.9 
	114.3,70.3 116.2,76.1 116.2,76.1 "/>
<polygon class="st2" points="118.2,40.1 113.1,36.5 108.2,40.1 110,34.3 105,30.9 111.1,30.9 113.1,25.2 115.1,30.9 121.1,30.9 
	116.3,34.2 118.2,40.1 118.2,40.1 "/>
<polygon class="st2" points="105.1,26.4 100,22.9 95,26.4 96.9,20.7 91.9,17.3 97.9,17.3 99.9,11.6 101.9,17.3 108,17.3 103.1,20.6 
	105.1,26.4 105.1,26.4 "/>
<text transform="matrix(1 0 0 1 171.26 92.51)" class="st0 st3 st4">Fondo Europeo di Sviluppo Regionale</text>
</svg>
