<?xml version="1.0" encoding="utf-8"?>
<!-- Generator: Adobe Illustrator 21.0.2, SVG Export Plug-In . SVG Version: 6.00 Build 0)  -->
<svg version="1.1" id="Livello_1" xmlns="http://www.w3.org/2000/svg" xmlns:xlink="http://www.w3.org/1999/xlink" x="0px" y="0px"
	 width="203.5px" height="37px" viewBox="0 0 203.5 37" style="enable-background:new 0 0 203.5 37;" xml:space="preserve">
<style type="text/css">
	.st0{fill:#FFFFFF;}
	.st1{fill:#3161AA;}
	.st2{font-family:'Calibri-Bold';}
	.st3{font-size:12.0872px;}
	.st4{font-family:'Calibri';}
	.st5{font-size:9.6103px;}
	.st6{fill:#2B2523;}
	.st7{font-family:'MyriadPro-Regular';}
	.st8{font-size:6.5566px;}
</style>
<g>
	<g>
		<rect x="1" y="1.2" class="st0" width="51.1" height="34.7"/>
		<rect x="2" y="2.2" class="st1" width="49.1" height="32.8"/>
		<polygon class="st0" points="25.5,9.3 26.5,8.5 27.6,9.3 27.2,8.1 28.2,7.3 26.9,7.3 26.5,6.1 26.1,7.3 24.9,7.3 25.9,8.1 		"/>
		<polygon class="st0" points="20.1,10.7 21.2,10 22.2,10.7 21.8,9.5 22.9,8.8 21.6,8.8 21.2,7.5 20.8,8.8 19.5,8.8 20.5,9.5 		"/>
		<polygon class="st0" points="17.3,11.5 16.9,12.7 15.6,12.7 16.6,13.5 16.2,14.7 17.3,13.9 18.3,14.7 17.9,13.5 18.9,12.7 
			17.6,12.7 		"/>
		<polygon class="st0" points="15.8,19.3 16.8,20 16.5,18.8 17.5,18.1 16.2,18.1 15.8,16.8 15.4,18.1 14.1,18.1 15.2,18.8 14.8,20 
					"/>
		<polygon class="st0" points="17.6,23.4 17.3,22.2 16.9,23.4 15.6,23.4 16.6,24.2 16.2,25.4 17.3,24.7 18.3,25.4 17.9,24.2 
			18.9,23.4 		"/>
		<polygon class="st0" points="21.6,27.4 21.2,26.1 20.8,27.4 19.5,27.4 20.5,28.1 20.2,29.3 21.2,28.6 22.2,29.3 21.8,28.1 
			22.9,27.4 		"/>
		<polygon class="st0" points="26.9,28.8 26.5,27.6 26.1,28.8 24.9,28.8 25.9,29.5 25.5,30.8 26.5,30 27.6,30.8 27.2,29.5 
			28.2,28.8 		"/>
		<polygon class="st0" points="32.3,27.4 31.9,26.1 31.5,27.4 30.2,27.4 31.3,28.1 30.9,29.3 31.9,28.6 32.9,29.3 32.5,28.1 
			33.6,27.4 		"/>
		<polygon class="st0" points="36.2,23.4 35.8,22.2 35.4,23.4 34.1,23.4 35.2,24.2 34.8,25.4 35.8,24.7 36.9,25.4 36.5,24.2 
			37.5,23.4 		"/>
		<polygon class="st0" points="39,18 37.7,18 37.3,16.8 36.9,18 35.6,18 36.6,18.8 36.2,20 37.3,19.3 38.3,20 37.9,18.8 		"/>
		<polygon class="st0" points="34.8,14.7 35.8,13.9 36.9,14.7 36.5,13.4 37.5,12.7 36.2,12.7 35.8,11.4 35.4,12.7 34.1,12.7 
			35.2,13.4 		"/>
		<polygon class="st0" points="31.9,7.5 31.5,8.8 30.2,8.8 31.3,9.5 30.9,10.7 31.9,10 33,10.7 32.6,9.5 33.6,8.8 32.3,8.8 		"/>
		<text transform="matrix(1 0 0 1 57.065 11.9082)" class="st0 st2 st3">UNI</text>
		<text transform="matrix(1 0 0 1 75.765 11.9082)" class="st0 st2 st3">O</text>
		<text transform="matrix(1 0 0 1 83.865 11.9082)" class="st0 st2 st3">NE EUR</text>
		<text transform="matrix(1 0 0 1 120.365 11.9082)" class="st0 st2 st3">OP</text>
		<text transform="matrix(1 0 0 1 134.765 11.9082)" class="st0 st2 st3">E</text>
		<text transform="matrix(1 0 0 1 140.565 11.9082)" class="st0 st2 st3">A</text>
		<text transform="matrix(1 0 0 1 58.1568 21.707)" class="st0 st4 st5">Fondo Sociale Europeo </text>
		<text transform="matrix(1 0 0 1 58.1568 33.207)" class="st0 st4 st5">Fondo Europeo di Sviluppo Regionale</text>
		<text transform="matrix(1 0 0 1 131.1402 23.3574)" class="st6 st7 st8"> </text>
	</g>
</g>
</svg>
