<?xml version="1.0" encoding="utf-8"?>
<!-- Generator: Adobe Illustrator 21.0.2, SVG Export Plug-In . SVG Version: 6.00 Build 0)  -->
<svg version="1.1" id="Livello_1" xmlns="http://www.w3.org/2000/svg" xmlns:xlink="http://www.w3.org/1999/xlink" x="0px" y="0px"
	 width="172px" height="49px" viewBox="0 0 172 49" style="enable-background:new 0 0 172 49;" xml:space="preserve">
<g>
	<g>
		<path style="fill-rule:evenodd;clip-rule:evenodd;fill:#FFFFFF;" d="M7.8,36.7C7.6,37,7.4,37.1,7,36.9l0.2-0.3l0.3-0.5
			C7.7,36,7.7,36,7.8,36.1C8,36.2,8,36.4,7.8,36.7C7.9,36.7,7.9,36.7,7.8,36.7 M8.3,37c0.1-0.1,0.1-0.3,0.1-0.3
			c0-0.3-0.1-0.6-0.4-0.7l-0.4-0.2c-0.2-0.1-0.3-0.2-0.4-0.3L7,35.6c0.2,0.1,0.1,0.3,0,0.6l-0.3,0.5l-0.5,0.7
			c-0.2,0.3-0.3,0.4-0.5,0.3l-0.1,0.1l0.9,0.6l0.1-0.1c-0.3-0.2-0.2-0.3,0-0.6L6.9,37l0.2,0.1C7.5,37.3,8,37.4,8.3,37"/>
		<path style="fill-rule:evenodd;clip-rule:evenodd;fill:#FFFFFF;" d="M12.5,16.5c0.5-0.6,1-1.1,1.5-1.6c1.4-1.2,3.1-2.1,5-2.6
			l-0.2,2.6l-0.2,2.8c0,0-0.1,0.1-0.2,0.1L12.5,16.5L12.5,16.5z M12.1,16.6c0,0.2,0.1,0.3,0.4,0.4l5.9,1.2c0.1,0,0.1,0,0.2,0
			c0.2,0,0.4-0.3,0.4-0.5l0.2-2.8l0.2-2.6c0-0.1-0.1-0.3-0.2-0.3c-0.1,0-0.2-0.1-0.4,0c-2.1,0.6-3.9,1.6-5.4,3
			c-0.5,0.4-0.9,0.9-1.3,1.4C12.1,16.4,12.1,16.5,12.1,16.6"/>
		<path style="fill-rule:evenodd;clip-rule:evenodd;fill:#FFFFFF;" d="M18.3,42.8c-0.2,0-0.3,0.1-0.4,0.3c0.3,0,0.4,0.1,0.7,0
			c0.5-0.4,0.8-1,1.4-1.2v-0.1c-0.2,0-0.4,0.1-0.7,0.3C19.1,42.2,18.8,42.9,18.3,42.8"/>
		<path style="fill-rule:evenodd;clip-rule:evenodd;fill:#FFFFFF;" d="M10.7,38.7l0.1-0.3l0.2-0.5c0,0,0.1,0,0.1,0
			c0.2,0.1,0.2,0.3,0.1,0.6c0,0.1-0.1,0.1-0.1,0.2C11.1,38.8,10.9,38.8,10.7,38.7 M10.3,39.9c-0.2-0.1-0.1-0.3,0-0.5c0,0,0,0,0-0.1
			l0.3-0.5l0.1,0c0.3,0.1,0.3,0.3,0.1,0.7c-0.1,0-0.1,0.1-0.1,0.2C10.6,39.9,10.4,40,10.3,39.9 M11.4,37.7l-0.9-0.3l-0.1,0.1
			c0.3,0.1,0.2,0.3,0.1,0.6l-0.1,0l-0.6,1.1v0c-0.2,0.3-0.2,0.5-0.5,0.3l0,0.1L10,40c0.3,0.1,0.8,0.3,1.1,0c0.1-0.1,0.1-0.2,0.2-0.3
			c0.2-0.5-0.1-0.8-0.3-0.9c0.1,0,0.4,0,0.6-0.1c0.1,0,0.1-0.1,0.2-0.3C12.1,38.1,11.7,37.8,11.4,37.7"/>
		<path style="fill-rule:evenodd;clip-rule:evenodd;fill:#FFFFFF;" d="M13.4,39.8c-0.2,0-0.3-0.1-0.3-0.3c0,0,0-0.1,0-0.1l-0.1-0.6
			l0.1,0c0.3,0,0.5,0.1,0.6,0.5v0.2C13.6,39.6,13.6,39.8,13.4,39.8 M12.7,37.7c0-0.1,0.1-0.1,0.1-0.1c0.2,0,0.4,0.1,0.5,0.4v0.2
			c0,0.2-0.1,0.3-0.3,0.4l-0.1-0.3L12.7,37.7z M13.3,38.6c0.1-0.1,0.3-0.2,0.4-0.4c0-0.1,0-0.2,0-0.3c-0.1-0.6-0.6-0.6-1-0.5
			l-0.9,0.2v0.2c0.3-0.1,0.3,0.1,0.4,0.4v0l0.3,1.2v0c0,0.3,0.1,0.5-0.2,0.6l0,0.1l0.9-0.2c0.3,0,0.8-0.2,0.9-0.6v-0.3
			C14,38.7,13.6,38.6,13.3,38.6"/>
		<path style="fill-rule:evenodd;clip-rule:evenodd;fill:#FFFFFF;" d="M10.4,37.4L10.4,37.4l-0.6-0.5L9.7,37c0.1,0,0.2,0.1,0.1,0.3
			c-0.1,0.1-0.3,0.3-0.5,0.4l-0.8,0.7L9,37.1c0,0,0-0.2,0.1-0.3c0.1-0.1,0.2-0.1,0.3,0l0.1-0.1l-0.9-0.5l-0.1,0.1
			c0.2,0.2,0.2,0.2,0,0.6L7.8,39l0.1,0.1l1.9-1.5C10,37.4,10.2,37.3,10.4,37.4"/>
		<path style="fill-rule:evenodd;clip-rule:evenodd;fill:#FFFFFF;" d="M5.9,37l-0.1-0.1c-0.3,0.4-0.5,0.4-0.8,0.3
			c-0.3-0.2-0.1-0.4,0-0.7l0.3-0.4c0.2,0.2,0.3,0.3,0.1,0.6l0.1,0l0.6-0.9l-0.1,0c-0.2,0.3-0.4,0.3-0.6,0.2l0.4-0.6
			c0-0.1,0.1-0.2,0.1-0.2c0,0,0.2,0,0.3,0.1c0.2,0.1,0.3,0.3,0.1,0.7l0.1,0l0.4-0.6l-1.4-0.8l0,0.1c0.2,0.1,0.1,0.3,0,0.6l-0.8,1.1
			c-0.2,0.3-0.3,0.5-0.6,0.3l0,0.1l1.5,0.8l0.2-0.3L5.9,37z"/>
		<path style="fill-rule:evenodd;clip-rule:evenodd;fill:#FFFFFF;" d="M15.9,38.8c0,0.5-0.1,0.6-0.5,0.7c-0.3,0-0.4-0.2-0.5-0.6
			l-0.3-1.1c-0.1-0.3-0.1-0.5,0.2-0.5v-0.1l-1.1,0.2l0,0.1c0.3,0,0.3,0.1,0.4,0.5l0.3,1.3c0,0.3,0.1,0.5-0.2,0.5l0,0.2l1.8-0.3
			l-0.1-0.7H15.9z"/>
		<path style="fill-rule:evenodd;clip-rule:evenodd;fill:#FFFFFF;" d="M20.1,37.9l0.1-0.3l0.1-0.6l0.3,0.6l0.1,0.3L20.1,37.9z
			 M21.4,38.2l-0.3-0.6l-0.6-1.4h-0.1l-0.3,1.4l-0.1,0.6c-0.1,0.3-0.1,0.6-0.4,0.7l0.1,0.1l0.7,0l0-0.2c-0.1,0-0.2,0-0.3-0.2l0-0.5
			l0.7,0l0.2,0.5c0,0.2-0.2,0.2-0.3,0.2l0,0.1l0.8,0l0.2,0v-0.1c-0.1,0-0.2,0-0.2-0.1C21.5,38.5,21.4,38.3,21.4,38.2"/>
		<path style="fill-rule:evenodd;clip-rule:evenodd;fill:#FFFFFF;" d="M21.5,14L21.5,14l1.7,5.1l5.9,0l-4.9,3l2,5.1l-4.7-3.2
			l-4.8,3.2l2-5.1l-4.9-2.9l5.9,0L21.5,14z M12.2,18.6l6,3.6l-2.4,6.3l5.8-4l5.8,4l-2.5-6.3l6-3.6l-7.2,0l-2.1-6.3l-2.1,6.3
			L12.2,18.6z"/>
		<path style="fill-rule:evenodd;clip-rule:evenodd;fill:#FFFFFF;" d="M19.1,38.1c0,0.4-0.1,0.8-0.5,0.9c-0.5,0-0.7-0.5-0.8-1.1
			c-0.1-0.5,0-1.2,0.4-1.2c0.3,0,0.6,0.2,0.7,0.6l0.1,0l-0.1-0.8h-0.1v0.3c-0.2-0.2-0.4-0.2-0.6-0.2c-0.6,0.1-1,0.7-0.9,1.5
			c0.1,0.8,0.6,1.2,1.3,1.2c0.2,0,0.5-0.2,0.6-0.4l0.1,0.2h0.1l-0.1-0.9H19.1z"/>
		<path style="fill-rule:evenodd;clip-rule:evenodd;fill:#FFFFFF;" d="M17.1,38.7l-0.3-1.3c0-0.3-0.1-0.5,0.2-0.6l-0.1-0.1l-1.1,0.2
			l0,0.2c0.3-0.1,0.3,0.1,0.4,0.4l0.3,1.3c0.1,0.3,0.1,0.5-0.2,0.6l0.1,0.1l1.1-0.2l-0.1-0.1C17.2,39.2,17.1,39,17.1,38.7"/>
		<path style="fill-rule:evenodd;clip-rule:evenodd;fill:#FFFFFF;" d="M23.8,12.1c1.8,0.5,3.4,1.4,4.8,2.5c0.6,0.5,1.1,1.1,1.6,1.7
			l-5.9,1.3c0,0-0.1,0-0.2-0.1l-0.2-2.9L23.8,12.1L23.8,12.1l0,5.4c0,0.1,0,0.1,0,0.2c0.1,0.2,0.4,0.3,0.6,0.3l5.9-1.3
			c0.1,0,0.2-0.2,0.3-0.3c0.1-0.1,0.1-0.3,0-0.3c-0.4-0.5-0.9-1-1.3-1.5c-1.5-1.3-3.3-2.3-5.3-2.9c-0.1,0-0.2,0-0.3,0
			c-0.2,0-0.3,0.2-0.3,0.4l0.2,2.5l0.3,2.9L23.8,12.1z"/>
		<path style="fill-rule:evenodd;clip-rule:evenodd;fill:#FFFFFF;" d="M21.5,30.3c-1.4,0-2.8-0.3-4.1-0.7l4-4.1c0,0,0,0,0.1,0
			c0.1,0,0.1,0,0.1,0l3.9,4.2C24.3,30.1,23,30.3,21.5,30.3 M22,25.3c0,0-0.1-0.1-0.2-0.1c-0.1,0-0.2-0.1-0.3,0c-0.2,0-0.3,0-0.4,0.2
			l-4,4.1c-0.2,0.4,0.1,0.6,0.2,0.6c1.3,0.4,2.7,0.6,4.2,0.7c1.4,0,2.7-0.2,4.1-0.6c0.1,0,0.6-0.3,0.2-0.7L22,25.3z"/>
		<path style="fill-rule:evenodd;clip-rule:evenodd;fill:#FFFFFF;" d="M34.5,38.3l-0.1-0.5l-0.1-0.4l0.4,0.4L35,38L34.5,38.3z
			 M36.1,38.3c-0.1,0-0.2-0.2-0.3-0.3l-0.4-0.3L34,36.6l-0.2,0.1l0.3,1l0.3,0.9c0.1,0.3,0.3,0.6,0,0.8l0.1,0.1l0.6-0.4L35.1,39
			c-0.1,0-0.2,0.1-0.3-0.1l-0.2-0.4l0.6-0.3l0.4,0.4c0.1,0.1,0,0.2-0.1,0.3l0,0.1l0.9-0.5l-0.1-0.1C36.3,38.3,36.2,38.3,36.1,38.3"
			/>
		<path style="fill-rule:evenodd;clip-rule:evenodd;fill:#FFFFFF;" d="M35.8,11.1c-0.1,0.2,0,0.3,0,0.5c0.1,0.1,0.1,0.3,0.3,0.2
			c0-0.2-0.1-0.3-0.1-0.4C35.9,11.3,36,11.1,35.8,11.1"/>
		<path style="fill-rule:evenodd;clip-rule:evenodd;fill:#FFFFFF;" d="M25.7,36.6c0.3,0,0.2,0.2,0.1,0.6l-0.3,1.3
			c-0.1,0.3-0.1,0.5-0.4,0.5l0,0.1l1.1,0.2v-0.2c-0.3,0-0.2-0.2-0.2-0.5l0.3-1.3c0.1-0.3,0.1-0.5,0.4-0.4v-0.2l-1-0.2L25.7,36.6z"/>
		<path style="fill-rule:evenodd;clip-rule:evenodd;fill:#FFFFFF;" d="M36.9,35.3c0-0.1,0-0.2,0.1-0.2l-0.1-0.1l-0.6,0.3l0,0.1
			c0.3-0.1,0.5,0.1,0.7,0.3l0.7,0.9l-2.2-0.9L35,36.1l0.1,0.1c0.1-0.1,0.2,0,0.4,0l1,1.3c0.2,0.3,0.3,0.4,0.1,0.6l0,0.1l0.6-0.4
			l-0.1-0.1c-0.2,0.2-0.4-0.1-0.6-0.3l-0.8-1l2.5,1l0.1-0.1l-1.2-1.6C37.1,35.6,36.9,35.4,36.9,35.3"/>
		<path style="fill-rule:evenodd;clip-rule:evenodd;fill:#FFFFFF;" d="M33.3,30.6c0.1-0.2,0.4-0.4,0.6-0.7c0,0.2-0.1,0.5-0.3,0.6
			c-0.1,0.1-0.2,0.2-0.3,0.3c0,0,0,0-0.1-0.1C33.2,30.7,33.2,30.6,33.3,30.6 M35.6,28.8c-0.1,0.2-0.2,0.3-0.4,0.5
			c-0.1,0-0.1-0.2-0.1-0.5c0-0.3,0.1-0.8,0.3-0.9C35.8,28.4,35.6,28.8,35.6,28.8 M35.8,29.9c-0.1-0.3,0.1-0.6,0.2-0.9v-0.1
			c0,0,0-0.1,0-0.1c0,0,0,0.1,0.1,0.1v0.1C36.4,29.2,36.1,29.7,35.8,29.9 M37,30.1c-0.2,0.3-0.6,0.5-0.6,0.8c0,0.1-0.2,0.2-0.4,0.1
			c-0.1,0-0.2-0.2-0.4-0.2c-0.1,0.4-0.6,0.3-0.9,0.5c-0.6,0.5-0.7-0.3-0.7-0.2c-0.4,0.4-0.7,0.9-1.1,1.2c-0.2,0.3-0.4,0.8-0.5,0.9
			c-0.1,0-0.2,0.2-0.2,0.2c0,0.1-0.1,0.2-0.3,0.2c-0.1,0-0.1-0.2-0.3-0.1c-0.1,0.2-0.2,0-0.4,0c-0.2,0.2-0.9,1-1.4,1
			c-0.1,0-0.3,0-0.4-0.1c-0.2-0.1-0.6,0.6-0.8,0.6c-0.1,0,0,0.1,0,0.1h0.3c0,0.2-0.3,0.4-0.5,0.5c0,0-0.3,0.1-0.5,0.2
			c0,0-0.7,0-1.5-0.3v-0.3l0.8-0.4c0.1,0.2,0.2,0.3,0.4,0.4c0.2,0.1,0.2,0,0.2-0.1c0-0.3-0.7-0.4-0.1-0.7c0.3-0.2,0.3,0,0.9-0.1
			c0.4-0.1,0.8-0.3,1.1-0.5c0,0,0.4-0.2,1.2-1.4c0,0,0.4-0.6,3.3-5.4c0,0,0.7-0.6,1.8-2.9c0.1-0.2,0.1,0.2,0.3,0.1
			c0.2-0.3-0.1-0.4-0.2-0.6c-0.1-0.3-0.2-0.7-0.1-1c0-0.1,0.2,0,0.3,0.2c0.1,0.3,0.1,0.5,0.2,0.8c0.5,0,0.7-2.4,0.7-2.9v-0.1
			c-0.2-0.3-0.9-0.4-0.9-0.7c0.5-0.1-0.2-1-0.3-0.6c0,0.1,0.1,0.2,0,0.3c-0.8,0.1-0.6-0.6-0.8-0.8c-0.1-0.2-0.5,0-0.6-0.3
			c0-0.2,0-0.3-0.2-0.4c-0.2,0-0.5,0.1-0.5-0.3c0-0.3,0.9,0.4,0.7-0.3c-0.3-0.6-1-0.2-1.1-0.3c-0.2-0.3-0.9-1.3-0.9-1.7
			c0-0.2,0.4,0.3,0.4,0c0-0.3-0.4-0.6-0.5-0.6c-0.4,0.2-0.6-0.3-0.6-0.4c0-0.1,0-0.3,0-0.5c-0.1-0.2-0.4-0.2-0.4-0.4
			c-0.1-0.1-0.2-0.3,0-0.4c1.1-0.3,0-0.7,0.2-0.9c0.2-0.2,0.7,0.1,1-0.3c0.2-0.2,0.3-0.1,0.4,0c0.3,0.3-0.1,0.9,0.4,0.9
			c0.2,0,0.3-0.3,0.6-0.1c0.3,0.3,0.3,0.6,0.4,1c0.2,0.6-0.2,0.7-0.2,0.8c0,0-0.1,0.1-0.1,0.2c0,0.1,0,0.3,0.1,0.4
			c0.2-0.1,0.4-0.2,0.5-0.4c0.1-0.1,0.2-0.1,0.2,0c0.1,0.1,0,0.4,0.1,0.5c0.8,0.7,0,1.2,0,1.2c-0.1-0.2,0-0.5-0.2-0.6
			c-0.1,0.3,0.1,0.7,0,1c0,0-0.1-0.5-1.4-2c0-0.3-0.1-0.7-0.1-0.9c0,0,0-0.1-0.1,0c-0.1,0-0.1,0.1-0.1,0.1c-0.2-0.4-0.3-0.9-0.6-1.3
			l-0.1,0.1c0.2,0.6,0.5,1.2,0.7,1.8h-0.1l-0.5-0.5c0,0-0.1,0-0.1,0c0.1,0.3,0.5,0.6,0.8,0.9l1.1,1.4c-0.2-0.1-0.4-0.2-0.7-0.2
			c0,0,0,0.1,0,0.1c0.8,0.4,1.4,1.2,1.6,1.9c-0.1,0.1-0.2-0.1-0.3,0c0,0.2,0.5,0.5,0.9,0.6v-0.2c-0.3-0.6-0.8-1.2-0.7-1.9
			c0.1,0.1,0.3,0.8,0.6,0.1c0.2,0,0.1,0.5,0.2,0.6c0.3,0.3,0.4,0.3,0.3,0.7c-0.1,0.2-0.2,0.3-0.1,0.7c0.1,0.3,0.7,0.2,0.5,0.6
			c0,0.1-0.1,0.3-0.1,0.4c0.2,0.1,0.3,0.3,0.5,0.4c0.2-0.2-0.1-0.5-0.1-0.7c0.2-0.3,0-0.6-0.1-0.9c-0.2-0.1,0-0.3,0-0.5c0,0,0,0,0,0
			c-0.1,0.4,0.7,0.4,0.3,0.8c0.1,0.4,0.4,0.8,0.3,1.2c0.1,0.2,0.2,0,0.3-0.1c0.2-0.2,0.4-0.6,0.2-0.8c-0.1,0-0.2-0.2-0.3-0.2
			c0-0.3-0.2-0.4-0.2-0.7c0.1,0,0.2,0,0.2-0.1c0-0.5-0.7-0.6-0.8-1.1c0-0.3-0.4-0.5-0.5-0.8c0.2-0.1,0.7,0,0.5-0.3
			c-0.5-0.4-1.1-0.9-1.3-1.5c0,0-0.1-0.3,0-0.4c0.2,0,0.3,0,0.3-0.2c0-0.4-0.4-0.6-0.7-0.7c-0.3-0.3-0.3-0.7-0.5-1.1
			c0.2-0.4,0.3-0.8,0.5-1.2c0-0.1-0.5-0.7,0.5-0.4c0.1,0,0.5-0.1,0.5-0.3c0.3,0.1,0.2,1.2,0.5,1.1c0.2,0,0.1-0.3,0.4-0.2
			c0,0,0,0.7,0.5,1.2c0,0.3-0.1,0.6,0,0.9c0,0,0.2,0.2,0.4-0.1c0,1.2,0.3,1.4,0.4,1.4c-0.2,0.3-1,1.5-0.1,1.6c0.2,0,0-0.6,0.2-0.7
			c0.1-0.1,0.4,0.2,0.5,0.8c0,0.5-1,1-0.3,1.6c0-0.1,0.1-0.1,0.1-0.2c0.2,0.1,0.2,0.4,0.2,0.6c-0.5,0.2-0.4,0.7-0.4,1
			c-0.1,0.3-0.8,0.4-0.7,0.8c0,0.4-0.6,0.5-0.7,0.8c0,0-0.9,4.9-1.7,5.4c-0.2,0.2-0.9,1.4-1.5,2c-0.1,0.1-0.3,0-0.5,0.1
			c0,0.1,0,0.3,0,0.3c-0.1,0.2-0.6,1-0.9,1.1c-0.1,0.2-0.2,0.4-0.4,0.7c-0.1,0.3-1,1.2-1,1.8c0,1.1,0.1,1,0.1,1
			c0.3-0.1,0.2-0.5,0.3-0.8c0.6-0.6,1.1-1.2,1.7-1.7c0.1-0.1,0.1-0.2,0.2-0.3c0.3-0.2,0.4-1.3,0.5-1.5c0,0.1,0.2,0,0.3,0
			c0,0.4,0.2,0.9,0,1.2c-0.1,0-0.3,0-0.4,0c0.1,0.1,0.2,0.1,0.2,0.3c-0.1,0.1-0.2,0.3-0.3,0.4c0.1,0.3,0.2,0,0.3,0
			c0.3,0.1,0.4-0.3,0.7,0c0.3-0.4,0.9-0.7,1-1.1c0.3-0.3,0.3-0.6,0.5-0.9c0.1,0,0.1,0,0.1-0.1c0.3-0.3,0.5-0.6,1-0.7
			c0,0,0.1-0.1,0.1-0.2c-0.2-0.2-0.4,0.2-0.7,0.2c0.2-0.6,0.6-1.2,0.7-1.8c0.2-0.5,0.7-0.7,1.2-0.9c0.1-0.1,0.1-0.2,0.1-0.3
			c-0.2,0.3-0.6,0.3-0.9,0.4c-0.1-0.8,1.5-2.1,1.5-2.6c-0.1,0-0.1,0-0.2,0c-0.3,0.3-0.3,0.8-0.8,0.9c0.3-1.6,0.6-2.3,0.6-2.3
			c0,0-0.1-0.1-0.1-0.1c-0.3-0.1-0.6,2.2-0.7,2.1c-0.4-0.2-0.1-0.8-0.4-1.1c-0.1,0-0.1,0.1-0.1,0.1c0,0-0.2,0.4,0.2,1.2
			c-0.1,0.8-0.4,1.6-0.6,2.4L37.8,26c-0.1-0.3-0.1-0.6-0.2-0.8c0-0.3,0-0.5-0.1-0.7c-0.4,0.3-0.1,0.8,0,1.2c0,0.7-0.1,1.3-0.3,1.8
			c-0.1,0.1,0,0.3,0,0.4c-0.1,0.3-0.3,0.6-0.5,0.8c-0.6-0.5,0-1.7,0-1.8c0-0.3-0.3-0.2-0.4-0.5c-0.1-0.2,0.4-0.3,0.2-0.6
			c0-0.2,0.4-0.3,0.3-0.6c-0.2-0.6,0.5-1.3,0.5-1.9c-0.1-0.2,0.3,0.1,0.4-0.1c0-0.3-0.2-0.8,0.1-1c0.1-0.3-0.1-0.6,0.1-0.9
			c0.2-0.2,0.4-0.2,0.5-0.1c0.1,0.2,0,0.6,0.3,0.5c0.2-0.1,0.1-1,0.1-1c0,0,0.2-0.2,0.5-0.2c0.1,0,0.1,0.3,0.5,0.4
			c0.3,0.2,0.8,0.2,0.8,0.3c0,0.3-0.6,0.5-0.2,0.8c0,0,0.4,0,0.4,0.2c0.1,0.3-0.4,0.5-0.3,0.8c0,0.5-0.5,0.6-0.7,0.9
			c0,0.1,0.1,0.2,0.3,0.2c0.1,0,0.2,0,0.2,0.1c0,0.2,0,0.4-0.1,0.6c-0.1,0.1-0.4,0.1-0.4,0.3c-0.1,0.5-0.3,1-0.7,1.3
			c0,0-0.9,0.1-0.5,0.5c0.1,0.1,0.5-0.2,0.5,0c-1,1.5-1.3,1.9-1.3,1.9c-0.3,0.4-1,0.2-1,0.8C36.9,29.8,37.1,30,37,30.1 M37,31.3
			c0.3,0.5,0.3,0.9,0.3,0.9v0.3c0,0.1-0.4,0.1-0.4,0.1c0-0.1,0.2-0.2,0-0.3c-0.1,0-0.3,0.2-0.4,0.1c-0.1-0.1,0.2-0.2,0.2-0.3
			C36.7,32,36,32.5,36,32.4c0-0.2,0.8-0.5,0.6-0.6c-0.1-0.2-0.7,0.4-0.9,0.4h0C35.6,32,36,31.4,37,31.3 M38.3,32.6
			c0,0.3-1.9,0.9-1.9,0.9c-0.1,0,0,0.1-0.1,0.2c0,0.1,0.2,0.1,0.2,0.2c0,0.1-0.2,0.1-0.1,0.2c0.2,0.2-0.1,0.3-0.2,0.3
			c-0.1,0-0.3-0.6-0.4-0.7c0,0-0.1-0.1-0.1-0.2c-0.1-0.1-0.1-0.1,0-0.2c0.4,0,0.8-0.1,1.1-0.1C37,33,38,32.6,38.3,32.6 M30.4,35
			c0-0.3,1.8-0.7,2-0.8c0.4-0.2,0.6-0.4,0.8-0.7c0.2-0.4,0.2-0.7,0.3-0.9c0.2-0.3,0.8-0.7,1.6-0.9c0.1,0,0.5-0.2,0.2,0.3
			c-0.2,0.2-0.2,0.5-0.3,0.8c0,0.1,0.2,0.4,0.4,0.7c0,0.1,0.1,0.2,0.2,0.3c0.2,0.3,0.3,0.6,0.3,0.8c-0.2,0.2-3,1.8-3.6,1.9
			c-0.5,0.1-1.1,0-1.7-0.1c-0.1-0.3-0.2-0.6-0.2-0.6C30.3,35.5,30.3,35.2,30.4,35 M29.3,35.8c0.1-0.2,0.4-0.3,0.6-0.3
			c0.1,0,0.2,0.1,0.2,0.3c0,0.2,0,0.5-0.1,0.6c-0.1,0-0.3,0-0.4-0.1c0,0,0.1-0.3-0.3-0.2C29.2,36,29.2,35.9,29.3,35.8 M38.9,32.6
			c0,0,0.1-0.3,0.8,0c0,0.1,0.1,0.5,0.3,0.9c0,0,0.3,1,0.8,2.3c0.1,0.3-0.1,0.5-0.2,0.7c-1,0.8-4.9,2.8-5.3,3.1
			c-0.6,0.4-1.7,0.6-2.9,0.6c-3,0.1-7.1-0.5-7.7-0.9c0.8-0.9,0.5-1.8,0.5-2c-0.4-0.5-0.8-1.4-1-1.5l0.1-0.1c5.8,1.1,8,1.1,8.1,1
			c0.8,0,4.8-2.3,6.3-3.3c0.6-0.3,0.9-0.6,0.8-0.8C39.2,32.5,39,32.6,38.9,32.6 M29.4,41.5c0.1,0.1,0.3,0.4,0.5,0.7
			c0.2,0.3,0.4,0.6,0.6,0.6c0.1-0.1-0.3-0.4,0.1-0.5c0.5-0.1,0.5,1.1,1.8,0.7c0.3,0.3,1,0.2,1.4,0.3c0,0-0.1,0.2-0.1,0.2
			c-0.9-0.1-1.9,0-2.7,0.4c-0.1,0.1,0,0.3-0.1,0.4c-0.2-0.2,0-0.5,0.1-0.7c0.1-0.2,0.6-0.1,0.3-0.3c0,0-0.2-0.2-1,0.6
			c-0.1-0.1-0.1-0.3-0.2-0.4c-0.6,0.1-0.8-0.6-1.4-0.6c-0.1-0.1,0.1-0.2,0-0.3c-0.3-0.2-0.6-0.3-0.9-0.4c-1-0.3-0.2-0.6-0.5-0.8
			c-1.7-0.5-1.5-0.8-1.5-0.8c0.1-0.3,0.3,0.1,0.5-0.1c-0.1-0.1-0.2-0.1-0.1-0.3c0.2-0.1,0.8,0.4,0.9,0.4c0.2-0.1-0.1-0.3,0.1-0.3
			c0.5-0.1,1.8,1.3,2.2,1.4c0.1-0.1,0-0.1,0-0.2C29.2,41.4,29.3,41.4,29.4,41.5 M24,39.1c-0.3-0.4,0.3-1.4-0.2-1.4
			c-0.1,0,0,0.2,0,0.3c-0.2,0.4-0.2,0.9-0.6,1.2c-0.1,0-0.1-0.1-0.1-0.2c0.1-0.4,0.3-0.8,0.3-1.2c-0.1,0-0.2-0.2-0.2,0.3
			c0,0.3-0.4,0.6-0.4,0.9c0,0.1-0.3,0.3-0.5,0.3c0-0.5,0.3-0.8,0.3-1.3c0.2-0.3,0.2,0.1,0.2,0.1c0.1-0.1,0.1-1.7-0.5-2
			c-0.1,0.1,0.4,0.8,0.2,1.4h-0.2c-0.2-1-0.5-1.5-0.8-1.8c-0.6-0.6-1.2-0.3-1.4-0.3c0.1-0.2,0.3-0.3,0.5-0.3c0.2,0,0.5,0,0.9,0.2
			c0.4,0.1,0.8,0.4,1,0.4c0,0,0.1-0.1,0-0.2c-0.1,0-0.1-0.1-0.1-0.2c0.7-0.3,2.5,2.3,2.1,3.1C24.5,38.8,24.4,39,24,39.1 M4.4,34.6
			C4.4,34.6,4.3,34.7,4.4,34.6C4,35.1,3.8,35.1,3.6,35l-0.1,0l0.2-0.3l0.2-0.3C3.9,34.3,4.1,34,4.1,34c0,0,0.1,0,0.2,0
			C4.5,34.2,4.5,34.4,4.4,34.6 M21.6,39.3c-1.3,0.1-8.8,1.3-9.5,1.3c-0.9,0.1-1.6,0-2.1-0.2c-0.6-0.2-6.7-3.2-7.4-4.3
			c-0.1-0.2-0.2-0.4-0.2-0.4l0.1,0.2l0.4,0.3L3,36.1c-0.3-0.1-0.2-0.3,0-0.6l0.4-0.4c0.1,0,0,0.3,0,0.5l-0.1,0.9l0.5,0.3l0.1-0.1
			c-0.1,0-0.1-0.1-0.1-0.2l0.1-1.2c0.3,0.1,0.6,0,0.8-0.3c0.1-0.1,0.1-0.2,0.1-0.3c0-0.1,0-0.3,0-0.3C4.8,34.2,4.6,34,4.5,34
			l-0.4-0.3l-0.4-0.3l-0.1,0.1c0.2,0.1,0.1,0.3-0.1,0.6l-0.4,0.5l-0.5,0.6c-0.1,0.1-0.2,0.2-0.2,0.3v0.1c0-0.2,0-0.3,0-0.4
			c0.5-0.8,0.7-1.7,0.9-2.5c0.1-0.2,0.3-0.2,0.4-0.2c-0.1,0.1-0.1,0.2,0,0.3c0.1,0.1,1.3,0.8,2.6,1.5c2.3,1.2,5.1,2.7,5.2,2.6
			c0.4,0,2.4-0.3,4.6-0.7c2.1-0.3,4.4-0.6,4.9-0.6c0.2,0,0.4,0.3,0.6,0.6c0.3,0.7,0.6,1.8,0.7,2.3C22.2,39.4,21.6,39.3,21.6,39.3
			 M15.6,42.5c-0.1,0,0,0.1-0.1,0.1c-0.1,0.3-0.5,0.7-0.9,0.8c-0.3,0-0.5-0.2-0.6,0c0,0.3,0.3,0.1,0.4,0.3c0.2,0.5-0.3,0.7-0.4,0.8
			c0.1-0.9-0.9-1-1.3-1.1c0,0-0.9,0.3-0.8,0c0-0.3,0.8-0.5,1.3-0.7c0.1,0,0.1,0,0.2-0.1c0.3-0.7,1.1-0.9,1.8-1.2
			c0.2,0.1,0.7,0.3,1.1-0.3c-0.2-0.2,0.1-0.3,0.2-0.3c0.1,0,0,0.1,0,0.2c0.3,0,0.4-0.3,0.6-0.3c0.1,0,0.1,0.1,0.2,0.1
			c0.1,0.1,0.2-0.1,0.3,0C17.8,41,16.5,42.2,15.6,42.5 M5.3,32.7c0.2,0.2,0.6,0.3,1.1,0.5c0.3,0,0.6,0.1,1,0.1
			c-0.1,0.3-0.4,1-0.5,1.1c-0.2,0-0.4-0.1-0.5-0.2C6.2,34.1,6,34,5.8,33.9c-0.1-0.1,0.2-0.2,0-0.3c0-0.1,0.1-0.1,0.1-0.1
			c0.3,0.1,0.3-0.1,0.2-0.1c-0.6-0.3-1.1-0.5-1.7-0.8C4.7,32.6,5,32.7,5.3,32.7 M6.1,31.3c0.1,0,0.2,0,0.2,0.1
			c0.3,0.1,0.4,0.2,0.6,0.4c0,0.1-0.2-0.1-0.4,0c-0.1,0.1,0.6,0.4,0.5,0.6c0,0-0.4-0.3-0.4-0.2c-0.1,0.2-0.1,0.3-0.2,0.6H6.3
			c-0.2,0-0.4,0-0.7-0.1C5.6,32.2,5.9,31.7,6.1,31.3 M13.8,35.5c0.1,0,0.4,0.2,0.6,0.3c0.2,0.2,0.4,0.3,0.3,0.3
			c0.1,0.1-1,0.3-1.3,0.3c0.1-0.2,0.2-0.4,0.2-0.7C13.7,35.7,13.7,35.7,13.8,35.5 M12.7,34.1c-0.2-0.1-0.3-0.2-0.5-0.3
			c0.1-0.2,0-0.2-0.2-0.2c0,0.2-0.2,0.3-0.4,0.3c-0.1,0-0.3,0-0.3-0.1c0.1,0,0.3,0,0.3-0.2c0-0.1,0-0.3-0.1-0.3
			c-0.2,0.1-0.1,0.3-0.4,0.4c-0.8-0.3-1.9-1.8-2.1-2.1c-0.2-0.2-0.4,0-0.7-0.1c-0.2,0-1.8-1.5-2.2-1.9c-3.2-3-3.3-4.4-3.3-5.8
			c0-0.4-0.1-0.9-0.1-1.3c0-0.1,0-0.3,0-0.4c0.1-0.2,0.6,0.3,0.7,0.4c0.8,0.8,1.7,2.9,2.1,3.9c0.1,0.1,0.1,0.3,0.2,0.4
			c0.1,0.4,0.2,0.7,0.3,1.1c-0.2-0.1-0.3-0.4-0.5-0.6c0-0.1-0.1,0-0.2,0c-0.1-0.1-0.2-0.3-0.3-0.4c-0.8-1.3-1.4-2.7-1.7-4.1
			l-0.1-0.1c-0.2,0,0.1,1.2,0.7,2.4c-0.1,0-0.2-0.2-0.4-0.1c0,0.5,1.2,1.4,1.3,1.9v0.1c0.7,0.9,1.2,1.8,1.8,2.7
			c0.2,0.3,0.6,0.5,0.7,0.8c0.1,0.1,0.3,0,0.3,0.2c0.2,0.3,0.3,0.5,0.6,0.6c0.2,0,0.3,0.1,0.3-0.1c0-0.2-0.1-0.3-0.1-0.5
			C8.7,30.9,8.9,31,9,31l0.4-0.1c0.1,0.2-0.1,0.4-0.1,0.6c0.4,0.4,1.4,1.7,1.5,1.5c0.3-0.3,0.5,0.4,0.7,0c0.1-0.2,0-0.3-0.2-0.4
			c-0.6,0.2-0.6-0.6-0.9-0.8c-0.3-0.6-0.4-1.2-0.9-1.7c-0.5-0.6-0.9-1.3-1.5-1.8c-0.1-0.1,0-0.3,0.2-0.3c0.3,0,0.2,0.6,0.6,0.6
			c0.2,0,0.1-0.5,0.3-0.6c-0.1,0.6,0.5,1.9,1.4,2.4c0.1,0.1,0.2,0.2,0.2,0.3c0,0.1-0.1,0-0.2,0c-0.1,0.2,0.2,0.3,0.2,0.4
			c0,0.9,2.8,3.7,5,4c0.1,0.1,0.1,0.1,0.2,0.2c0.2,0.1,0.5,0.1,0.4,0.4c0.1,0,0.2,0.1,0.2,0.3c-0.3,0.1-0.5,0.1-0.7,0
			c-0.3,0-0.5-0.1-0.7-0.2C15.1,35.7,12.9,34.2,12.7,34.1 M6,26.2c0.1,0,0.3,0.3,0.5,0.6c0.1,0.2,0.2,0.4,0.3,0.6l0,0.6H6.7
			c-0.1-0.4-0.3-0.8-0.4-1.2C6.2,26.6,6.1,26.4,6,26.2 M5.6,17.8c0,0.4,0.1,0.8-0.2,1.2c-0.2,0.3,0,0.7-0.3,1c0-0.6,0.1-1.5,0.3-2.2
			c0,0,0.1-0.3,0.8-2.2c0.3,0.5-0.2,1.6-0.4,1.7C5.7,17.5,5.6,17.6,5.6,17.8 M5,22c-0.4,0.1-0.7-0.7-0.7-0.7
			c-0.9-2.7-1.1-6.1,0.7-8.5c0,0,0.9-1.7,1.6-2.3c0.1,0,0.1,0.1,0.1,0.2c0.1,0.6-0.2,2-0.3,2.1c-0.2,0.8-1.1,4.2-1.4,5
			c-0.1,0.4-0.2,0.7-0.2,1.1c-0.2-0.2,0-0.4,0-0.6c-0.1-1.2,1-4.9,1.1-5.5c0.2-0.5,0.4-1,0.5-1.6l-0.1,0.1c-0.1,0.5-0.4,1-0.6,1.5
			c-0.7,1.7-1.4,3.5-1.3,5.4c-0.3,1-0.2,2.2,0.2,3.1c0.9,0.8,0.5-0.5,0.7-0.9c0-0.3,0.4-0.6,0.3-1c0.1-0.6,0.2-1,0.5-1.5
			c-0.1,0-0.1-0.1-0.2-0.2c0-0.1,0-0.2,0-0.3C6.3,17.2,6.5,16,6.8,16c0-0.1,0.1-0.3,0-0.4c-0.1,0-0.3,0.1-0.4-0.1
			c0.1-0.5,0-1,0.5-1.3c0,0,0-0.3,0.7-0.9c0,0.3-1.1,1.5-0.9,2c0,0.1,0.1,0,0.2,0c0.2-0.1,0.2-0.5,0.5-0.4c0,0.3-0.6,0.5-0.1,0.7
			c0.8-0.4,1-1.2,1-1.2c0.2-0.7,0.6-1.2,1-1.6c1-1.5,2.2-2.2,3-2.7c0.1-0.1,0.3-0.1,0.3,0.1c0,0.1-0.1,0.5-0.3,0.2
			c-0.6,0.4-1.7,1.8-2.3,2.4c0,0-0.3,0.1-1.8,2.3c-0.2,0.3-0.6,0.7-1,0.9c-0.1,0-0.2-0.1-0.2,0c0,0.1-0.7,1.7-1.2,3.2
			c-0.2,0.8-0.4,1.5-0.5,2.1c0,0.2-0.1,0.3,0.1,0.5c0.5-0.3,0.6-0.8,0.9-1.2c0.1,0,0.1,0,0.1,0C6.4,21,6.3,22,5.6,21.9
			c0,0.1,0,0.3,0,0.5c0,0.5,0.1,1.1,0.4,1.5C6,24,6.4,25.9,7,26.5c0.1,0.1,0.1,0.2,0,0.3c0,0,0,0.1-0.1,0.1
			c-0.1-0.1-0.2-0.1-0.2-0.2c-0.3-0.3-0.5-0.8-0.7-1.2c0-0.1,0.1-0.2,0.1-0.3C5.9,25,5.8,25,5.7,24.8c-0.1-0.2,0.3-0.1,0.2-0.3
			c-0.1-0.2-0.6,0-0.6-0.3c0-0.6-0.1-1.2-0.3-1.8C5.1,22.3,5,22.1,5,22 M9.4,8.4C10.1,7.6,10.6,7.2,11,7c0,0,0.3-0.2,0.5-0.2V7
			c0,0.4-0.2,0.9-0.4,1.4c-0.7,1.6-2.2,3.5-3,4.5c-0.2,0.2-0.3,0.3-0.4,0.4c0-0.1,0.1-0.3,0.1-0.4c0.3-1.1,1.7-3.2,2.6-4.5
			c0.1-0.2,0.3-0.4,0.5-0.6c0.2-0.3,0.5-0.6,0.3-0.7c-0.2,0-0.4,0.3-0.5,0.5c-0.2,0.2-0.5,0.5-0.7,0.8c-1,1.3-2.1,3.4-2.6,4.4
			c-0.1,0.2-0.1,0.4-0.2,0.5c-0.1,0.2-0.2,0.3-0.3,0.5c0.1-0.3,0.2-0.6,0.3-0.9C7.9,10.7,8.7,9.3,9.4,8.4 M13.3,7
			c2.1-1.8,5-2.4,5.2-2.3v0.1c-0.7,0.7-1.5,1.4-2.4,1.9c-0.2,0.1-0.4,0.3-0.6,0.3c-0.6,0.3-1.5,0.7-1.7,0.8c0,0-0.1,0-0.1-0.1
			c0,0,0.4-0.3,1-0.7c0.8-0.5,3-1.7,3.1-1.9c-1.2,0.5-2.4,1.2-3.5,1.9c-0.2,0.2-0.5,0.3-0.8,0.5c0,0,0-0.1-0.1-0.1
			c-0.1,0-0.7,0.6-1.1,1c-0.1,0.2-0.3,0.3-0.4,0.4c0-0.1,0.1-0.3,0.2-0.4C12.1,8.3,12.6,7.5,13.3,7 M11.8,9.2c0-0.2,0.4-0.5,0.8-0.8
			C13,8,13.3,7.8,13.4,7.9c0,0.1-0.1,0.3-0.4,0.5c-0.2,0.2-0.6,0.4-0.7,0.5C12.3,9,11.8,9.3,11.8,9.2 M12.2,9.8
			c-0.1,0-0.9,0.6-0.9,0.5C11.3,10.1,12.5,9.4,12.2,9.8 M11.1,10.4C10.4,11,9.5,12,8.9,12.8c0,0-0.6,0.8-1.1,1.5c0,0,0,0-0.1-0.1
			c0-0.1,0.4-0.7,1-1.4c0.9-1.2,2.2-2.8,2.4-3.2c0.1-0.1,0.3-0.1,0.4-0.2c-0.1,0.3-0.4,0.6-0.7,0.9C11,10.3,11,10.3,11.1,10.4
			 M19.3,6.1c-0.1,0.3-0.8,0.8-0.9,0.9c-0.5,0.4-1.5,1-2.3,1.4C15.4,8.7,14.9,9,14.7,9c-0.1,0-0.6-0.1,0.2-0.6c0,0,0.1,0,0.2-0.1
			c0.5-0.2,1.7-0.9,2.6-1.4c0.5-0.3,1-0.5,1.2-0.6c0,0,0-0.1,0-0.1c-0.4,0.1-1,0.4-1.7,0.7c-0.9,0.4-1.8,0.9-2.7,1.4
			c-0.8,0.4-1.4,0.8-1.8,1.1c0,0-0.1,0.1-0.1,0.1c0,0.1-0.2,0.1-0.3,0c0.1-0.2,0.3-0.2,0.5-0.3C13,9,13.4,8.7,13.8,8.4
			c0.8-0.6,1.7-1.1,2.4-1.4C16.7,6.8,19.2,5.7,19.3,6.1 M13.1,9.7c0-0.1,0-0.2,0.1-0.3c0.3-0.4,0.9-0.7,0.8-0.3
			c0,0.1-0.1,0.2-0.3,0.2C13.5,9.6,13.2,9.7,13.1,9.7 M11.2,20.5L11.2,20.5l4.3,1.5l1.4,0.5c0.1,0,0.1,0.1,0.1,0.2l-1.4,2.1
			l-1.7,2.5c0,0,0,0-0.1,0c-1.2-1.5-2-3.2-2.3-4.9C11.3,21.8,11.2,21.2,11.2,20.5 M8.5,27.1c0.1-0.1,0.2-0.2,0.2-0.3
			c0.1-0.1,0.2-0.2,0.3-0.3c0,0.1,0,0.2,0,0.3c0,0.3-0.1,0.5-0.2,0.9C8.6,27.9,8.3,27.3,8.5,27.1 M8.1,26.8c0,0,0.1-0.3,0.1-0.8
			l0.5-0.9c0.7,0.1-0.2,1.5-0.4,1.7C8.2,26.9,8.1,27,8.1,27C8,27,8,26.9,8.1,26.8 M7.3,26.8C7.5,26,7.8,25.2,8,24.9
			c-0.1-0.3,0.7-1.5,1-1.8l0,0c0.1,1.4-1,2.3-1.3,3.5v0.1c-0.1,0.7-0.5,1.5-0.2,2.2c0.1,0.2,0.5,0.2,0.7-0.1
			c0.3,0.4,0.1,0.9,0.2,1.4l-0.1,0c-0.3,0-0.3-0.8-0.4-0.9c-0.1,0-0.1,0.2-0.4,0C7,28.9,7,27.8,7.3,26.8 M7.7,24.4
			c0,0.2,0,0.4-0.2,0.4c-0.1,0-0.2,0-0.2-0.1C7.2,24.3,7.7,24.3,7.7,24.4 M8.4,19.1l-0.1,0.7l-1,0.2l0,1.8c0,0-0.3-0.1-0.5-0.1
			c-0.1-0.6,0-0.9,0-0.9c0.1-0.4,0.5-0.8,1-1.2c0.2-0.1,0.3-0.3,0.5-0.6c0.1-0.1,0.2-0.3,0.3-0.4L8.4,19.1z M10.7,12.9
			c-0.2,0.4-0.7,0.9-1.2,1c0.3-0.5,0.8-1,0.8-1c0.6-0.7,1.3-1.6,1.8-2.1l0.1-0.1C12.5,11,11.7,12.3,10.7,12.9 M12,12.8L11.7,13
			c0,0,0-0.1,0-0.2c0.1-0.3,0.6-0.6,0.7-0.8l0.1,0.3L12,12.8z M6.9,19.1c0.1-2.1,3.8-6,4.5-6c0.6,0-1.3,3.7-2.6,4.7
			c-0.4,0.5-0.9,0.9-1.3,1.4c0,0.1-0.1,0.3-0.2,0.4c0,0-0.1,0.1-0.2,0.1c0-0.1,0-0.3,0.2-0.5c0.6-1.4,3-4.3,3.8-5.4
			c0,0,0.1-0.2-0.1-0.1c0,0-1.6,1.3-3.9,5.5l-0.3,0.6l-0.1,0.1C6.7,19.6,6.7,19.3,6.9,19.1 M6.2,19.1c0.3-1.7,1.2-3,1.6-3.1
			c0,0.3-0.2,0.5-0.4,0.7c-0.3,0.8-0.6,1.6-0.9,2.4c-0.1,0.4-0.2,0.9-0.3,1.3l0,0C6.1,19.9,6.2,19.5,6.2,19.1 M6,22.5
			c0.2,0,0.2,0,0.3-0.1c0.1-0.1,0.1-0.2,0.1-0.3c0.4,0,1,0,1.2,0.2v0c0.2,0.4,0.2,0.7,0.2,1.1c0.1,0.4-1.1,0.6-1.1,0.9
			c0,0.5,0.4,0.9,0.2,1.4c-0.1-0.5-0.6-1-0.6-1.5C6,23.4,6,22.8,6,22.5 M10.5,22.4c0.1-0.3,0.1-0.6,0-0.7l0-0.1c0,0-0.1,0.3-0.2,0.8
			c-0.2,1.4-0.3,4.3-0.2,5.8c0,0.2,0,0.9,0,0.9H9.9c-0.2-0.3-0.1-0.6-0.2-0.9c-0.1-0.4-0.2-0.9-0.3-1.4v-0.3
			c-0.4-0.6-0.1-2.7,0.4-4.1c0.2-0.7,0.5-1.2,0.7-1.2c0.3,0,0.5,0.6,0.6,1.2c0.2,1.1,0,2.7-0.3,3c-0.1,0.5-0.1,1.1-0.2,1.6
			c0,0.2,0.1,0.3-0.1,0.3c-0.1,0-0.1-0.2,0-0.3C10,26.7,10.4,23.8,10.5,22.4 M18.9,35.5c0,0,0,0.1-0.1,0.2c0,0-0.1,0-1-0.1
			c-0.4-0.1-1.1-0.6-1.3-0.5c-0.1,0-0.2,0-0.3-0.1c-0.6-0.2-1.4-0.7-1.6-0.9c-0.1,0,0.2-0.6,1.1-0.5c0.2,0,0.5,0.1,0.5,0.1
			C16.7,34,18.1,34.5,18.9,35.5 M29,33.1c-0.4,0-2.1,0.6-3.1,1c-0.4,0.1-0.7,0.3-0.8,0.3c-0.6,0.2-0.6,0.6-1.1,0.9
			c-0.4,0-0.7,0.1-1-0.2c-0.2-0.3-1-0.2-1.1-0.1c-0.2,0.1-0.3,0-0.5,0c-0.1-0.1-0.3-0.2-0.5-0.2c-0.4,0-1,0-1.2,0.4
			c-0.2,0.1-0.8,0.2-1.1-0.3c-0.6-0.7-1.8-1.2-2.6-1.5c-0.3-0.1-0.6-0.2-0.7-0.2c-0.3,0-0.8,0-1.2,0.7c-2.5-1.3-2.8-3.3-2.8-3.3
			c-0.6-1-0.6-1.1-0.6-1.1l1-0.3l0.9,0.8l-0.4,0.8l2,1.3l0.8-0.6L16,32l0,0.9l2.4,0.7l0.5-0.8l1.2,0.2l0.2,0.9l2.5,0l0.2-0.9
			l1.2-0.2l0.5,0.8l2.4-0.7l0-0.9l1-0.5l0.8,0.6l2-1.3l-0.4-0.8l0.9-0.8l0.8,0.3c0,0,0.2,0.1-0.7,1c0,0-0.4,1.8-1.9,3.3
			C29.4,33.5,29.3,33.1,29,33.1 M24.6,35.4c0-0.3,0.3-0.5,0.5-0.6c0.2-0.1,1-0.4,1.7-0.7c0.7-0.2,2.3-1.1,2.4-0.3
			c0,0.1,0,0.3-0.1,0.3H29c-0.4,0-0.8,0.3-1.3,0.2c-0.3,0.1-1.5,1.1-2,1.2c-0.2,0.1-0.5,0.1-0.4-0.1C25.3,35,24.7,35.4,24.6,35.4
			 M36,20.9c0,0.1,0,0.6-0.3,0.6v-1.5c0,0,0.5,0,0.2,0.4C36,20.7,36,20.9,36,20.9 M34.1,26c0-0.3,0-0.5,0.2-0.7c0-0.1,0-0.1-0.1-0.2
			c-0.1,0-0.3,0.5-0.3,0.6c-0.2-0.3,0-0.7-0.2-1l0-0.5c0.1-0.7,0.2-1.4-0.2-1.9c0-0.2-0.2-0.9-0.2-1.1c-0.1,0-0.1,0-0.1,0.1
			c0,0.2,0.2,1,0.2,1.2c-0.2-0.1-0.5-0.2-0.7-0.1c-0.1-0.2-0.2-0.4-0.2-0.6l-0.1-0.5c0.3-0.2,0.4-0.4,0.7-0.6c0.2,0,0.3,0.3,0.5,0.2
			c0.1,0,0.3-0.2,0.3,0c0.1,0.3-0.1,0.6-0.1,0.9c0,0,0,0.1,0,0.1l0.3-0.1c0.1,0.1,0.1,0.2,0.1,0.3c-0.2,0.5,0.5,1,0.1,1.3
			c-0.4,0.3-0.2,0.8-0.2,0.9c0.3,0,0.4-0.5,0.7-0.3c0.1,0.1,0.5,1.5-0.1,1.8c-0.4,0.3-0.2,0.8-0.6,1.1C33.9,26.7,34.1,26.1,34.1,26
			 M33.4,23.4c0.1,0,0,0.4,0,0.8c-0.1,0.1-0.1,0.2-0.1,0.2c-0.1,0-0.1-0.1-0.1-0.2C33.2,24.1,33.2,23.4,33.4,23.4 M31.7,21.8
			c-0.2,1.9-1.1,3.7-2.3,5.3c0,0,0,0-0.1,0l-3.2-4.6c0,0,0-0.1,0-0.2l3.6-1.3l2-0.7v0.1C31.8,20.8,31.8,21.3,31.7,21.8 M32.4,23.6
			c0-0.1,0.2-0.1,0.1-0.2c-0.1-0.1,0-0.2-0.4-0.3c-0.3-0.1-0.2-0.5-0.1-0.6c0.1,0.1,0.3,0.2,0.5,0.1c0.3-0.1,0.5,0.3,0.4,0.4
			c-0.2,0.3,0.1,0.6-0.2,0.8c0,0.1,0,0.3,0,0.4c0.1,0.3,0.1,0.6-0.1,0.7c-0.3-0.2,0.1-0.5-0.2-0.7v0C32.3,24,32.4,23.7,32.4,23.6
			 M33.7,26.6c0,0.1,0,0.2,0,0.3c-0.5-0.2-0.4-0.5-0.9-0.5c-0.1,0-0.1,0.1,0,0.1c0.4,0.1,0.8,0.5,0.9,0.9c-0.1,0.1-0.2,0.2-0.4,0.2
			c-0.3-0.6-1-0.4-1-0.6c0-0.3,0-0.6,0.1-0.9c0.1-0.6,0.9-0.9,1-1.2c0.2,0.2,0.2,1.1,0.2,1.3C33.5,26.2,33.5,26.4,33.7,26.6
			 M36.5,22.6c-0.1,0.1-0.5-0.1-0.7-0.1c-0.5,0.4-0.3,0.9-0.2,1.3c-0.2-0.1-0.6-0.3-0.7-0.4c-0.1-0.4,0.1-0.9,0.3-1.2
			c0.2-0.3,1.4,0.3,1.2-1.3v-0.1c0,0,0.1,0.1,0.1,0.1C36.9,21.4,36.6,22.1,36.5,22.6 M14.1,10.8l0.7,0.5l1.7-0.8l0-0.8L18,9.3
			l0.5,0.7l1.9-0.3l0.2-0.8l1.6,0l0.2,0.8l1.9,0.3L25,9.3l1.5,0.5l0,0.8l1.7,0.8l0.7-0.5l1.3,0.9l-0.4,0.8l1.1,0.9
			c0.2,0.8,0.4,1.3,0.4,1.3s0.3,0.8,1,0.7l-0.4,0.3c0.9,2.4,2.1,3,2.1,3l0.2,1.4l0.9,0.2l0,1.5c0,0-0.5,0.4-0.6,1.5
			c-0.3-1.2-0.4-1.4-0.4-1.4c-0.2-1.8-1.3-1.5-1.8-1.3c0,0-0.1,0.1-0.2,0.3l0-0.5c0-0.1,0-0.2-0.1-0.3c-0.1-0.2-0.4-0.2-0.6-0.1
			L28.7,21L26,22c0,0-0.1,0-0.2,0.1c-0.2,0.2-0.2,0.4,0,0.6l3.2,4.6c0.1,0.1,0.2,0.2,0.4,0.2c0.2,0,0.3-0.1,0.4-0.2
			c1.1-1.3,1.8-2.7,2.2-4.2c0,0.1,0.3,0.3,0.2,1.1c0.1,0.3,0.4,0.8,0,1.3c0,0.1-0.1,0.3-0.1,0.6c-0.1,0.3-0.1,0.7-0.2,0.8
			c-0.1,0.4,1.2,0.6,1.3,0.9l-0.9,1.1l-0.9-0.3l-1.4,1.2l0.4,0.8l-1.3,0.9l-0.7-0.5l-1.7,0.8l0.1,0.8L25,33l-0.5-0.7l-1.9,0.3
			l-0.2,0.8l-1.6,0l-0.2-0.8l-1.9-0.3L18.1,33l-1.5-0.5l0-0.8l-1.7-0.8l-0.7,0.5l-1.3-0.8l0.3-0.8l-1.3-1.2l-0.9,0.3l-0.4-0.5
			c0.3-0.6,0.8-4,0.7-4.7c0.4,1.4,1.2,2.7,2.1,3.8c0,0.1,0.1,0.1,0.3,0.2c0.2,0,0.4,0,0.5-0.2l1.4-2l1.7-2.6c0.1,0,0.1-0.1,0.1-0.2
			c0.1-0.3-0.1-0.5-0.3-0.6l-1.5-0.6l-4.1-1.5c-0.1,0-0.3,0-0.4,0.1c-0.1,0-0.2,0.2-0.2,0.3v0.6c-0.1-0.2-0.5-0.3-0.7,0
			c-0.2,0.2-0.5,0.9-0.8,1.3C9.1,22.7,9,23,8.9,22.9l-0.1-0.5l-0.1-0.3l-0.9-0.2v-1.5l0.9-0.2l0.2-1.1L9,18.5l-0.3-0.2
			c0.2-0.3,2.7-2.6,2.8-4.5l1.2-1.1l0.4-0.3l-0.3-0.8L14.1,10.8z M30.8,9.5c-0.1-0.1-0.2-0.2-0.2-0.3c-0.1-0.2-0.3-0.4-0.2-0.6
			c0.5-0.2-0.1-0.7,0.2-1c1.1-0.9,1.3-0.5,1.3-0.5c0.1,0.3,0.3,0.5,0.4,0.7c0.1,0.2,0.5-0.3,0.5-0.3c0.1,0.2,0.2,0.3,0.3,0.6
			c0.1,0.2,0.5,0.2,0.5,0.5c-0.1,0.3-0.4,0.3-0.1,0.6c0.1,0.1,0.1,0.3,0.4,0.3c0.2-0.1,0-0.6,0.4-0.5c0,0.1,0.1,0.2,0.1,0.3
			c0.1,0.2,0.2,0.3,0.5,0.5c0.4,0.2-0.3,0.7-0.2,1c0.2,0.3,0,0.8-0.2,1.1c-0.3,0.2-0.4-0.7-0.2-1.2c0,0,0-0.1-0.1-0.1
			c-0.2,0.1-0.1,0.4-0.3,0.6c-0.8-1.5-1.1-2.3-1.1-2.3c-0.2,0.1,0,0.3,0,0.5c-0.5-0.5-1-1.1-1.6-1.5c0-0.1,0,0-0.1,0
			c-0.2,0,0.6,0.8,1.1,1.4c-0.2,0-0.4-0.1-0.6,0c0.1,0.2,0.4,0.1,0.5,0.2c0.6,0.3,1,0.9,1.4,1.4v0.2c-0.2,0-0.5-0.3-0.7-0.1
			c0.1,0.2,0.3,0.2,0.5,0.3c0.5,0.3,0.9,0.8,1,1.3c-0.1,0.1-0.2,0.1-0.3,0.1c-0.2-0.3-0.5-0.3-0.6-0.6c-0.2-0.2-0.4-0.5-0.7-0.5
			c-0.1,0.1-0.4,0.2-0.5,0c-0.5-0.3,0-0.9-0.6-1.1C31.1,10,30.8,9.9,30.8,9.5 M31.2,11c-0.3-0.4-0.9-0.6-1.1-1.1
			c-0.1-0.6-0.6-0.5-0.9-0.6c0,0-0.1-0.1-0.1-0.1c-0.2-0.2-0.3-0.4-0.5-0.6c0.1-0.2,0.3-0.3,0.2-0.6c-0.4-0.3-0.3-1.4,0.8-1.2
			c0.3,0,0.5-0.2,0.8-0.1c0.1,0.1,0.7,0.3,0,0.7c-0.1,0-0.2-0.2-0.3,0c0.1,0.2,0.1,0.3-0.1,0.5c-0.3-0.2-0.6-0.5-1-0.6
			c0,0-0.1,0.1,0,0.1C29.3,7.7,30,7.8,30,8.3c-0.1,0.2-0.5-0.1-0.4,0.2c0.1,0.1,0.2,0,0.3,0.1c0,0.3,0.1,0.5,0.2,0.7
			c0.1,0.3,0.3,0.5,0.6,0.7c0.2,0.4,0.7,0.7,0.7,1.2C31.2,11.2,31.3,11.1,31.2,11 M27,6.4c-0.8-0.1-1.5-0.7-1.7-0.8l-0.1,0.3
			c-0.5-0.1-1.5-0.8-1.5-0.4c0,0.2,1.2,0.5,1.5,0.8c0.1,0,0.3-0.1,0.4,0c0,0.2-0.5,0-0.3,0.3c0.6,0,1.2,0.1,1.8,0.2
			c0.3,0.1-0.4,0.4-0.4,0.5c0,0.1,0.3,0,0.4-0.1c0.5-0.3,0.4,0,0.8-0.1c0.2,0,0.3,0,0.4,0.1c-0.1,0.3,0,0.6,0,1
			c-0.8,0-0.4-0.5-0.7-0.4c-0.3,0.1-0.6,0.1-1,0.2c-0.2-0.5-0.8-0.1-1.1-0.4c-0.2-0.4,0.4-0.1,0.4-0.3c-0.1-0.5-1.3-0.3-1.4-0.4
			c-0.2-0.3-0.2-0.7-0.7-0.7c-0.1,0-0.3-0.1-0.4-0.2C23.1,5.7,23.3,5,23.7,5c0.2,0,0.5,0.5,0.7,0c0-0.1,0-0.3,0.2-0.4
			c0.5-0.1,0.6,0.6,1.1,0.4C26,5,26,5.5,26.3,5.4c0.2-0.2,0.3-0.3,0.5-0.2c0.3,0,0.4,0.3,0.6,0.4c0.2,0.2,0.6,0.1,0.8,0.3
			c0.1,0,0.2,0.1,0.1,0.3c0.2,0.3,0.8-0.3,0.7,0.3c-0.3,0.1-0.2,0.4-0.8,0.3c-0.5,0-1-0.6-1.3-0.9C26.7,6,27,6.3,27,6.4 M38,29.4
			c0.3-0.3,1.9-2,1.8-2.9c0.2-0.1,1.4-1.1,1.2-3c0.2-0.3,0.4-0.6,0.5-0.9c0.2-0.4,0-0.7,0-1.1c0-0.3-0.2-0.4-0.4-0.5
			c-0.3,0-1.4-1.2-2.1-0.6c0.9-1.6,1.1-2.2,1.1-2.2c0.1-0.6-0.2-0.9-0.4-1.2c0.2-0.6-0.2-1.6-0.4-2.2c0-0.1,0-0.2,0-0.3
			c-0.6-0.5-0.1-1.2-0.6-1.8c0-0.2-0.8-1.4-1.2-1.7c-0.2-0.2-0.5-0.4-0.7-0.6c0-0.3-0.4-0.3-0.7-0.3c-0.6-0.1-0.9-0.6-1-0.6
			c-0.7-0.8-1.7-1.8-2.3-2.2c-0.4-0.3-0.9-0.5-1.7-0.6C30.1,6,29.4,6,29.3,5.9c-0.3-0.1-2.4-1.5-4-1.6c-2.6-0.2-2.5,1.2-2.5,1.6
			c0.7,1.2,1.5,1.3,1.5,1.3c0.5,0.1,0.9,0.6,1.4,0.8c0.5,0.2,2.1,0.7,2.3,0.8c0.3,0.1,0.4,0.3,0.5,0.5c0.2,0.3,0.3,0.5,0.7,0.5
			c0,0,0.2,0,1.9,1.7c-0.3,0.4-0.1,0.5-0.1,0.5s0.3,0.1,0.3,1.1h-0.1l-0.9-0.8l0.4-0.8l-2-1.3l-0.8,0.6L27,10.3l0-0.9l-2.3-0.7
			l-0.6,0.8l-1.2-0.2l-0.2-0.9l-2.5,0L20,9.3l-1.2,0.2l-0.5-0.8l-2.4,0.7l0.1,0.9l-1,0.5l-0.8-0.6L12.9,11c0,0,0.2-0.4,0.3-0.7
			C13,10,13.4,9.8,13.6,9.8c0.4,0,0.8-0.2,1.1-0.4c0.1-0.1,1.8-0.7,2.4-1.1c0.3-0.2,0.7-0.4,0.9-0.5c0.5-0.2,0.9-0.5,1.2-0.9
			c0.3-0.3,0.5-0.6,0.7-0.9c0-0.1,0-0.3-0.1-0.3c-0.6-0.1-1.1,0.2-1.7,0.2l-0.1-0.1c0.3-0.4,1.1-1.2,1.1-1.4c-0.2-0.3-0.6-0.1-1-0.1
			C14.9,4.8,12.8,7,12.8,7c-0.4,0.3-0.8,0.7-0.9,0.9c0,0-0.2,0.1-0.2,0c0.1-0.4,0.1-0.7,0.1-0.9c0,0,0-0.4-0.1-0.5
			c-0.2-0.3-0.9,0.1-1.4,0.5C10,7.2,9.2,8,9,8.4C8.3,9.1,7.8,10,7.4,10.9c0,0.1,0,0.3-0.3,0.4c0-0.3,0-0.8-0.2-1
			c-0.2-0.2-0.6-0.1-0.8,0.1c-0.3,0.4-1,1.2-1.7,2.5c-0.6,1.2-1.3,2.9-1.3,4.9c0,2.3,1.5,4.6,1.5,4.7c0.1,0.1,0.1,0.3,0,0.4
			c-0.1-0.2-0.2-0.3-0.3-0.4c0,0-0.7-0.8-1.3-1.1c-0.3,0-0.4,0.2-0.5,0.4c0,0.2-0.1,0.4-0.1,0.7c0,1.6,0.4,4.1,1.2,4.8
			C4,28.1,7,31.1,8.2,31.7c1.1,0.5,1.5,1.5,2.4,2.3c0.2,0.1,0.9,0.5,1.8,0.6c0.2,0.1,0.9,0.2,1.1,0.7c-0.1,0.2-0.1,0.3-0.1,0.5
			c-0.1,0.3-0.2,0.5-0.4,0.8c-1,0.2-1.5,0.2-2.1-0.1c-0.9-0.5-1.9-1-2.8-1.5c-1.3-0.6-0.8-0.7-0.6-1c0.2-0.5,0.6-1,0.5-1.6
			c-0.1-0.6-1.4-1.3-1.5-1.5c-0.3-0.1-0.5-0.2-0.6,0c-0.1,0.5-0.3,0.9-0.5,1.4c-1.1-0.6-2-0.4-2.4,0.1c0,0.3-0.8,2.3-1.1,3
			c-0.2,0.4,0.3,1.2,0.7,1.6c0.2,0.3,5.9,4.2,9.3,4.2c0.4,0,2.6-0.5,3.2-0.6c0,0,0.1,0,0.1,0.1c-0.5,0.5-1.5,0.6-1.9,1.3
			c-0.2,0.1-0.5,0.3-0.8,0.4c-0.4,0.2-0.8,0.4-1.3,0.5c-0.4,0.1-1,0.2-1,0.4c0.2,0.7,2.5,1.3,2.8,1.4c0.6,0.2,1.2,0,1.7-0.4
			c0.2-0.2,0.3-0.9,0.9-0.9c0.2-0.2,0.7-0.5,1.2-0.9c0.5-0.4,2.6-1.8,3-1.9c0.3-0.5,1-0.9,1.5-1l0.3,0.2l0.1,0
			c0.6,0,1.3,0.1,1.9-0.1c0.6,0.6,1.4,1.2,2.2,1.5c0.4,0.2,1.1,0.8,1.2,0.9c0.1,0.2,0.3,0.4,0.5,0.6c0.1,0.1,0.2,0.1,0.3,0l0.8,0.6
			c0.1,0,0.2,0.1,0.3-0.1c0.1,0,0.9,0.7,1.2,0.9c0.3-0.1,0.3,0.3,0.5,0.5c0.1,0.3,2.1,0.2,2.7-0.8c0.2-0.1,0.4,0.1,0.6-0.1
			c0.2-0.2,1.1-0.5,0.6-0.6c-0.4-0.1-0.7-0.4-1.2-0.3c-0.2-0.1-0.3-0.4-0.6-0.5c-0.3,0-1-0.3-1.1-0.3c-1.2-0.5-1.6-1.1-2.1-1.2
			c-0.1-0.1-0.1-0.3,0-0.3c0.2,0,1.6,0.1,2.8,0.1c0.5,0,0.9,0,1.2-0.1c3-0.6,5.9-2.9,6.5-3.2c0.5-0.4,1.2-1.2,1.2-1.5
			c0-0.6-0.6-1.9-0.9-2.6c-0.1-0.1-0.2-1.1-0.7-1.1c-0.5-0.5-1.5,0.2-1.8,0.1c0,0-0.1-0.1-0.1-0.3c-0.1-0.3-0.2-0.7-0.3-1
			c-0.8-0.3-0.3-0.4-0.1-0.6C37.8,30.3,37.4,29.6,38,29.4"/>
		<path style="fill-rule:evenodd;clip-rule:evenodd;fill:#FFFFFF;" d="M38.1,19.5c0.4-0.1,0.2-1.4,0.3-1.8c0.1-0.2,0.2-0.4,0.1-0.5
			c-0.2,0-0.2,0.4-0.3,0.4c0-0.3-0.2-0.6-0.3-1c-0.2-0.6,0.4-1.8,0-2c0,1-0.2,1-0.2,1c-0.3-0.8-0.8-2.5-0.7-3.3l-0.1,0
			c-0.1,0.1,0,0.3-0.1,0.4c0,0,0,0-0.1,0c-0.1-0.2-0.2-0.4-0.3-0.6c-0.1,0-0.1,0.1-0.1,0.1c0.1,0.3,0.6,1.1,0.4,1.3
			c-0.1-0.2-0.3-0.4-0.4-0.4c0.2,0.6,1.4,2.1,1.1,2.4l-0.4-0.4c-0.2-0.1-0.1,0.1,0,0.1c0.6,0.6,1,1.2,1.1,2l0,0.1
			c-0.1-0.2-0.3-0.3-0.5-0.5h-0.1c0,0.3,0.3,0.5,0.6,0.7C38.3,17.9,38.2,19.1,38.1,19.5"/>
		<path style="fill-rule:evenodd;clip-rule:evenodd;fill:#FFFFFF;" d="M38.6,35.4l0.3,0.3L38.5,36l-0.1-0.6L38.2,35L38.6,35.4z
			 M37.8,34.4l0.3,1l0.3,0.9c0.1,0.3,0.2,0.6,0,0.7l0.1,0.1l0.6-0.4l-0.1-0.1c-0.1,0-0.2,0.1-0.3,0l-0.1-0.5l0.6-0.3l0.4,0.3
			c0.1,0.2,0,0.2-0.1,0.3l0,0.1l0.9-0.5L40.3,36c0,0-0.1,0-0.2,0c-0.1,0-0.2-0.2-0.3-0.2l-0.4-0.3l-1.4-1.1L37.8,34.4z"/>
		<path id="SVGID_x5F_1_x5F_" style="fill-rule:evenodd;clip-rule:evenodd;fill:none;" d="M28.7,37.8c0-0.3,0-0.6-0.3-0.6
			c-0.2,0-0.2,0-0.3,0.3l-0.3,1.5c-0.1,0.3-0.1,0.5,0.2,0.6l-0.1,0.1l-1.1-0.2l0-0.2c0.3,0.1,0.3-0.1,0.4-0.4l0.4-1.5
			c0.1-0.3,0.1-0.3-0.1-0.3c-0.3-0.1-0.5,0.1-0.6,0.5l-0.1,0l0.2-0.7l2,0.4l-0.1,0.7H28.7"/>
		<text>		<textPath  xlink:href="#SVGID_x5F_1_x5F_" startOffset="-177.9297%">
		</textPath>
</text>
		<path style="fill-rule:evenodd;clip-rule:evenodd;fill:#FFFFFF;" d="M29.1,38.7l0.2-0.5l0.2-0.4l0.1,0.6l0,0.4L29.1,38.7z
			 M30.3,39.2l-0.1-0.4l-0.3-1.7h-0.1l-0.5,1l-0.4,0.9c-0.1,0.2-0.2,0.6-0.5,0.6v0.2l0.7,0l0-0.1c-0.1,0-0.3,0-0.2-0.3l0.2-0.4
			l0.7,0.1l0.1,0.5c0,0.2-0.2,0.1-0.3,0.1v0.1l1,0.1v-0.1c0,0-0.1-0.1-0.2-0.1C30.3,39.5,30.3,39.3,30.3,39.2"/>
		<path style="fill-rule:evenodd;clip-rule:evenodd;fill:#FFFFFF;" d="M33.8,39l-0.3-1.3c0-0.3-0.1-0.5,0.2-0.6l0-0.1l-1.1,0.2
			l0.1,0.2c0.3-0.1,0.3,0.1,0.4,0.4l0.3,1.3c0.1,0.3,0.1,0.5-0.2,0.6l0,0.1l1.1-0.2l-0.1-0.2C33.9,39.5,33.8,39.3,33.8,39"/>
		<path id="SVGID_x5F_2_x5F_" style="fill-rule:evenodd;clip-rule:evenodd;fill:none;" d="M32,39.6c-0.4,0-0.3-0.3-0.3-0.6l0-1.2
			c0-0.3,0-0.5,0.3-0.5v-0.1l-1.1,0v0.1c0.3,0,0.3,0.2,0.3,0.5v1.3c0,0.3,0,0.5-0.3,0.5v0.2h1.9l0-0.8h-0.1
			C32.6,39.5,32.4,39.6,32,39.6"/>
		<text>		<textPath  xlink:href="#SVGID_x5F_2_x5F_" startOffset="128.5714%">
		</textPath>
</text>
	</g>
</g>
<text transform="matrix(1 0 0 1 49.1772 14.6436)" style="fill:#FFFFFF; font-family:'EdwardianScriptITC'; font-size:11px;">Presidenza del Consiglio dei Ministri</text>
<rect x="10.2" y="38.9" style="fill:none;" width="18" height="0.5"/>
<text transform="matrix(1 0 0 1 50.667 29.707)"><tspan x="0" y="0" style="fill:#FFFFFF; font-family:'Calibri-Bold'; font-size:15px;">Dipartimento della </tspan><tspan x="0" y="12" style="fill:#FFFFFF; font-family:'Calibri-Bold'; font-size:15px;">Funzione Pubblica</tspan></text>
</svg>
