<?xml version="1.0" encoding="utf-8"?>
<!-- Generator: Adobe Illustrator 21.0.2, SVG Export Plug-In . SVG Version: 6.00 Build 0)  -->
<svg version="1.1" id="Livello_1" xmlns="http://www.w3.org/2000/svg" xmlns:xlink="http://www.w3.org/1999/xlink" x="0px" y="0px"
	 width="405px" height="284px" viewBox="0 0 405 284" style="enable-background:new 0 0 405 284;" xml:space="preserve">
<style type="text/css">
	.st0{opacity:0.3728;}
	.st1{fill:url(#Path-13-Copy-2_2_);}
	.st2{fill:url(#Path-13-Copy_2_);}
	.st3{fill:url(#Path-13-Copy-3_1_);}
	.st4{fill:#C2C8CC;}
	.st5{fill:#D8D8D8;}
	.st6{fill:#F0F0F0;}
	.st7{fill:none;stroke:#8562A3;stroke-width:0.594;stroke-linecap:round;}
	.st8{fill:none;stroke:#8562A3;stroke-width:0.594;stroke-linecap:round;stroke-dasharray:1.0059,1.0059;}
	.st9{fill:none;stroke:#F48C37;stroke-width:0.594;}
	.st10{fill:#FFFFFF;}
	.st11{fill:none;stroke:#348EA9;stroke-width:0.594;}
	.st12{fill:#348EA9;}
	.st13{fill:none;stroke:#8562A3;stroke-width:0.594;stroke-linecap:round;stroke-dasharray:0.481,0.481;}
	.st14{fill:#53BB9B;}
	.st15{opacity:0.3336;}
	.st16{fill:#032B50;}
	.st17{opacity:0.6472;fill:url(#Path-4_2_);enable-background:new    ;}
	.st18{opacity:0.606;fill:url(#Path-3_2_);enable-background:new    ;}
	.st19{fill:#D8D8D8;fill-opacity:0.5;}
	.st20{fill:#DEE1E4;}
	.st21{opacity:0.6472;fill:url(#Path-4_3_);enable-background:new    ;}
	.st22{opacity:0.606;fill:url(#Path-3_3_);enable-background:new    ;}
	.st23{fill:#BEBEBE;}
	.st24{fill:#E9EFED;}
	.st25{fill:#1C7CAF;}
	.st26{fill:#E6E6E3;}
	.st27{fill:#51ABAB;}
	.st28{opacity:0.771;}
	.st29{opacity:0.4487;}
	.st30{fill:url(#path-14_2_);fill-opacity:0.5;}
	.st31{fill:url(#path-11_2_);}
	.st32{fill:#187096;}
	.st33{opacity:0.2797;fill:url(#Combined-Shape-Copy_1_);enable-background:new    ;}
	.st34{fill:#085792;}
	.st35{opacity:0.4622;fill:url(#Fill-2_1_);enable-background:new    ;}
	.st36{opacity:0.9431;fill:url(#Fill-3_5_);enable-background:new    ;}
	.st37{opacity:0.7499;fill:url(#Fill-4_3_);enable-background:new    ;}
	.st38{fill:#8D989E;}
	.st39{fill:#C9DADF;}
	.st40{opacity:0.5378;fill:#DFE8E9;enable-background:new    ;}
	.st41{opacity:0.5378;fill:#ADB6B7;enable-background:new    ;}
	.st42{opacity:0.44;}
	.st43{opacity:0.5;fill:url(#Fill-2-Copy-2_1_);enable-background:new    ;}
	.st44{fill:url(#path-25_2_);}
	.st45{opacity:0.5;fill:url(#Fill-4-Copy-2_1_);enable-background:new    ;}
	.st46{fill:#F6BDA2;}
	.st47{fill:#1972AD;}
	.st48{fill:#469898;}
	.st49{fill:#894340;}
	.st50{fill:#00B1AF;}
	.st51{fill:#D9A78F;}
	.st52{fill:#F7BEA3;}
	.st53{fill:#BC9D00;}
	.st54{fill:#1E87AC;}
	.st55{fill:#434357;}
	.st56{fill:#4F73B1;}
	.st57{fill:#9F43A3;}
	.st58{fill:#D18E00;}
	.st59{opacity:0.3715;fill:url(#Shape_13_);enable-background:new    ;}
	.st60{fill:#A1A5A8;}
	.st61{fill:url(#Shape_14_);}
	.st62{fill:url(#Shape_15_);}
	.st63{fill:url(#Shape_16_);}
	.st64{fill:#DEE9E6;}
	.st65{fill:url(#Shape_17_);}
	.st66{fill:none;stroke:#E0E0E0;stroke-width:0.66;}
	.st67{fill:#1A1E1D;}
	.st68{fill:none;stroke:#CBCCCD;stroke-width:0.834;}
	.st69{fill:url(#mobile-skin-j_1_);}
	.st70{fill:#216C99;}
	.st71{fill:#89BEC8;}
	.st72{fill:#00C9DB;}
	.st73{fill:#783D7A;}
	.st74{fill:#9D5BA0;}
	.st75{opacity:0.9572;fill:#FFFFFF;enable-background:new    ;}
	.st76{opacity:0.2814;fill:#C3C6C8;enable-background:new    ;}
	.st77{opacity:0.7504;}
</style>
<g id="Task-Force-AI">
	<g id="Home-page" transform="translate(-147.000000, -293.000000)">
		<g id="Group-2" transform="translate(147.000000, 293.000000)">
			<g id="report-copy" transform="translate(113.000000, 96.000000)" class="st0">
				
					<linearGradient id="Path-13-Copy-2_2_" gradientUnits="userSpaceOnUse" x1="-2337.4487" y1="7.8019" x2="-2337.2954" y2="8.5093" gradientTransform="matrix(56.2133 0 0 123.9184 131429.75 -964.0156)">
					<stop  offset="0" style="stop-color:#E2E6E8"/>
					<stop  offset="1" style="stop-color:#C2C8CC;stop-opacity:0"/>
				</linearGradient>
				<polygon id="Path-13-Copy-2" class="st1" points="68,31.2 65.6,123.9 11.8,93.3 13.4,0 				"/>
				
					<linearGradient id="Path-13-Copy_2_" gradientUnits="userSpaceOnUse" x1="-2337.3447" y1="7.7795" x2="-2337.3447" y2="8.2343" gradientTransform="matrix(56.2133 0 0 123.9184 131424.3125 -958.6288)">
					<stop  offset="0" style="stop-color:#EEEEEE"/>
					<stop  offset="1" style="stop-color:#D8D8D8;stop-opacity:0"/>
				</linearGradient>
				<polygon id="Path-13-Copy" class="st2" points="62.6,36.6 60.2,129.3 6.3,98.7 7.9,5.4 				"/>
				
					<linearGradient id="Path-13-Copy-3_1_" gradientUnits="userSpaceOnUse" x1="-90.5061" y1="183.728" x2="-79.3521" y2="56.2369" gradientTransform="matrix(1 0 0 -1 113 190)">
					<stop  offset="0" style="stop-color:#E2E6E8"/>
					<stop  offset="0.5808" style="stop-color:#C2C8CC;stop-opacity:0"/>
				</linearGradient>
				<polygon id="Path-13-Copy-3" class="st3" points="56.2,39.3 53.8,132 0,101.4 1.6,8.1 				"/>
			</g>
			<g id="report" transform="translate(116.000000, 0.000000)">
				<polygon id="Path-13-Copy-2_1_" class="st4" points="68,31.2 65.6,123.9 11.8,93.3 13.4,0 				"/>
				<polygon id="Path-13-Copy_1_" class="st5" points="62.6,36.6 60.2,129.3 6.3,98.7 7.9,5.4 				"/>
				<polygon id="Path-13_1_" class="st6" points="56.2,39.3 53.8,132 0,101.4 1.6,8.1 				"/>
				<g id="Page-1" transform="translate(3.626667, 32.326531)">
					<path id="Stroke-3" class="st7" d="M48.5,50.4L1.3,23.2"/>
					<path id="Stroke-5" class="st8" d="M2.6,1l44.8,25.8"/>
					<path id="Stroke-8" class="st8" d="M2.6,2.4l44.8,25.8"/>
					<path id="Stroke-11" class="st8" d="M2.6,3.9l44.8,25.8"/>
					<path id="Stroke-14" class="st8" d="M2.6,5.3l44.8,25.8"/>
					<path id="Stroke-17" class="st8" d="M2.6,6.7l44.8,25.8"/>
					<path id="Stroke-20" class="st8" d="M2.6,8.2L47.4,34"/>
					<path id="Stroke-23" class="st8" d="M2.6,9.6l44.8,25.8"/>
					<path id="Stroke-26" class="st8" d="M2.6,11l44.8,25.8"/>
					<path id="Stroke-29" class="st8" d="M2.6,12.5l44.8,25.8"/>
					<path id="Stroke-32" class="st8" d="M2.6,13.9l44.8,25.8"/>
					<path id="Stroke-35" class="st8" d="M2.6,15.3l44.8,25.8"/>
					<path id="Stroke-38" class="st8" d="M2.6,16.8l44.8,25.8"/>
					<path id="Stroke-41" class="st8" d="M2.6,18.2L47.4,44"/>
					<path id="Stroke-44" class="st8" d="M2.6,19.7l44.8,25.8"/>
					<path id="Stroke-47" class="st8" d="M2.6,21.1l44.8,25.8"/>
					<path id="Stroke-50" class="st8" d="M2.6,22.5l44.8,25.8"/>
					<polyline id="Stroke-52" class="st9" points="1.3,16.9 8.6,12.3 16.3,21.5 23.3,21.1 31.1,31.5 38.8,32.4 47.3,27.8 					"/>
					<g id="Group-327" transform="translate(0.000000, 10.968390)">
						<path id="Fill-53" class="st10" d="M9.6,1.9c0,0.6-0.5,0.8-1,0.4s-1-1-1-1.6s0.5-0.8,1-0.4C9.2,0.6,9.6,1.4,9.6,1.9"/>
						<path id="Stroke-55" class="st9" d="M9.6,1.9c0,0.6-0.5,0.8-1,0.4s-1-1-1-1.6s0.5-0.8,1-0.4C9.2,0.6,9.6,1.4,9.6,1.9z"/>
						<path id="Fill-57" class="st10" d="M17.4,11.1c0,0.6-0.5,0.8-1,0.4c-0.6-0.3-1-1-1-1.6s0.5-0.8,1-0.4
							C16.9,9.9,17.4,10.6,17.4,11.1"/>
						<path id="Stroke-59" class="st9" d="M17.4,11.1c0,0.6-0.5,0.8-1,0.4c-0.6-0.3-1-1-1-1.6s0.5-0.8,1-0.4
							C16.9,9.9,17.4,10.6,17.4,11.1z"/>
						<path id="Fill-61" class="st10" d="M2.3,6.5c0,0.6-0.5,0.8-1,0.4c-0.6-0.3-1-1-1-1.6s0.5-0.8,1-0.4S2.3,5.9,2.3,6.5"/>
						<path id="Stroke-63" class="st9" d="M2.3,6.5c0,0.6-0.5,0.8-1,0.4c-0.6-0.3-1-1-1-1.6s0.5-0.8,1-0.4S2.3,5.9,2.3,6.5z"/>
						<path id="Fill-65" class="st10" d="M24.5,11c0,0.6-0.5,0.8-1,0.4c-0.6-0.3-1-1-1-1.6s0.5-0.8,1-0.4
							C24.1,9.7,24.5,10.4,24.5,11"/>
						<path id="Stroke-67" class="st9" d="M24.5,11c0,0.6-0.5,0.8-1,0.4c-0.6-0.3-1-1-1-1.6s0.5-0.8,1-0.4
							C24.1,9.7,24.5,10.4,24.5,11z"/>
						<path id="Fill-69" class="st10" d="M32,21.1c0,0.6-0.5,0.8-1,0.4c-0.6-0.3-1-1-1-1.6s0.5-0.8,1-0.4C31.5,19.8,32,20.5,32,21.1
							"/>
						<path id="Stroke-71" class="st9" d="M32,21.1c0,0.6-0.5,0.8-1,0.4c-0.6-0.3-1-1-1-1.6s0.5-0.8,1-0.4
							C31.5,19.8,32,20.5,32,21.1z"/>
						<path id="Fill-73" class="st10" d="M39.8,22.2c0,0.6-0.5,0.8-1,0.4c-0.6-0.3-1-1-1-1.6s0.5-0.8,1-0.4S39.8,21.7,39.8,22.2"/>
						<path id="Stroke-75" class="st9" d="M39.8,22.2c0,0.6-0.5,0.8-1,0.4c-0.6-0.3-1-1-1-1.6s0.5-0.8,1-0.4S39.8,21.7,39.8,22.2z"
							/>
						<path id="Fill-77" class="st10" d="M48.3,17.4c0,0.6-0.5,0.8-1,0.4c-0.6-0.3-1-1-1-1.6c0-0.6,0.5-0.8,1-0.4
							C47.8,16.1,48.3,16.8,48.3,17.4"/>
						<path id="Stroke-79" class="st9" d="M48.3,17.4c0,0.6-0.5,0.8-1,0.4c-0.6-0.3-1-1-1-1.6c0-0.6,0.5-0.8,1-0.4
							C47.8,16.1,48.3,16.8,48.3,17.4z"/>
						<polyline id="Stroke-81" class="st11" points="1.3,10.6 10.2,13.4 14,11.9 18.7,18.5 23.3,16.4 36,28.2 41.5,24.7 45.3,28.1 
							47.3,24.1 						"/>
						<path id="Fill-83" class="st10" d="M48.3,24.7c0,0.6-0.5,0.8-1,0.4c-0.6-0.3-1-1-1-1.6s0.5-0.8,1-0.4
							C47.8,23.4,48.3,24.1,48.3,24.7"/>
						<path id="Stroke-85" class="st11" d="M48.3,24.7c0,0.6-0.5,0.8-1,0.4c-0.6-0.3-1-1-1-1.6s0.5-0.8,1-0.4
							C47.8,23.4,48.3,24.1,48.3,24.7z"/>
						<path id="Fill-87" class="st10" d="M46.4,28.9c0,0.6-0.5,0.8-1,0.4c-0.6-0.3-1-1-1-1.6s0.5-0.8,1-0.4
							C46,27.6,46.4,28.4,46.4,28.9"/>
						<path id="Stroke-89" class="st11" d="M46.4,28.9c0,0.6-0.5,0.8-1,0.4c-0.6-0.3-1-1-1-1.6s0.5-0.8,1-0.4
							C46,27.6,46.4,28.4,46.4,28.9z"/>
						<path id="Fill-91" class="st10" d="M42.3,25c0,0.6-0.5,0.8-1,0.4c-0.6-0.3-1-1-1-1.6s0.5-0.8,1-0.4
							C41.8,23.7,42.3,24.4,42.3,25"/>
						<path id="Stroke-93" class="st11" d="M42.3,25c0,0.6-0.5,0.8-1,0.4c-0.6-0.3-1-1-1-1.6s0.5-0.8,1-0.4
							C41.8,23.7,42.3,24.4,42.3,25z"/>
						<path id="Fill-95" class="st10" d="M37.1,28.6c0,0.6-0.5,0.8-1,0.4c-0.6-0.3-1-1-1-1.6s0.5-0.8,1-0.4
							C36.6,27.3,37.1,28.1,37.1,28.6"/>
						<path id="Stroke-97" class="st11" d="M37.1,28.6c0,0.6-0.5,0.8-1,0.4c-0.6-0.3-1-1-1-1.6s0.5-0.8,1-0.4
							C36.6,27.3,37.1,28.1,37.1,28.6z"/>
						<path id="Fill-99" class="st10" d="M24.5,17.1c0,0.6-0.5,0.8-1,0.4c-0.6-0.3-1-1-1-1.6c0-0.6,0.5-0.8,1-0.4
							C24.1,15.9,24.5,16.6,24.5,17.1"/>
						<path id="Stroke-101" class="st11" d="M24.5,17.1c0,0.6-0.5,0.8-1,0.4c-0.6-0.3-1-1-1-1.6c0-0.6,0.5-0.8,1-0.4
							C24.1,15.9,24.5,16.6,24.5,17.1z"/>
						<path id="Fill-103" class="st10" d="M19.8,19.1c0,0.6-0.5,0.8-1,0.4c-0.6-0.3-1-1-1-1.6s0.5-0.8,1-0.4S19.8,18.6,19.8,19.1"/>
						<path id="Stroke-105" class="st11" d="M19.8,19.1c0,0.6-0.5,0.8-1,0.4c-0.6-0.3-1-1-1-1.6s0.5-0.8,1-0.4S19.8,18.6,19.8,19.1z
							"/>
						<path id="Fill-107" class="st10" d="M15.3,12.5c0,0.6-0.5,0.8-1,0.4c-0.6-0.3-1-1-1-1.6s0.5-0.8,1-0.4
							C14.9,11.2,15.3,11.9,15.3,12.5"/>
						<path id="Stroke-109" class="st11" d="M15.3,12.5c0,0.6-0.5,0.8-1,0.4c-0.6-0.3-1-1-1-1.6s0.5-0.8,1-0.4
							C14.9,11.2,15.3,11.9,15.3,12.5z"/>
						<path id="Fill-111" class="st10" d="M11.3,14c0,0.6-0.5,0.8-1,0.4c-0.6-0.3-1-1-1-1.6s0.5-0.8,1-0.4
							C10.8,12.7,11.3,13.5,11.3,14"/>
						<path id="Stroke-113" class="st11" d="M11.3,14c0,0.6-0.5,0.8-1,0.4c-0.6-0.3-1-1-1-1.6s0.5-0.8,1-0.4
							C10.8,12.7,11.3,13.5,11.3,14z"/>
						<path id="Fill-115" class="st10" d="M2.3,11.2c0,0.6-0.5,0.8-1,0.4s-1-1-1-1.6s0.5-0.8,1-0.4C1.8,9.9,2.3,10.6,2.3,11.2"/>
						<path id="Stroke-117" class="st11" d="M2.3,11.2c0,0.6-0.5,0.8-1,0.4s-1-1-1-1.6s0.5-0.8,1-0.4C1.8,9.9,2.3,10.6,2.3,11.2z"/>
						<g id="Group-124" transform="translate(0.000000, 29.307466)">
							<path id="Fill-121" class="st12" d="M22.8,13.1L0.2,0.1"/>
							<path id="Stroke-123" class="st7" d="M22.8,13.1L0.2,0.1"/>
						</g>
						<path id="Stroke-127" class="st13" d="M0.9,18.8l21.4,12.4"/>
						<path id="Stroke-133" class="st13" d="M0.9,19.5l21.4,12.4"/>
						<path id="Stroke-139" class="st13" d="M0.9,20.2l21.4,12.4"/>
						<path id="Stroke-145" class="st13" d="M0.9,20.8l21.4,12.4"/>
						<path id="Fill-149" class="st12" d="M22.7,34.1l-22.5-13"/>
						<path id="Stroke-153" class="st13" d="M22.1,33.8L0.7,21.4"/>
						<path id="Stroke-159" class="st13" d="M0.9,22.2l21.4,12.4"/>
						<path id="Stroke-165" class="st13" d="M0.9,22.9l21.4,12.4"/>
						<path id="Stroke-171" class="st13" d="M0.9,23.6L22.3,36"/>
						<path id="Stroke-177" class="st13" d="M0.9,24.3l21.4,12.4"/>
						<path id="Stroke-183" class="st13" d="M0.9,25l21.4,12.4"/>
						<path id="Stroke-189" class="st13" d="M0.9,25.7L22.3,38"/>
						<path id="Stroke-195" class="st13" d="M0.9,26.3l21.4,12.4"/>
						<path id="Stroke-201" class="st13" d="M0.9,27l21.4,12.4"/>
						<path id="Stroke-207" class="st13" d="M0.9,27.7l21.4,12.4"/>
						<path id="Stroke-213" class="st13" d="M0.9,28.4l21.4,12.4"/>
						<path id="Stroke-219" class="st13" d="M0.9,29.1l21.4,12.4"/>
						<path id="Fill-223" class="st12" d="M0.2,29.4v-3.2L3,24.4l2.5,3l1.4-0.9l2,1.5l2.6-0.9l2.7,9.5l1.5,1l0.2-2.5l2.7,3.2
							l1.6,0.4l2.5-4.5l0.2,8.3C22.8,42.4,0.2,29.4,0.2,29.4"/>
						<path id="Stroke-227" class="st7" d="M49.7,57.9l-22.6-13"/>
						<path id="Stroke-231" class="st13" d="M27.8,34.3l21.4,12.4"/>
						<path id="Stroke-237" class="st13" d="M27.8,35l21.4,12.4"/>
						<path id="Stroke-243" class="st13" d="M27.8,35.7L49.2,48"/>
						<path id="Stroke-249" class="st13" d="M27.8,36.4l21.4,12.4"/>
						<path id="Stroke-255" class="st13" d="M27.8,37l21.4,12.4"/>
						<path id="Stroke-261" class="st13" d="M27.8,37.7l21.4,12.4"/>
						<path id="Stroke-267" class="st13" d="M27.8,38.4l21.4,12.4"/>
						<path id="Stroke-273" class="st13" d="M27.8,39.1l21.4,12.4"/>
						<path id="Stroke-279" class="st13" d="M27.8,39.8l21.4,12.4"/>
						<path id="Stroke-285" class="st13" d="M27.8,40.5l21.4,12.4"/>
						<path id="Stroke-291" class="st13" d="M27.8,41.2l21.4,12.4"/>
						<path id="Stroke-297" class="st13" d="M27.8,41.8l21.4,12.4"/>
						<path id="Stroke-303" class="st13" d="M27.8,42.5l21.4,12.4"/>
						<path id="Stroke-309" class="st13" d="M27.8,43.2l21.4,12.4"/>
						<path id="Stroke-315" class="st13" d="M27.8,43.9l21.4,12.4"/>
						<path id="Stroke-321" class="st13" d="M27.8,44.6L49.2,57"/>
						<path id="Fill-325" class="st14" d="M27.2,44.9v-3.5l3.1,0.2l2.1,3.5l0.3,1.4l1.3,0.6l0.5-2.2l2,1.3l1.1,1.7l2.8-3.4
							c0,0,1.2,2.3,1.3,2.4c0.1,0,3.3,1,3.3,1l1,1.8l2.8-1.9l0.9,3.7l0.1,6.6L27.2,44.9z"/>
					</g>
				</g>
			</g>
			<g id="blocco" transform="translate(0.000000, 112.000000)">
				<g id="blocco_x2F_ombra" transform="translate(0.000000, 41.351064)" class="st15">
					<polygon id="Path-2" class="st16" points="78.8,90.8 157.2,46 79.8,0.9 0.2,46.8 					"/>
					
						<linearGradient id="Path-4_2_" gradientUnits="userSpaceOnUse" x1="-1897.0298" y1="12.3449" x2="-1894.719" y2="12.3449" gradientTransform="matrix(79.0742 0 0 81.3824 149980.6406 -918.1545)">
						<stop  offset="0" style="stop-color:#0066CC"/>
						<stop  offset="1" style="stop-color:#DAF3CE"/>
					</linearGradient>
					<polygon id="Path-4" class="st17" points="157.2,45.8 156.5,81.8 78.2,127.2 79.1,90.6 					"/>
					
						<linearGradient id="Path-3_2_" gradientUnits="userSpaceOnUse" x1="-1895.3616" y1="12.2025" x2="-1894.4906" y2="12.9718" gradientTransform="matrix(78.4379 0 0 80.2839 148681.6406 -917.2468)">
						<stop  offset="0" style="stop-color:#0066CC"/>
						<stop  offset="1" style="stop-color:#DAF3CE"/>
					</linearGradient>
					<polygon id="Path-3" class="st18" points="78.5,127 0.9,82.4 0.9,46.7 79.3,90.6 					"/>
					<polygon id="Path-5" class="st19" points="97.9,80 79.5,90.7 78.3,126.9 					"/>
					<polygon id="Path-6" class="st19" points="104.3,76.3 85.2,122.9 98.3,115.4 117.6,68.5 					"/>
				</g>
				<g transform="translate(0.898305, 0.000000)">
					<polygon id="Path-2_1_" class="st20" points="78.8,90.8 157.2,46 79.8,0.9 0.2,46.8 					"/>
					
						<linearGradient id="Path-4_3_" gradientUnits="userSpaceOnUse" x1="-1900.6227" y1="12.3448" x2="-1898.3121" y2="12.3448" gradientTransform="matrix(79.0742 0 0 81.3824 150264.7656 -918.1533)">
						<stop  offset="0" style="stop-color:#0066CC"/>
						<stop  offset="1" style="stop-color:#DAF3CE"/>
					</linearGradient>
					<polygon id="Path-4_1_" class="st21" points="157.2,45.8 156.5,81.8 78.2,127.2 79.1,90.6 					"/>
					
						<linearGradient id="Path-3_3_" gradientUnits="userSpaceOnUse" x1="-1898.9547" y1="12.2026" x2="-1898.0839" y2="12.9718" gradientTransform="matrix(78.4379 0 0 80.2839 148963.4844 -917.2471)">
						<stop  offset="0" style="stop-color:#0066CC"/>
						<stop  offset="1" style="stop-color:#DAF3CE"/>
					</linearGradient>
					<polygon id="Path-3_1_" class="st22" points="78.5,127 0.9,82.4 0.9,46.7 79.3,90.6 					"/>
					<polygon id="Path-5_1_" class="st19" points="97.9,80 79.5,90.7 78.3,126.9 					"/>
					<polygon id="Path-6_1_" class="st19" points="104.3,76.3 85.2,122.9 98.3,115.4 117.6,68.5 					"/>
				</g>
			</g>
			<g id="pc" transform="translate(9.000000, 49.000000)">
				<g id="Group-3" transform="translate(0.000000, 0.018625)">
					<g id="Clip-2">
					</g>
					<path id="Fill-1" class="st23" d="M0,113.7l81.5-46.3l0.2-63.6c0-1.7-2.5-2.6-4.5-3.1c-1.4-0.3-2.9-0.1-4.1,0.6L3.4,40.9
						c-2,1.1-3.2,3.3-3.3,5.5L0,113.7z"/>
				</g>
				<path id="Fill-4" class="st24" d="M2.2,112.7l79.1-44.9l0.2-63.9c0-1.8-2-3-3.6-2.1l-73,41.4c-1.6,0.9-2.6,2.6-2.6,4.4
					L2.2,112.7z"/>
				<polygon id="Fill-6" class="st25" points="78.2,5.5 5.8,46.7 5.7,106.8 78.2,65.6 				"/>
				<g id="Group-10" transform="translate(0.000000, 70.936894)">
					<path id="Fill-8" class="st23" d="M138.3,30.6C138.2,30.5,75,0.1,75,0.1L0.3,42.8l58.9,33.7c2,1.1,4.5,1.1,6.5,0
						c0,0,60.9-34.8,71.3-40.8c0.9-0.5,1.5-1.5,1.5-2.6L138.3,30.6z"/>
				</g>
				<path id="Fill-11" class="st26" d="M2.3,112.4l79-45.1l55.9,32c1.6,0.9,1.6,3.2,0,4.2l-72.8,41.6c-1.6,0.9-3.5,0.9-5.1,0
					L2.3,112.4z"/>
				<polygon id="Fill-13" class="st27" points="66.8,120.7 93.9,105.2 109.4,114.6 82.3,130.1 				"/>
			</g>
			<g id="edificio-2" transform="translate(194.000000, 45.000000)">
				<g id="edificio-2-ombra" transform="translate(0.000000, 67.121951)" class="st28">
					<g id="Group-4" transform="translate(0.000000, 0.000000)" class="st29">
						<g id="Combined-Shape-Copy-2">
							
								<linearGradient id="path-14_2_" gradientUnits="userSpaceOnUse" x1="-2678.7334" y1="10.005" x2="-2678.6721" y2="10.3216" gradientTransform="matrix(114.6672 0 0 102.4318 307222.75 -963.6005)">
								<stop  offset="0" style="stop-color:#002590"/>
								<stop  offset="0.5749" style="stop-color:#30BBC8"/>
								<stop  offset="1" style="stop-color:#DAF3CE"/>
							</linearGradient>
							<path id="path-14_1_" class="st30" d="M30,62.6v40.3l84.7-49V13.5L30,62.6z M0,85.5l30,17.3V62.6L0,45.2V85.5z"/>
						</g>
						<g id="Combined-Shape">
							
								<linearGradient id="path-11_2_" gradientUnits="userSpaceOnUse" x1="-2678.6833" y1="11.4739" x2="-2678.7649" y2="11.1592" gradientTransform="matrix(114.6672 0 0 89.3254 307222.75 -950.5001)">
								<stop  offset="0" style="stop-color:#E6EFF1;stop-opacity:0"/>
								<stop  offset="1" style="stop-color:#C9DADF"/>
							</linearGradient>
							<path id="path-11_1_" class="st31" d="M30,62.6l84.7-49v40.3l-84.7,49V62.6z M0,85.5V45.2l30,17.3v40.3L0,85.5z"/>
						</g>
					</g>
					<path id="Combined-Shape_1_" class="st32" d="M0,50.5v-5.2l30,17.3v5.2L0,50.5z M30,62.6l84.7-49v5.2L30,67.8V62.6z"/>
					
						<linearGradient id="Combined-Shape-Copy_1_" gradientUnits="userSpaceOnUse" x1="-2677.9065" y1="14.0863" x2="-2677.8486" y2="14.7332" gradientTransform="matrix(109.0269 0 0 69.2878 292019.0312 -940.4753)">
						<stop  offset="0" style="stop-color:#0066CC"/>
						<stop  offset="1" style="stop-color:#009FE8;stop-opacity:0"/>
					</linearGradient>
					<path id="Combined-Shape-Copy" class="st33" d="M34.1,79.8V68.3l9.9-5.7V74L34.1,79.8z M45.4,73.3V61.9l9.9-5.7v11.4L45.4,73.3
						z M56.6,66.8V55.3l9.9-5.7V61L56.6,66.8z M67.9,60.2V48.8l9.9-5.7v11.4L67.9,60.2z M79.1,53.7V42.3l9.9-5.7V48L79.1,53.7z
						 M90.4,47.2V35.8l9.9-5.7v11.4L90.4,47.2z M101.7,40.7V29.3l9.9-5.7V35L101.7,40.7z M34.1,92.8V81.4l9.9-5.7v11.4L34.1,92.8z
						 M45.4,86.3V74.9l9.9-5.7v11.4L45.4,86.3z M56.6,79.8V68.4l9.9-5.7v11.4L56.6,79.8z M67.9,73.3V61.8l9.9-5.7v11.4L67.9,73.3z
						 M79.1,66.8V55.4l9.9-5.7V61L79.1,66.8z M90.4,60.2V48.8l9.9-5.7v11.4L90.4,60.2z M101.7,53.7V42.3l9.9-5.7V48L101.7,53.7z
						 M27.4,78.2l-7.6-4.4V65l7.6,4.4V78.2z M18.8,73.2l-7.6-4.4V60l7.6,4.4V73.2z M10.1,68.2l-7.6-4.4V55l7.6,4.4V68.2z M27.4,88.2
						l-7.6-4.4V75l7.6,4.4V88.2z M18.8,83.2l-7.6-4.4V70l7.6,4.4V83.2z M10.1,78.2l-7.6-4.4V65l7.6,4.4V78.2z"/>
				</g>
				<g id="edificio-2-copy" transform="translate(0.000000, 3.600000)">
					<polygon id="Fill-1_1_" class="st34" points="14.3,22.5 14.3,59.3 49.1,79.4 49.1,42.7 					"/>
					
						<linearGradient id="Fill-2_1_" gradientUnits="userSpaceOnUse" x1="-2672.958" y1="11.157" x2="-2672.696" y2="11.4339" gradientTransform="matrix(84.6983 0 0 89.3253 226456.5938 -928.3613)">
						<stop  offset="0" style="stop-color:#30BBC8"/>
						<stop  offset="1" style="stop-color:#DAF3CE"/>
					</linearGradient>
					<polygon id="Fill-2" class="st35" points="30,84.7 30,124.9 114.7,75.9 114.7,35.6 					"/>
					
						<linearGradient id="Fill-3_5_" gradientUnits="userSpaceOnUse" x1="-2678.6628" y1="12.086" x2="-2679.0571" y2="11.6412" gradientTransform="matrix(114.6663 0 0 84.7615 307220.3438 -964.0059)">
						<stop  offset="0" style="stop-color:#9BC4BC"/>
						<stop  offset="1" style="stop-color:#0C989A"/>
					</linearGradient>
					<polygon id="Fill-3" class="st36" points="52.9,0 14.3,22.4 46,40.8 0,67.4 30,84.8 114.7,35.7 					"/>
					
						<linearGradient id="Fill-4_3_" gradientUnits="userSpaceOnUse" x1="-2631.7825" y1="16.913" x2="-2630.7825" y2="17.7367" gradientTransform="matrix(29.9528 0 0 57.6273 78832.7812 -896.6856)">
						<stop  offset="0" style="stop-color:#002590"/>
						<stop  offset="0.7954" style="stop-color:#30BBC8"/>
						<stop  offset="1" style="stop-color:#DAF3CE"/>
					</linearGradient>
					<polygon id="Fill-4_1_" class="st37" points="0,107.6 30,124.9 30,84.7 0,67.3 					"/>
					<polygon id="Fill-5" class="st38" points="0,72.6 30,89.9 30,84.7 0,67.3 					"/>
					<polygon id="Fill-6_1_" class="st39" points="30,84.7 30,89.9 114.7,40.9 114.7,35.6 					"/>
					<path id="Combined-Shape_2_" class="st40" d="M34.1,101.9V90.5l9.9-5.7v11.4L34.1,101.9z M45.4,95.4V84l9.9-5.7v11.4L45.4,95.4
						z M56.6,88.9V77.4l9.9-5.7v11.4L56.6,88.9z M67.9,82.3V70.9l9.9-5.7v11.4L67.9,82.3z M79.2,75.8V64.4l9.9-5.7v11.4L79.2,75.8z
						 M90.4,69.3V57.9l9.9-5.7v11.4L90.4,69.3z M101.7,62.8V51.4l9.9-5.7v11.4L101.7,62.8z M34.1,114.9v-11.4l9.9-5.7v11.4
						L34.1,114.9z M45.4,108.4V97l9.9-5.7v11.4L45.4,108.4z M56.6,101.9V90.5l9.9-5.7v11.4L56.6,101.9z M67.9,95.4V83.9l9.9-5.7
						v11.4L67.9,95.4z M79.2,88.9V77.5l9.9-5.7v11.4L79.2,88.9z M90.4,82.4V70.9l9.9-5.7v11.4L90.4,82.4z M101.7,75.8V64.4l9.9-5.7
						v11.4L101.7,75.8z"/>
					<path id="Combined-Shape_3_" class="st41" d="M27.4,100.3l-7.6-4.4v-8.8l7.6,4.4V100.3z M18.8,95.3l-7.6-4.4v-8.8l7.6,4.4V95.3
						z M10.1,90.3l-7.6-4.4v-8.8l7.6,4.4V90.3z M27.4,110.3l-7.6-4.4v-8.8l7.6,4.4V110.3z M18.8,105.3l-7.6-4.4v-8.8l7.6,4.4V105.3z
						 M10.1,100.3l-7.6-4.4v-8.8l7.6,4.4V100.3z"/>
				</g>
				<g id="proiezione" class="st42">
					
						<linearGradient id="Fill-2-Copy-2_1_" gradientUnits="userSpaceOnUse" x1="-499.7123" y1="-302.0535" x2="-519.5671" y2="-270.2793" gradientTransform="matrix(1 0 0 -1 582 -241)">
						<stop  offset="0" style="stop-color:#FFFFFF"/>
						<stop  offset="0.6302" style="stop-color:#FFFFFF;stop-opacity:0"/>
					</linearGradient>
					<polygon id="Fill-2-Copy-2" class="st43" points="30,49.6 30,89.8 114.7,40.8 114.7,0.5 					"/>
					<g id="Fill-4-Copy">
						
							<linearGradient id="path-25_2_" gradientUnits="userSpaceOnUse" x1="-2631.3994" y1="17.092" x2="-2631.3994" y2="18.4047" gradientTransform="matrix(29.9528 0 0 57.6273 78832.7812 -931.7845)">
							<stop  offset="0" style="stop-color:#E6EFF1;stop-opacity:0"/>
							<stop  offset="1" style="stop-color:#C9DADF"/>
						</linearGradient>
						<polygon id="path-25_1_" class="st44" points="0,72.5 30,89.8 30,49.6 0,32.2 						"/>
					</g>
					
						<linearGradient id="Fill-4-Copy-2_1_" gradientUnits="userSpaceOnUse" x1="-571.858" y1="-326.9921" x2="-562.1615" y2="-277.1084" gradientTransform="matrix(1 0 0 -1 582 -241)">
						<stop  offset="0" style="stop-color:#FFFFFF"/>
						<stop  offset="3.267862e-02" style="stop-color:#FFFFFF;stop-opacity:0.9469"/>
						<stop  offset="0.6155" style="stop-color:#FFFFFF;stop-opacity:0"/>
					</linearGradient>
					<polygon id="Fill-4-Copy-2" class="st45" points="0,72.5 30,89.8 30,49.6 0,32.2 					"/>
				</g>
			</g>
			<g id="man3" transform="translate(90.000000, 128.000000)">
				<path id="Fill-1_2_" class="st46" d="M14.3,12.3c0,0-0.1,2.6-0.4,4.8c-0.2,1.3-0.4,2.7-0.5,3c-0.2,0.8-0.5,2.4-0.5,2.4
					s0,0.8,0,1.1c0.1,0.9,0.5,2.4-1.1,2.6c-1.3,0.1-1.1-1.7-0.5-3.2c0.1-0.2,0-1.8,0.1-3c0.1-1.4,0.2-1.8,0.3-3.3
					c0.1-2,0.2-4.7,0.2-4.7L14.3,12.3z"/>
				<path id="Fill-3_1_" class="st47" d="M10.9,8.3c0,0,2,0.1,2.8,0.9c0.8,0.8,1.4,4.2,0.7,4.4c-0.7,0.2-1.3,0.4-1.6,0.4
					C12.5,14.1,10.7,10,10.9,8.3"/>
				<g id="Group-7" transform="translate(0.000000, 34.830115)">
					<path id="Fill-5_1_" class="st48" d="M5.7,0.2c4-0.4,7.9,0.7,8.8,2.5s-1.6,3.6-5.5,4C5,7.2,1.1,6.1,0.2,4.3S1.8,0.7,5.7,0.2"/>
				</g>
				<path id="Fill-8_1_" class="st49" d="M5.2,37.5c0.3,0.2,2.5,0.8,2.3,2S2.9,39.4,3,38C3.1,37,4.8,37.3,5.2,37.5"/>
				<path id="Fill-10" class="st49" d="M9.6,35.8c0.3,0.2,2.5,0.8,2.3,2s-4.6-0.1-4.5-1.5C7.6,35.3,9.3,35.6,9.6,35.8"/>
				<path id="Fill-12" class="st50" d="M13.2,22.6c0,0-1,14.3-1.4,14.9s-1.4,0.4-1.8,0.1c-0.5-0.4-1-14.9-1-14.9L13.2,22.6z"/>
				<path id="Fill-14" class="st50" d="M9,22.7c0,0-1.2,15.9-1.9,16.4s-1.4,0.4-1.8,0.1c-0.5-0.3-0.7-16.4-0.7-16.4L9,22.7z"/>
				<path id="Fill-16" class="st47" d="M7.5,8c0,0-2.5,0.4-3.2,2.8c-0.8,2.4-0.1,11.7-0.1,12.1c0,0.4,1.3,1.9,5.2,1.7
					c3.7-0.2,4.2-1.2,4.2-1.8c0-0.5-0.5-2-0.2-4.1c0.4-3.2,0.6-7.4,0.2-8.7C12.7,7.8,9.1,7.6,7.5,8"/>
				<path id="Fill-18" class="st51" d="M7.7,6.3c0,0-0.2,1.9,0.2,2.1c1,0.5,2.2-0.1,2.2-0.1L10.3,6L7.7,6.3z"/>
				<path id="Fill-20" class="st52" d="M6.6,2c0,0-1.5,5.1,0.4,5.5c1.4,0.3,3.8-0.3,4-2.1s1.3-3.9,0-4C9.7,1.2,6.5,0.7,6.6,2"/>
				<path id="Fill-22" class="st46" d="M6.6,13c0,0-0.2,2.6-0.5,4.8c-0.2,1.3-0.5,2.7-0.6,3c-0.2,0.8-0.6,2.4-0.6,2.4
					s-0.1,0.8,0,1.1c0.1,0.9,0.4,2.4-1.2,2.6c-1.3,0.1-1-1.7-0.4-3.2c0.1-0.2,0.1-1.8,0.2-3c0.1-1.4,0.3-1.7,0.4-3.3
					c0.2-2,0.3-4.7,0.3-4.7L6.6,13z"/>
				<path id="Fill-24" class="st47" d="M4.7,9.8c0.5-0.6,2.3-1,2.8,0.3c0.5,1.2,0,5.3-0.5,5.5c-0.3,0.1-1.2,0.2-1.8,0.2
					C4.4,15.7,4.1,15.2,4,15C3.6,14.5,3.8,10.8,4.7,9.8"/>
				<path id="Fill-26" class="st53" d="M6.1,2.6c0,0,0.5,0.7,0.9,1S7.1,4.8,7.2,5c0,0.3,1.3,0.3,1.3,0.9S8,6.9,9.8,7.1
					c0.7,0.1,1.9-1.2,2.2-1.5c0.2-0.3,0.7-1.3,0.7-2.1C12.9,1,11.3,0.1,9.8,0S5.3,0.7,6.1,2.6"/>
				<path id="Fill-28" class="st52" d="M7.6,4.9c0,0,0.5-0.9,1-0.5c0.6,0.5,0,2-0.8,1.7C7.2,5.8,7.6,4.9,7.6,4.9"/>
			</g>
			<g id="man2" transform="translate(194.000000, 150.000000)">
				<path id="Fill-1_3_" class="st46" d="M0.3,11.6c0,0,0.1,2.5,0.3,4.5C0.8,17.3,1,18.6,1,18.9c0.1,0.7,0.5,2.3,0.5,2.3
					s0,0.8,0,1.1c-0.1,0.9-0.4,2.3,0.9,2.4c1.1,0.1,0.9-1.6,0.4-3c-0.1-0.2,0-1.7-0.1-2.8c-0.1-1.3-0.2-1.7-0.3-3.1
					c-0.1-1.9-0.2-4.4-0.2-4.4L0.3,11.6z"/>
				<g id="Group-5" transform="translate(0.354730, 32.542613)">
					<path id="Fill-3_2_" class="st54" d="M7.7,0.2C4.3-0.2,1,0.9,0.2,2.6S1.5,6,4.9,6.4s6.7-0.7,7.5-2.4C13.2,2.3,11.1,0.6,7.7,0.2
						"/>
				</g>
				<path id="Fill-6_2_" class="st55" d="M8.1,35.3c-0.3,0.2-2.2,0.7-2,1.8S10,37,9.9,35.7C9.8,34.8,8.4,35.1,8.1,35.3"/>
				<path id="Fill-8_2_" class="st55" d="M4.3,33.7c-0.3,0.2-2.2,0.7-2,1.8s3.9-0.1,3.8-1.4C6,33.2,4.5,33.4,4.3,33.7"/>
				<path id="Fill-10_1_" class="st56" d="M1.3,21.2c0,0,0.8,13.5,1.2,14c0.4,0.6,1.2,0.4,1.6,0.1c0.4-0.3,0.7-14,0.7-14L1.3,21.2z"
					/>
				<path id="Fill-12_1_" class="st56" d="M4.8,21.3c0,0,1,15,1.6,15.4C7,37.1,7.6,37.1,8,36.8c0.4-0.3,0.6-15.4,0.6-15.4L4.8,21.3z
					"/>
				<path id="Fill-14_1_" class="st57" d="M6.1,7.5c0,0,2.1,0.4,2.8,2.6C9.5,12.4,9,21.1,9,21.5c0,0.3-1.1,1.8-4.4,1.6
					C1.4,22.9,1,21.9,1,21.4s0.4-1.9,0.2-3.9c-0.4-3-0.7-7-0.3-8.2C1.5,7.3,4.7,7.1,6.1,7.5"/>
				<path id="Fill-16_1_" class="st51" d="M5.9,5.9c0,0,0.2,1.8-0.1,1.9c-1,0.5-2-0.1-2-0.1L3.7,5.6L5.9,5.9z"/>
				<path id="Fill-18_1_" class="st57" d="M3.2,7.8c0,0-1.9-0.1-2.3,1.2c-0.5,1.3-1.3,3.6-0.7,3.8s1.1,0.4,1.4,0.4
					C1.8,13.2,3.3,9.4,3.2,7.8"/>
				<path id="Fill-20_1_" class="st52" d="M6.9,1.9c0,0,1.3,4.8-0.3,5.2C5.4,7.3,3.3,6.8,3.1,5C3,3.3,2,1.4,3.1,1.3
					C4.2,1.2,6.9,0.7,6.9,1.9"/>
				<path id="Fill-22_1_" class="st46" d="M6.9,12.2c0,0,0.2,2.5,0.5,4.5c0.2,1.2,0.4,2.5,0.5,2.8c0.2,0.7,0.5,2.3,0.5,2.3
					s0.1,0.8,0,1.1c-0.1,0.9-0.3,2.3,1,2.4c1.1,0.1,0.9-1.6,0.3-3c-0.1-0.2-0.1-1.7-0.2-2.8c-0.1-1.3-0.3-1.6-0.4-3.1
					C9,14.5,8.8,12,8.8,12L6.9,12.2z"/>
				<path id="Fill-24_1_" class="st57" d="M8.5,9.2C8,8.6,6.6,8.3,6.1,9.4c-0.4,1.2,0,5,0.4,5.2c0.3,0.1,1,0.2,1.6,0.2
					c0.7-0.1,0.9-0.5,1-0.8C9.4,13.6,9.3,10.2,8.5,9.2"/>
				<path id="Fill-26_1_" class="st58" d="M7.3,2.4c0,0-0.4,0.7-0.8,0.9C6.2,3.7,6.4,4.5,6.4,4.8S5.3,5.1,5.3,5.7S6,7.1,4.5,7.2
					C3.9,7.3,2.6,6.9,2.5,6C2.4,5.2,1.7,4.5,1.7,3.5C1.5,1.1,2.9,0.1,4.1,0C5.4-0.1,8,0.6,7.3,2.4"/>
				<path id="Fill-28_1_" class="st52" d="M6,4.6c0,0-0.4-0.9-0.9-0.5s0,1.9,0.6,1.6C6.4,5.5,6,4.6,6,4.6"/>
			</g>
			<g id="mobile-block" transform="translate(191.000000, 134.000000)">
				
					<g id="mobile-skin-assonometria" transform="translate(107.865202, 76.338608) rotate(1.000000) translate(-107.865202, -76.338608) translate(1.865202, 1.838608)">
					
						<radialGradient id="Shape_13_" cx="-2668.8877" cy="12.0681" r="0.8815" gradientTransform="matrix(47.9257 111.2297 -111.2296 47.9257 129366.2188 296344.4375)" gradientUnits="userSpaceOnUse">
						<stop  offset="0" style="stop-color:#30A4C3"/>
						<stop  offset="1" style="stop-color:#1B7A99"/>
					</radialGradient>
					<path id="Shape" class="st59" d="M158.7,29.7l48.1,27.1c6.5,3.7,6.7,9.7,0.4,13.5l-125,74.9c-6.3,3.8-16.7,3.8-23.2,0.2
						l-48-27.1c-6.5-3.7-6.7-9.7-0.4-13.5l124.9-74.9C141.9,26.1,152.2,26,158.7,29.7z"/>
					<path id="Shape_1_" class="st60" d="M153.8,6.3l48.1,27.1c6.5,3.7,6.7,9.7,0.4,13.5l-125,75c-6.3,3.8-16.7,3.8-23.2,0.2
						l-48-27.2c-6.5-3.7-6.7-9.7-0.4-13.5L130.6,6.5C136.9,2.7,147.3,2.7,153.8,6.3z"/>
					
						<linearGradient id="Shape_14_" gradientUnits="userSpaceOnUse" x1="-2672.5396" y1="31.2216" x2="-2673.2576" y2="31.9532" gradientTransform="matrix(205.8367 3.452469e-04 -2.117649e-04 121.1128 550283.125 -3764.9839)">
						<stop  offset="0" style="stop-color:#D6E0DB"/>
						<stop  offset="1" style="stop-color:#B9C5BF"/>
					</linearGradient>
					<path id="Shape_2_" class="st61" d="M153.4,2.7l48.1,27.1c6.5,3.7,6.7,9.7,0.4,13.5l-125,74.9c-6.3,3.8-16.7,3.8-23.2,0.2
						L5.6,91.3c-6.5-3.7-6.7-9.7-0.4-13.5l125-74.9C136.5-0.9,146.9-1,153.4,2.7z"/>
					
						<linearGradient id="Shape_15_" gradientUnits="userSpaceOnUse" x1="-2672.4287" y1="31.3137" x2="-2673.1477" y2="32.046" gradientTransform="matrix(203.3769 4.019657e-04 -1.812689e-04 119.718 543685.125 -3731.533)">
						<stop  offset="0" style="stop-color:#E9EFED"/>
						<stop  offset="1" style="stop-color:#CDDCD5"/>
					</linearGradient>
					<path id="Shape_3_" class="st62" d="M152.8,3.3l47.7,26.9c6.2,3.5,6.3,9.2,0.3,12.8L76.3,117.7c-6,3.6-15.8,3.7-22,0.2
						l-47.7-27c-6.2-3.5-6.3-9.2-0.3-12.8L130.8,3.5C136.8-0.1,146.6-0.2,152.8,3.3z"/>
					
						<linearGradient id="Shape_16_" gradientUnits="userSpaceOnUse" x1="-2670.8381" y1="32.7781" x2="-2671.2786" y2="33.9493" gradientTransform="matrix(171.0815 2.471817e-04 -1.539698e-04 100.3769 457058.9062 -3269.2554)">
						<stop  offset="0" style="stop-color:#002590"/>
						<stop  offset="1" style="stop-color:#30BBC8"/>
					</linearGradient>
					<polygon id="Shape_4_" class="st63" points="126.3,10.4 189.1,45.8 80.8,110.8 18,75.3 					"/>
					<polygon id="Shape_5_" class="st64" points="95.5,22.9 96.1,23.3 91,26.4 90.3,26 					"/>
					<polygon id="Shape_6_" class="st64" points="107.9,15.4 108.6,15.8 103.5,18.9 102.8,18.5 					"/>
					<polygon id="Shape_7_" class="st64" points="122,7 122.7,7.4 116.1,11.4 115.4,11 					"/>
					<polygon id="Shape_8_" class="st64" points="190.4,22.8 201.8,29.3 201.2,29.7 189.7,23.2 					"/>
					
						<linearGradient id="Shape_17_" gradientUnits="userSpaceOnUse" x1="-2577.9666" y1="109.3494" x2="-2578.5662" y2="109.9647" gradientTransform="matrix(18.5985 4.596354e-05 1.406643e-05 10.8606 47989.332 -1090.6207)">
						<stop  offset="0" style="stop-color:#C0CECB"/>
						<stop  offset="1" style="stop-color:#D9E8DD"/>
					</linearGradient>
					<path id="Shape_9_" class="st65" d="M45.5,95.4c3.7,2.1,3.8,5.5,0.2,7.7c-3.6,2.2-9.5,2.2-13.2,0.1c-3.7-2.1-3.8-5.5-0.2-7.7
						C35.9,93.3,41.8,93.3,45.5,95.4z"/>
					<path id="Shape_10_" class="st66" d="M40.2,97.2l2.3,1.3c0.7,0.4,0.7,1,0,1.5l-2.2,1.3c-0.8,0.4-1.7,0.4-2.5,0l-2.3-1.3
						c-0.7-0.4-0.7-1,0-1.5l2.2-1.3C38.5,96.8,39.4,96.8,40.2,97.2z"/>
					<path id="mobile-skin-h" class="st67" d="M161,20l10.6,6c0.3,0.2,0.3,0.5,0,0.7l0,0c-0.4,0.2-0.8,0.2-1.2,0l-10.6-6
						c-0.3-0.2-0.3-0.5,0-0.7l0,0C160.2,19.8,160.6,19.8,161,20L161,20z"/>
					<path id="Shape_11_" class="st68" d="M161.4,19.7l10.6,6c0.5,0.3,0.6,0.8,0,1.1l0,0c-0.6,0.3-1.3,0.3-1.9,0l-10.6-6
						c-0.5-0.3-0.6-0.8,0-1.1l0,0C160,19.4,160.7,19.4,161.4,19.7L161.4,19.7z"/>
					
						<linearGradient id="mobile-skin-j_1_" gradientUnits="userSpaceOnUse" x1="-1538.6398" y1="972.174" x2="-1539.3297" y2="972.8913" gradientTransform="matrix(1.6938 0 0 0.9807 2777.2983 -933.4888)">
						<stop  offset="0" style="stop-color:#29305F"/>
						<stop  offset="1" style="stop-color:#21274C"/>
					</linearGradient>
					<path id="mobile-skin-j" class="st69" d="M171.2,20c0.3,0.2,0.3,0.5,0,0.7c-0.4,0.2-0.8,0.2-1.2,0c-0.3-0.2-0.3-0.5,0-0.7
						C170.4,19.8,170.9,19.8,171.2,20z"/>
					<path id="Shape_12_" class="st68" d="M171.6,19.7c0.5,0.3,0.6,0.8,0,1.1c-0.6,0.3-1.3,0.3-1.9,0c-0.5-0.3-0.6-0.8,0-1.1
						C170.3,19.4,171,19.4,171.6,19.7L171.6,19.7z"/>
				</g>
			</g>
			<g id="man1" transform="translate(251.000000, 182.000000)">
				<path id="Fill-1_4_" class="st46" d="M0.3,11.6c0,0,0.1,2.5,0.3,4.5C0.8,17.3,1,18.6,1,18.9c0.1,0.7,0.5,2.3,0.5,2.3
					s0,0.8,0,1.1c-0.1,0.9-0.4,2.3,0.9,2.4c1.1,0.1,0.9-1.6,0.4-3c-0.1-0.2,0-1.7-0.1-2.8c-0.1-1.3-0.2-1.7-0.3-3.1
					c-0.1-1.9-0.2-4.4-0.2-4.4L0.3,11.6z"/>
				<g id="Group-5_1_" transform="translate(0.354730, 32.542613)">
					<path id="Fill-3_3_" class="st70" d="M7.7,0.2C4.3-0.2,1,0.9,0.2,2.6S1.5,6,4.9,6.4s6.7-0.7,7.5-2.4C13.2,2.3,11.1,0.6,7.7,0.2
						"/>
				</g>
				<path id="Fill-6_3_" class="st55" d="M8.1,35.3c-0.3,0.2-2.2,0.7-2,1.8S10,37,9.9,35.7C9.8,34.8,8.4,35.1,8.1,35.3"/>
				<path id="Fill-8_3_" class="st55" d="M4.3,33.7c-0.3,0.2-2.2,0.7-2,1.8s3.9-0.1,3.8-1.4C6,33.2,4.5,33.4,4.3,33.7"/>
				<path id="Fill-10_2_" class="st71" d="M1.3,21.2c0,0,0.8,13.5,1.2,14c0.4,0.6,1.2,0.4,1.6,0.1c0.4-0.3,0.7-14,0.7-14L1.3,21.2z"
					/>
				<path id="Fill-12_2_" class="st71" d="M4.8,21.3c0,0,1,15,1.6,15.4C7,37.1,7.6,37.1,8,36.8c0.4-0.3,0.6-15.4,0.6-15.4L4.8,21.3z
					"/>
				<path id="Fill-14_2_" class="st72" d="M6.1,7.5c0,0,2.1,0.4,2.8,2.6C9.5,12.4,9,21.1,9,21.5c0,0.3-1.1,1.8-4.4,1.6
					C1.4,22.9,1,21.9,1,21.4s0.4-1.9,0.2-3.9c-0.4-3-0.7-7-0.3-8.2C1.5,7.3,4.7,7.1,6.1,7.5"/>
				<path id="Fill-16_2_" class="st51" d="M5.9,5.9c0,0,0.2,1.8-0.1,1.9c-1,0.5-2-0.1-2-0.1L3.7,5.6L5.9,5.9z"/>
				<path id="Fill-18_2_" class="st72" d="M3.2,7.8c0,0-1.9-0.1-2.3,1.2c-0.5,1.3-1.3,3.6-0.7,3.8s1.1,0.4,1.4,0.4
					C1.8,13.2,3.3,9.4,3.2,7.8"/>
				<path id="Fill-20_2_" class="st52" d="M6.9,1.9c0,0,1.3,4.8-0.3,5.2C5.4,7.3,3.3,6.8,3.1,5C3,3.3,2,1.4,3.1,1.3
					C4.2,1.2,6.9,0.7,6.9,1.9"/>
				<path id="Fill-22_2_" class="st46" d="M6.9,12.2c0,0,0.2,2.5,0.5,4.5c0.2,1.2,0.4,2.5,0.5,2.8c0.2,0.7,0.5,2.3,0.5,2.3
					s0.1,0.8,0,1.1c-0.1,0.9-0.3,2.3,1,2.4c1.1,0.1,0.9-1.6,0.3-3c-0.1-0.2-0.1-1.7-0.2-2.8c-0.1-1.3-0.3-1.6-0.4-3.1
					C9,14.5,8.8,12,8.8,12L6.9,12.2z"/>
				<path id="Fill-24_2_" class="st72" d="M8.5,9.2C8,8.6,6.6,8.3,6.1,9.4c-0.4,1.2,0,5,0.4,5.2c0.3,0.1,1,0.2,1.6,0.2
					c0.7-0.1,0.9-0.5,1-0.8C9.4,13.6,9.3,10.2,8.5,9.2"/>
				<path id="Fill-26_2_" class="st58" d="M7.3,2.4c0,0-0.4,0.7-0.8,0.9C6.2,3.7,6.4,4.5,6.4,4.8S5.3,5.1,5.3,5.7S6,7.1,4.5,7.2
					C3.9,7.3,2.6,6.9,2.5,6C2.4,5.2,1.7,4.5,1.7,3.5C1.5,1.1,2.9,0.1,4.1,0C5.4-0.1,8,0.6,7.3,2.4"/>
				<path id="Fill-28_2_" class="st52" d="M6,4.6c0,0-0.4-0.9-0.9-0.5s0,1.9,0.6,1.6C6.4,5.5,6,4.6,6,4.6"/>
			</g>
			<g id="robot" transform="translate(30.000000, 81.000000)">
				<path id="Fill-1_5_" class="st10" d="M24.3,16.3c0.4-0.2,0.7-0.7,0.7-1v-2.1c0-0.4-0.3-0.5-0.7-0.3c-0.4,0.2-0.7,0.7-0.7,1V16
					C23.6,16.4,23.9,16.5,24.3,16.3 M17.3,20.3c0.4-0.2,0.7-0.7,0.7-1v-2.1c0-0.4-0.3-0.5-0.7-0.3c-0.4,0.2-0.7,0.7-0.7,1V20
					C16.6,20.3,16.9,20.5,17.3,20.3"/>
				<g id="Group-5_2_" transform="translate(0.000000, 0.075321)">
					<path id="Fill-3_4_" class="st10" d="M38.2,30.7c0.4-0.2,0.7-0.1,0.7,0.3l0,0l-1.4,1l0,0C37.5,31.5,37.8,31,38.2,30.7
						L38.2,30.7z M38.2,24.4c0.4-0.2,0.7-0.1,0.7,0.3s-0.3,0.9-0.7,1.2c-0.4,0.2-0.7,0.1-0.7-0.3S37.8,24.6,38.2,24.4L38.2,24.4z
						 M34,22.7L34,22.7L34,22.7c0-0.5-0.2-1-0.4-1.3l0.4-0.2c0.4-0.2,0.7-0.1,0.7,0.3C34.8,21.9,34.5,22.4,34,22.7L34,22.7z
						 M32.6,27.7L8.9,41.2l0,0V37c0-1.2,1-2.7,2.1-3.4l19.6-11.2c1.2-0.7,2.1-0.3,2.1,0.9L32.6,27.7C32.7,27.7,32.7,27.7,32.6,27.7
						L32.6,27.7z M29.1,36l-16.8,9.6c-1.4,0.8-2.7,0.6-3.3-0.3L32.3,32C31.9,33.6,30.6,35.2,29.1,36L29.1,36z M25.7,40.8l-9.9,5.6
						v-1.5l9.9-5.6V40.8z M26.7,42.3l-11.9,6.8c-0.2,0.1-0.4,0-0.4-0.2s0.2-0.5,0.4-0.6l11.9-6.8c0.2-0.1,0.4,0,0.4,0.2
						S26.9,42.2,26.7,42.3L26.7,42.3z M33.4,29.3c0,0.4-0.3,0.9-0.7,1.2L8.9,44.1c-0.4,0.2-0.7,0.1-0.7-0.3s0.3-0.9,0.7-1.2L32.6,29
						C33.1,28.8,33.4,28.9,33.4,29.3L33.4,29.3z M7.5,37.8C7,38,6.7,37.9,6.7,37.5s0.3-0.9,0.7-1.2l0.4-0.2
						C7.6,36.7,7.5,37.2,7.5,37.8L7.5,37.8L7.5,37.8z M17.9,27.6l5.7-3.2v0.8l-5.7,3.2C17.9,28.4,17.9,27.6,17.9,27.6z M23.6,22.2
						V23l-5.7,3.2v-0.8L23.6,22.2z M9.5,28.2c0-0.4,0.3-0.9,0.7-1.2l21-12c0.4-0.2,0.7-0.1,0.7,0.3c0,0.4-0.3,0.9-0.7,1.2l-21,12
						C9.8,28.7,9.5,28.6,9.5,28.2L9.5,28.2z M20.8,10.5c5.2-3,9.5-1.3,9.8,3.6L10.9,25.3C11.3,19.9,15.5,13.4,20.8,10.5L20.8,10.5z
						 M3.3,45.8c-0.4,0.2-0.7,0.1-0.7-0.3s0.3-0.9,0.7-1.2c0.4-0.2,0.7,0,0.7,0.4S3.7,45.6,3.3,45.8L3.3,45.8z M4,51l-1.5,0.8l0,0
						c0-0.4,0.3-0.9,0.7-1.2C3.7,50.4,4,50.6,4,51L4,51z M10.2,14.4c0-0.4,0.3-0.9,0.7-1.2c0.4-0.2,0.7-0.1,0.7,0.3
						c0,0.4-0.3,0.9-0.7,1.2S10.2,14.8,10.2,14.4L10.2,14.4z M30.5,2.1C31,1.8,31.3,2,31.3,2.4S31,3.3,30.5,3.6
						c-0.4,0.2-0.7,0.1-0.7-0.3S30.1,2.3,30.5,2.1L30.5,2.1z M40.9,31.8l-0.6-0.9v-0.5c0-0.9-0.6-1.3-1.4-1.2v-2.4
						c0.8-0.7,1.4-1.8,1.4-2.8c0-0.9-0.6-1.3-1.4-1.2V22c0-1.7-1.3-2.4-2.9-1.8c-0.3-0.7-1-0.9-2-0.3l-1.4,0.8l0,0
						c-0.6-0.1-1.3,0-2.1,0.5l-5.6,3.2v-2.9l6.3-3.6c1.1-0.6,2.1-2.1,2.1-3.2c0-0.9-0.6-1.4-1.4-1.2c-0.2-3.1-1.6-5.1-3.9-5.7
						l1.6-2.5c0.3,0,0.6-0.1,0.9-0.3c1.1-0.6,2.1-2.1,2.1-3.2s-0.9-1.5-2.1-0.9c-1.1,0.6-2.1,2.1-2.1,3.2c0,0.3,0.1,0.6,0.2,0.8
						L27,7.5c-1.8-0.2-3.9,0.3-6.2,1.6s-4.4,3.2-6.2,5.5l-1.7-0.8c0.1-0.4,0.2-0.7,0.2-1c0-1.1-0.9-1.5-2.1-0.9
						c-1.1,0.6-2.1,2.1-2.1,3.2S9.8,16.6,11,16c0.3-0.2,0.6-0.4,0.9-0.7l1.6,0.7c-2.2,3.2-3.7,6.9-3.9,10.1
						c-0.8,0.7-1.4,1.9-1.4,2.8c0,1.1,0.9,1.5,2.1,0.9l6.3-3.6v2.9L11,32.3c-0.8,0.4-1.5,1.1-2.1,1.9l0,0L7.5,35
						c-0.9,0.5-1.7,1.6-2,2.6c-1.6,1.2-2.9,3.4-2.9,5.1v0.9c-0.8,0.7-1.4,1.8-1.4,2.8c0,0.9,0.6,1.3,1.4,1.2V50
						c-0.8,0.7-1.4,1.8-1.4,2.8v0.5l-0.6,1.6c-0.1,0.2-0.1,0.5,0,0.6l0.7,1c0.2,0.2,0.6,0.1,0.9-0.2s0.5-0.8,0.3-1.1l-0.6-0.8l0.4-1
						l2-1.1l0.4,0.5l-0.6,1.4c-0.2,0.4,0,0.7,0.3,0.7c0.1,0,0.2,0,0.3-0.1c0.2-0.1,0.5-0.4,0.6-0.7L6,52.3c0.1-0.2,0.1-0.5,0-0.6
						l-0.6-0.9v-0.5c0-0.9-0.6-1.3-1.4-1.2v-2.4c0.8-0.7,1.4-1.8,1.4-2.8c0-0.9-0.6-1.3-1.4-1.2v-0.9c0-1,0.7-2.2,1.6-3
						c0.3,0.6,1,0.7,1.9,0.2l0,0v3.4c-0.4,0.6-0.7,1.3-0.7,1.9c0,0.7,0.3,1.1,0.8,1.2c0.4,2,2.4,2.6,4.8,1.2l2.1-1.2V47
						c-0.8,0.6-1.4,1.6-1.4,2.5s0.8,1.3,1.7,0.7l11.9-6.8c0.9-0.5,1.7-1.7,1.7-2.7c0-0.8-0.6-1.2-1.4-0.9v-1.5l2.1-1.2
						c2.3-1.3,4.3-4.1,4.8-6.7c0.5-0.7,0.8-1.4,0.8-2.1c0-0.6-0.3-1-0.7-1.2V24l0,0c0.9-0.5,1.6-1.5,1.9-2.4
						c0.9-0.3,1.6,0.2,1.6,1.2v0.9c-0.8,0.7-1.4,1.8-1.4,2.8c0,0.9,0.6,1.3,1.4,1.2v2.4c-0.8,0.7-1.4,1.8-1.4,2.8v0.5L35.5,35
						c-0.1,0.2-0.1,0.5,0,0.6l0.7,1c0.2,0.2,0.6,0.1,0.9-0.2c0.3-0.3,0.5-0.8,0.3-1.1l-0.6-0.8l0.4-1l2-1.1l0.4,0.5L39,34.3
						c-0.2,0.4,0,0.7,0.3,0.7c0.1,0,0.2,0,0.3-0.1c0.2-0.1,0.5-0.4,0.6-0.7l0.7-1.8C41,32.1,41,31.9,40.9,31.8L40.9,31.8z"/>
				</g>
				<path id="Fill-6_4_" class="st10" d="M28.4,25.9c-0.4,0.2-0.7,0.7-0.7,1v0.7c0,0.4,0.3,0.5,0.7,0.3c0.4-0.2,0.7-0.7,0.7-1v-0.7
					C29.1,25.9,28.8,25.7,28.4,25.9 M13.1,34.7c-0.4,0.2-0.7,0.7-0.7,1v0.7c0,0.4,0.3,0.5,0.7,0.3s0.7-0.7,0.7-1V35
					C13.7,34.6,13.4,34.5,13.1,34.7 M23.9,30.6L19.7,33c0.2-0.4,0.3-0.9,0.3-1.2c0-0.4-0.1-0.7-0.3-0.9l4.2-2.4
					c0.6-0.3,1.1-0.1,1.1,0.5C25,29.5,24.5,30.3,23.9,30.6 M16.5,33.7c0-0.6,0.5-1.4,1.1-1.7s1.1-0.1,1.1,0.5c0,0.6-0.5,1.4-1.1,1.7
					C17,34.6,16.5,34.4,16.5,33.7 M23.9,27.1l-6.3,3.6c-1.3,0.8-2.4,2.5-2.4,3.8s1.1,1.8,2.4,1l6.3-3.6c1.3-0.8,2.4-2.5,2.4-3.8
					S25.2,26.4,23.9,27.1"/>
			</g>
			<g id="lente-" transform="translate(48.000000, 96.000000)">
				<g id="Group-3_1_">
					<g id="Clip-2_1_">
					</g>
					<path id="Fill-1_6_" class="st73" d="M2.3,58.1l11.8-18.6c-0.1-0.1-0.2-0.2-0.3-0.3c-1.9-2.1-2.9-5-2.9-8.4
						c0-9.3,7.2-20.6,16.3-25.9c3.1-1.8,6.2-2.7,9-2.7c2,0,3.8,0.5,5.3,1.3l0,0L45.9,6l-0.7,1.1c1.1,1.9,1.7,4.2,1.7,6.8
						c0,9.3-7.2,20.6-16.3,25.9c-3,1.7-6,2.6-8.7,2.7L7.2,64.8l-3.9-2.2C1.8,61.6,1.4,59.6,2.3,58.1"/>
				</g>
				<path id="Fill-6_5_" class="st74" d="M19,31.5c0-7,5.9-16.4,12.9-20.5c2.1-1.2,4-1.9,5.7-1.9c2.7,0,4.1,1.8,4.1,5.3
					c0,7-5.9,16.4-12.9,20.5c-2.1,1.2-4,1.9-5.6,1.9l0,0c-1.3,0-2.2-0.4-2.9-1.1C19.4,34.8,19,33.3,19,31.5 M5.1,63.5
					C5.6,63.8,6.2,64,6.8,64c1.1,0,2.1-0.5,2.7-1.5l12-19.3c0.5,0.1,1,0.1,1.6,0.1l0,0c2.7,0,5.8-0.9,8.8-2.7
					c9-5.3,16.1-16.8,16.1-26.1c0-7-4.2-11.8-10.4-11.8c-2.7,0-5.8,0.9-8.8,2.7c-9,5.3-16.1,16.8-16.1,26.1c0,3.4,1,6.4,2.8,8.5
					c0.1,0.1,0.2,0.2,0.3,0.3L4.1,59C3.2,60.5,3.6,62.5,5.1,63.5"/>
				<path id="Fill-8_4_" class="st75" d="M31.9,10.8C24.9,14.9,19,24,19,30.9c0,1.8,0.4,3.2,1.2,4.1c0.7,0.7,1.6,1.1,2.9,1.1l0,0
					c1.6,0,3.6-0.6,5.6-1.8c7-4,12.9-13.2,12.9-20.1c0-3.4-1.4-5.2-4.1-5.2C35.9,9,34,9.6,31.9,10.8"/>
				<path id="Fill-10_3_" class="st76" d="M32.4,10.8C34.6,9.6,36.6,9,38.3,9c2.8,0,4.2,1.8,4.2,5.2c0,6.3-5.2,14.7-11.8,19.1V11.9
					C31.3,11.5,31.9,11.1,32.4,10.8"/>
			</g>
			<g id="robot2" transform="translate(263.000000, 171.000000)" class="st77">
				<g id="Group-3_2_" transform="translate(0.000000, 0.251738)">
					<path id="Fill-1_7_" class="st10" d="M73.3,30.9c-0.6-0.3-0.8-0.8-0.3-1c0.4-0.2,1.3-0.1,1.9,0.2c0.6,0.3,0.8,0.8,0.3,1
						C74.8,31.3,73.9,31.2,73.3,30.9L73.3,30.9z M60.9,28.4l9-4.4c0.3,1.3-0.5,2.5-2.2,3.4C66,28.2,63.5,28.5,60.9,28.4L60.9,28.4z
						 M56.7,28.5c-1.3,0.6-3.8,0.4-5.6-0.5l-28-14.1c-1.8-0.9-2.3-2.2-1-2.8l13.5-6.6c1.3-0.6,3.8-0.4,5.6,0.5l28,14.1
						c1.8,0.9,2.3,2.2,1,2.8L56.7,28.5z M35.2,22.9l-2.3-1.2l1.6-0.8l2.3,1.2L35.2,22.9z M41.6,28.4L41.6,28.4
						c-0.4,0.2-1.3,0.1-1.9-0.2l-7.6-3.8l1.6-0.8l7.6,3.8C41.9,27.7,42.1,28.1,41.6,28.4L41.6,28.4z M30.2,28.6
						c-1.7,0.8-5,0.5-7.4-0.7s-3-2.9-1.3-3.7l3.8-1.9l8.7,4.4L30.2,28.6z M22.1,18.5L22.1,18.5c0.4-0.2,1.3-0.1,1.9,0.2l7.6,3.8
						L30,23.3l-7.6-3.8C21.8,19.2,21.7,18.7,22.1,18.5L22.1,18.5z M24.6,5.6c1.7-0.9,4.3-1.2,6.8-1.1l-9,4.4
						C22,7.6,22.8,6.4,24.6,5.6L24.6,5.6z M17.4,2.7c-0.6-0.3-0.8-0.8-0.3-1c0.4-0.2,1.3-0.1,1.9,0.2s0.8,0.8,0.3,1
						C18.9,3.1,18,3,17.4,2.7L17.4,2.7z M24.3,36.8L24.3,36.8L18.7,34l1.6-0.8l3.3,1.7C24.9,35.6,25.2,36.4,24.3,36.8L24.3,36.8z
						 M10.3,29.8L4.8,27l0,0c0.9-0.4,2.5-0.3,3.8,0.4l3.3,1.7L10.3,29.8z M76.3,29.4c-1.4-0.7-3.2-1-4.5-0.8L70.4,28
						c2.1-1.3,2.7-3.1,1.4-4.9l0.4-0.2c2-1,1.3-3-1.6-4.5l-28-14.1c-2.9-1.5-7-1.9-9-0.9l-0.4,0.2c-3.6-0.6-7.3-0.4-10,0.6l-1.4-0.7
						c0.5-0.6-0.1-1.5-1.5-2.2c-1.7-0.9-4.2-1.1-5.4-0.5s-0.8,1.8,1,2.7c1.4,0.7,3.2,1,4.5,0.8L21.8,5c-2.1,1.3-2.7,3.1-1.4,4.9
						L20.1,10c-2,1-1.3,3,1.6,4.5L32.5,20l-1.6,0.8L25.5,18c-1.5-0.8-3.6-1-4.9-0.7c-4-0.8-7.8-1-11.1-0.3c-1.8,0.3-3,0.8-3.6,1.1
						l-2.2-0.5c-0.5-0.1-0.9-0.1-1.2,0l-2.3,1.1c-0.3,0.1-0.3,0.4-0.1,0.6l1.4,1.5c0.1,0.1,0.2,0.2,0.4,0.3c0.4,0.2,0.9,0.3,1.3,0.3
						c0.6,0,0.8-0.4,0.5-0.7l-1-1.1l1.4-0.7l1.5,0.4L6.3,20l-1.1,0.5c-0.4,0.2-0.3,0.6,0.3,0.9s1.3,0.4,1.7,0.2l1.5-0.7
						C9,20.8,9,20.5,8.8,20.3l-1-1.1c1.2-0.5,5.3-2,11.6-0.9c-0.1,0.6,0.4,1.3,1.6,1.9l2.2,1.1l-3.8,1.9c-1.6,0.8-1.8,2.1-0.8,3.4
						c-1.3,0-4,0.3-6.4,1.3L10,26.7c-2.3-1.2-5.6-1.5-7.2-0.7L2,26.4c-0.4,0.2-0.3,0.6,0.3,0.9L9.9,31c0.6,0.3,1.3,0.4,1.7,0.2
						l3-1.5c0.4-0.2,0.3-0.6-0.3-0.9l0,0c2.3-0.9,4.9-1,5.7-1.1c0.4,0.3,0.9,0.6,1.4,0.8c0.5,0.3,1.1,0.5,1.6,0.7
						c0,0.4-0.3,1.7-2.2,2.8l0,0c-0.6-0.3-1.3-0.4-1.7-0.2l-3,1.5c-0.4,0.2-0.3,0.6,0.3,0.9l7.5,3.8c0.6,0.3,1.3,0.4,1.7,0.2
						l0.8-0.4c1.6-0.8,1.1-2.4-1.3-3.6l-2.3-1.1c2-1.2,2.5-2.5,2.6-3.2c2.6,0.5,5.2,0.4,6.8-0.3l3.8-1.9l2.2,1.1
						c1.2,0.6,2.7,0.9,3.9,0.8c1,1.5,1,2.9,0,4.2c-0.6,0.8-1.5,1.3-1.9,1.6l-2.1-0.5c-0.5-0.1-0.9-0.1-1.2,0l-1.5,0.7
						c-0.4,0.2-0.3,0.6,0.3,0.9c0.6,0.3,1.3,0.4,1.7,0.2l1.1-0.5l1.5,0.4l0.7,0.8L39.4,38l-2.2-0.5c-0.7-0.2-1.3-0.1-1.4,0.2
						c-0.1,0.2,0.1,0.5,0.5,0.6c0.2,0.1,0.3,0.1,0.5,0.2l2.9,0.7c0.5,0.1,0.9,0.1,1.2,0l2.3-1.1c0.3-0.1,0.3-0.4,0.1-0.6l-1-1.1
						c0.6-0.3,1.5-0.9,2.2-1.8c1.3-1.7,1.1-3.6-0.5-5.5c0.7-0.6,0.2-1.7-1.3-2.4L37.3,24l1.6-0.8l10.8,5.5c2.9,1.5,7,1.9,9,0.9
						l0.4-0.2c3.6,0.6,7.3,0.4,10-0.6l1.4,0.7c-0.4,0.6,0.1,1.5,1.5,2.2c1.7,0.9,4.2,1.1,5.4,0.5C78.5,31.5,78.1,30.3,76.3,29.4
						L76.3,29.4z"/>
				</g>
				<path id="Fill-4_2_" class="st10" d="M53.1,26.2l-26-13.1l12.1-5.9l26,13.1L53.1,26.2z M67.6,20.1L39.6,6
					c-0.6-0.3-1.3-0.4-1.7-0.2l-13.5,6.6c-0.4,0.2-0.3,0.6,0.3,0.9l28,14.1c0.6,0.3,1.3,0.4,1.7,0.2L67.9,21
					C68.3,20.7,68.2,20.3,67.6,20.1L67.6,20.1z"/>
				<path id="Fill-6_6_" class="st10" d="M52.6,17.7c0.4-0.2,1.3-0.1,1.9,0.2c0.6,0.3,0.8,0.8,0.3,1l-4.5,2.2
					c-0.4,0.2-1.3,0.1-1.9-0.2c-0.6-0.3-0.8-0.8-0.3-1L52.6,17.7z M47.1,21.6c1.7,0.9,4.2,1.1,5.4,0.5l4.5-2.2
					c1.2-0.6,0.8-1.8-1-2.7c-1.7-0.9-4.2-1.1-5.4-0.5l-4.5,2.2C44.9,19.5,45.3,20.7,47.1,21.6L47.1,21.6z M41.9,12.3
					c0.4-0.2,1.3-0.1,1.9,0.2c0.6,0.3,0.8,0.8,0.3,1l-4.5,2.2c-0.4,0.2-1.3,0.1-1.9-0.2c-0.6-0.3-0.8-0.8-0.3-1L41.9,12.3z
					 M36.3,16.2c1.7,0.9,4.2,1.1,5.4,0.5l4.5-2.2c1.2-0.6,0.8-1.8-1-2.7c-1.7-0.9-4.2-1.1-5.4-0.5l-4.5,2.2
					C34.1,14.1,34.6,15.3,36.3,16.2L36.3,16.2z"/>
			</g>
		</g>
	</g>
</g>
</svg>
