<?xml version="1.0" encoding="utf-8"?>
<!-- Generator: Adobe Illustrator 21.0.2, SVG Export Plug-In . SVG Version: 6.00 Build 0)  -->
<svg version="1.1" id="Livello_1" xmlns="http://www.w3.org/2000/svg" xmlns:xlink="http://www.w3.org/1999/xlink" x="0px" y="0px"
	 width="68px" height="62px" viewBox="0 0 68 62" style="enable-background:new 0 0 68 62;" xml:space="preserve">
<style type="text/css">
	.st0{fill:#FFFFFF;}
</style>
<path id="Fill-1" class="st0" d="M59.5,0C64.2,0,68,3.8,68,8.4V62h-8.5V11.2c0-1.5-1.3-2.8-2.8-2.8H11.3c-1.6,0-2.8,1.3-2.8,2.8V62
	H0V8.4C0,3.8,3.8,0,8.5,0H59.5z"/>
<polygon id="Fill-4" class="st0" points="30.3,62 38.6,62 38.6,28.3 30.3,28.3 "/>
<path id="Fill-6" class="st0" d="M25.7,31.5c0-2.3-1.9-4.1-4.1-4.1s-4.1,1.8-4.1,4.1s1.9,4.1,4.1,4.1S25.7,33.7,25.7,31.5"/>
</svg>
