<?xml version="1.0" standalone="no"?>
<!DOCTYPE svg PUBLIC "-//W3C//DTD SVG 20010904//EN"
 "http://www.w3.org/TR/2001/REC-SVG-20010904/DTD/svg10.dtd">
<svg version="1.0" xmlns="http://www.w3.org/2000/svg"
 width="700.000000pt" height="700.000000pt" viewBox="0 0 700.000000 700.000000"
 preserveAspectRatio="xMidYMid meet">
<metadata>
Created by potrace 1.11, written by Peter Selinger 2001-2013
</metadata>
<g transform="translate(0.000000,700.000000) scale(0.100000,-0.100000)"
fill="#000000" stroke="none">
<path d="M812 6668 c-51 -3 -104 -9 -117 -12 -14 -4 -26 -6 -27 -5 -2 0 -37
-12 -78 -26 -254 -92 -444 -280 -540 -536 -51 -139 -49 -31 -45 -2519 2 -1273
4 -2523 4 -2777 l1 -463 440 0 440 0 2 2648 c3 2471 4 2649 20 2683 9 20 37
57 62 82 82 85 -150 78 2525 78 2237 0 2378 -1 2423 -18 62 -22 131 -89 155
-151 17 -45 18 -157 18 -2684 l0 -2638 452 0 452 0 -4 2387 c-6 3340 -4 3157
-20 3238 -25 130 -63 222 -136 330 -114 169 -299 306 -474 352 -140 36 -62 35
-2810 37 -1457 0 -2692 -2 -2743 -6z"/>
<path d="M2170 3872 c-97 -11 -179 -52 -252 -125 -162 -162 -161 -421 1 -585
165 -167 430 -165 597 5 43 43 94 136 108 197 7 30 9 139 3 166 -23 96 -55
157 -117 220 -90 89 -220 136 -340 122z"/>
<path d="M3117 3770 c-10 -4 -12 -377 -11 -1715 1 -940 2 -1713 3 -1717 0 -5
189 -8 419 -8 l417 0 0 1720 c0 1718 0 1720 -20 1721 -91 4 -798 3 -808 -1z"/>
</g>
</svg>
